STARTFONT 2.1
COMMENT
COMMENT Converted from OpenType font "notosans.ttf" by "otf2bdf 3.0".
COMMENT
FONT -FreeType-Noto Sans-Medium-R-Normal--11-80-100-100-P-57-ISO10646-1
SIZE 8 100 100
FONTBOUNDINGBOX 38 19 -7 -4
STARTPROPERTIES 19
FOUNDRY "FreeType"
FAMILY_NAME "Noto Sans"
WEIGHT_NAME "Medium"
SLANT "R"
SETWIDTH_NAME "Normal"
ADD_STYLE_NAME ""
PIXEL_SIZE 11
POINT_SIZE 80
RESOLUTION_X 100
RESOLUTION_Y 100
SPACING "P"
AVERAGE_WIDTH 57
CHARSET_REGISTRY "ISO10646"
CHARSET_ENCODING "1"
FONT_ASCENT 11
FONT_DESCENT 3
COPYRIGHT "Copyright 2015-2021 Google LLC. All Rights Reserved."
_OTF_FONTFILE "notosans.ttf"
_OTF_PSNAME "NotoSans-Regular"
ENDPROPERTIES
CHARS 3053
STARTCHAR 0000
ENCODING 0
SWIDTH 0 0
DWIDTH 0 0
BBX 0 0 0 0
BITMAP
ENDCHAR
STARTCHAR 000D
ENCODING 13
SWIDTH 180 0
DWIDTH 2 0
BBX 0 0 0 0
BITMAP
ENDCHAR
STARTCHAR 0020
ENCODING 32
SWIDTH 180 0
DWIDTH 2 0
BBX 0 0 0 0
BITMAP
ENDCHAR
STARTCHAR 0021
ENCODING 33
SWIDTH 180 0
DWIDTH 2 0
BBX 1 8 1 0
BITMAP
80
80
80
80
80
80
00
80
ENDCHAR
STARTCHAR 0022
ENCODING 34
SWIDTH 360 0
DWIDTH 4 0
BBX 3 3 1 5
BITMAP
A0
A0
A0
ENDCHAR
STARTCHAR 0023
ENCODING 35
SWIDTH 630 0
DWIDTH 7 0
BBX 7 8 0 0
BITMAP
04
24
7E
28
28
FE
48
50
ENDCHAR
STARTCHAR 0024
ENCODING 36
SWIDTH 540 0
DWIDTH 6 0
BBX 5 9 1 -1
BITMAP
20
F0
A0
E0
30
28
B0
60
20
ENDCHAR
STARTCHAR 0025
ENCODING 37
SWIDTH 810 0
DWIDTH 9 0
BBX 8 8 1 0
BITMAP
C4
A8
A8
B6
D9
29
29
46
ENDCHAR
STARTCHAR 0026
ENCODING 38
SWIDTH 720 0
DWIDTH 8 0
BBX 7 8 1 0
BITMAP
70
90
D0
60
B0
9C
8C
F6
ENDCHAR
STARTCHAR 0027
ENCODING 39
SWIDTH 180 0
DWIDTH 2 0
BBX 1 3 1 5
BITMAP
80
80
80
ENDCHAR
STARTCHAR 0028
ENCODING 40
SWIDTH 270 0
DWIDTH 3 0
BBX 3 10 0 -2
BITMAP
20
40
40
40
80
80
40
40
40
20
ENDCHAR
STARTCHAR 0029
ENCODING 41
SWIDTH 270 0
DWIDTH 3 0
BBX 2 9 1 -2
BITMAP
80
80
40
40
40
40
40
C0
80
ENDCHAR
STARTCHAR 002A
ENCODING 42
SWIDTH 540 0
DWIDTH 6 0
BBX 5 4 1 3
BITMAP
40
D8
60
70
ENDCHAR
STARTCHAR 002B
ENCODING 43
SWIDTH 540 0
DWIDTH 6 0
BBX 4 6 1 1
BITMAP
20
20
20
F0
20
20
ENDCHAR
STARTCHAR 002C
ENCODING 44
SWIDTH 180 0
DWIDTH 2 0
BBX 1 2 1 -1
BITMAP
80
80
ENDCHAR
STARTCHAR 002D
ENCODING 45
SWIDTH 270 0
DWIDTH 3 0
BBX 2 1 1 2
BITMAP
C0
ENDCHAR
STARTCHAR 002E
ENCODING 46
SWIDTH 180 0
DWIDTH 2 0
BBX 1 1 1 0
BITMAP
80
ENDCHAR
STARTCHAR 002F
ENCODING 47
SWIDTH 360 0
DWIDTH 4 0
BBX 4 8 0 0
BITMAP
10
20
20
20
40
40
40
80
ENDCHAR
STARTCHAR 0030
ENCODING 48
SWIDTH 540 0
DWIDTH 6 0
BBX 5 8 1 0
BITMAP
70
90
88
88
88
88
90
70
ENDCHAR
STARTCHAR 0031
ENCODING 49
SWIDTH 540 0
DWIDTH 6 0
BBX 3 8 1 0
BITMAP
20
E0
20
20
20
20
20
20
ENDCHAR
STARTCHAR 0032
ENCODING 50
SWIDTH 540 0
DWIDTH 6 0
BBX 5 8 1 0
BITMAP
F0
10
10
10
20
40
80
F8
ENDCHAR
STARTCHAR 0033
ENCODING 51
SWIDTH 540 0
DWIDTH 6 0
BBX 6 8 0 0
BITMAP
78
08
08
38
08
04
04
F8
ENDCHAR
STARTCHAR 0034
ENCODING 52
SWIDTH 540 0
DWIDTH 6 0
BBX 6 8 0 0
BITMAP
08
18
28
48
48
FC
08
08
ENDCHAR
STARTCHAR 0035
ENCODING 53
SWIDTH 540 0
DWIDTH 6 0
BBX 5 8 1 0
BITMAP
F0
80
80
F0
18
08
18
F0
ENDCHAR
STARTCHAR 0036
ENCODING 54
SWIDTH 540 0
DWIDTH 6 0
BBX 5 8 1 0
BITMAP
70
80
80
F0
88
88
88
70
ENDCHAR
STARTCHAR 0037
ENCODING 55
SWIDTH 540 0
DWIDTH 6 0
BBX 6 8 0 0
BITMAP
FC
04
08
08
10
10
20
20
ENDCHAR
STARTCHAR 0038
ENCODING 56
SWIDTH 540 0
DWIDTH 6 0
BBX 5 8 1 0
BITMAP
F0
88
90
70
90
88
88
F0
ENDCHAR
STARTCHAR 0039
ENCODING 57
SWIDTH 540 0
DWIDTH 6 0
BBX 5 8 1 0
BITMAP
F0
90
88
88
F8
08
10
E0
ENDCHAR
STARTCHAR 003A
ENCODING 58
SWIDTH 180 0
DWIDTH 2 0
BBX 1 6 1 0
BITMAP
80
00
00
00
00
80
ENDCHAR
STARTCHAR 003B
ENCODING 59
SWIDTH 180 0
DWIDTH 2 0
BBX 2 7 0 -1
BITMAP
40
00
00
00
00
40
80
ENDCHAR
STARTCHAR 003C
ENCODING 60
SWIDTH 540 0
DWIDTH 6 0
BBX 5 6 1 1
BITMAP
08
30
C0
C0
30
08
ENDCHAR
STARTCHAR 003D
ENCODING 61
SWIDTH 540 0
DWIDTH 6 0
BBX 5 3 1 2
BITMAP
F0
00
F8
ENDCHAR
STARTCHAR 003E
ENCODING 62
SWIDTH 540 0
DWIDTH 6 0
BBX 5 4 1 2
BITMAP
C0
30
18
E0
ENDCHAR
STARTCHAR 003F
ENCODING 63
SWIDTH 360 0
DWIDTH 4 0
BBX 4 8 0 0
BITMAP
F0
10
10
10
20
00
00
60
ENDCHAR
STARTCHAR 0040
ENCODING 64
SWIDTH 810 0
DWIDTH 9 0
BBX 8 9 1 -1
BITMAP
3C
43
9D
A5
A5
A5
9A
80
7C
ENDCHAR
STARTCHAR 0041
ENCODING 65
SWIDTH 630 0
DWIDTH 7 0
BBX 7 8 0 0
BITMAP
10
28
28
28
44
7C
46
82
ENDCHAR
STARTCHAR 0042
ENCODING 66
SWIDTH 630 0
DWIDTH 7 0
BBX 6 8 1 0
BITMAP
F8
88
88
F8
88
84
8C
F8
ENDCHAR
STARTCHAR 0043
ENCODING 67
SWIDTH 630 0
DWIDTH 7 0
BBX 6 8 1 0
BITMAP
7C
C0
80
80
80
80
C0
78
ENDCHAR
STARTCHAR 0044
ENCODING 68
SWIDTH 720 0
DWIDTH 8 0
BBX 6 8 1 0
BITMAP
F8
8C
84
84
84
84
8C
F8
ENDCHAR
STARTCHAR 0045
ENCODING 69
SWIDTH 540 0
DWIDTH 6 0
BBX 5 8 1 0
BITMAP
F8
80
80
F0
80
80
80
F8
ENDCHAR
STARTCHAR 0046
ENCODING 70
SWIDTH 450 0
DWIDTH 5 0
BBX 5 8 1 0
BITMAP
F8
80
80
80
F0
80
80
80
ENDCHAR
STARTCHAR 0047
ENCODING 71
SWIDTH 720 0
DWIDTH 8 0
BBX 6 8 1 0
BITMAP
3C
C0
80
80
8C
84
C4
7C
ENDCHAR
STARTCHAR 0048
ENCODING 72
SWIDTH 720 0
DWIDTH 8 0
BBX 6 8 1 0
BITMAP
84
84
84
FC
84
84
84
84
ENDCHAR
STARTCHAR 0049
ENCODING 73
SWIDTH 270 0
DWIDTH 3 0
BBX 3 8 0 0
BITMAP
E0
40
40
40
40
40
40
E0
ENDCHAR
STARTCHAR 004A
ENCODING 74
SWIDTH 270 0
DWIDTH 3 0
BBX 3 10 -1 -2
BITMAP
20
20
20
20
20
20
20
20
20
E0
ENDCHAR
STARTCHAR 004B
ENCODING 75
SWIDTH 540 0
DWIDTH 6 0
BBX 6 8 1 0
BITMAP
88
90
B0
E0
E0
90
88
8C
ENDCHAR
STARTCHAR 004C
ENCODING 76
SWIDTH 450 0
DWIDTH 5 0
BBX 5 8 1 0
BITMAP
80
80
80
80
80
80
80
F8
ENDCHAR
STARTCHAR 004D
ENCODING 77
SWIDTH 900 0
DWIDTH 10 0
BBX 8 8 1 0
BITMAP
C3
C3
C5
A5
A5
99
99
99
ENDCHAR
STARTCHAR 004E
ENCODING 78
SWIDTH 720 0
DWIDTH 8 0
BBX 6 8 1 0
BITMAP
C4
C4
A4
A4
94
8C
8C
84
ENDCHAR
STARTCHAR 004F
ENCODING 79
SWIDTH 720 0
DWIDTH 8 0
BBX 7 8 1 0
BITMAP
78
C4
82
82
82
82
84
7C
ENDCHAR
STARTCHAR 0050
ENCODING 80
SWIDTH 540 0
DWIDTH 6 0
BBX 5 8 1 0
BITMAP
F0
88
88
88
F0
80
80
80
ENDCHAR
STARTCHAR 0051
ENCODING 81
SWIDTH 720 0
DWIDTH 8 0
BBX 7 10 1 -2
BITMAP
78
C4
82
82
82
82
84
7C
08
04
ENDCHAR
STARTCHAR 0052
ENCODING 82
SWIDTH 540 0
DWIDTH 6 0
BBX 5 8 1 0
BITMAP
F0
88
88
88
F0
90
88
88
ENDCHAR
STARTCHAR 0053
ENCODING 83
SWIDTH 540 0
DWIDTH 6 0
BBX 5 8 1 0
BITMAP
F0
80
80
C0
30
08
18
F0
ENDCHAR
STARTCHAR 0054
ENCODING 84
SWIDTH 540 0
DWIDTH 6 0
BBX 6 8 0 0
BITMAP
FC
10
10
10
10
10
10
10
ENDCHAR
STARTCHAR 0055
ENCODING 85
SWIDTH 720 0
DWIDTH 8 0
BBX 6 8 1 0
BITMAP
84
84
84
84
84
84
84
78
ENDCHAR
STARTCHAR 0056
ENCODING 86
SWIDTH 540 0
DWIDTH 6 0
BBX 7 8 0 0
BITMAP
86
44
44
48
28
28
30
10
ENDCHAR
STARTCHAR 0057
ENCODING 87
SWIDTH 900 0
DWIDTH 10 0
BBX 10 8 0 0
BITMAP
8C40
4C40
4C40
4A80
5280
3280
3300
2100
ENDCHAR
STARTCHAR 0058
ENCODING 88
SWIDTH 540 0
DWIDTH 6 0
BBX 6 8 0 0
BITMAP
44
48
28
30
30
28
4C
84
ENDCHAR
STARTCHAR 0059
ENCODING 89
SWIDTH 540 0
DWIDTH 6 0
BBX 6 8 0 0
BITMAP
84
4C
48
30
30
10
10
10
ENDCHAR
STARTCHAR 005A
ENCODING 90
SWIDTH 540 0
DWIDTH 6 0
BBX 6 8 0 0
BITMAP
7C
08
08
10
20
20
40
FC
ENDCHAR
STARTCHAR 005B
ENCODING 91
SWIDTH 270 0
DWIDTH 3 0
BBX 2 10 1 -2
BITMAP
C0
80
80
80
80
80
80
80
80
C0
ENDCHAR
STARTCHAR 005C
ENCODING 92
SWIDTH 360 0
DWIDTH 4 0
BBX 4 8 0 0
BITMAP
80
40
40
40
20
20
20
10
ENDCHAR
STARTCHAR 005D
ENCODING 93
SWIDTH 270 0
DWIDTH 3 0
BBX 3 10 0 -2
BITMAP
E0
20
20
20
20
20
20
20
20
E0
ENDCHAR
STARTCHAR 005E
ENCODING 94
SWIDTH 540 0
DWIDTH 6 0
BBX 5 5 1 3
BITMAP
20
60
90
90
88
ENDCHAR
STARTCHAR 005F
ENCODING 95
SWIDTH 360 0
DWIDTH 4 0
BBX 5 1 0 -2
BITMAP
F8
ENDCHAR
STARTCHAR 0060
ENCODING 96
SWIDTH 270 0
DWIDTH 3 0
BBX 2 2 0 7
BITMAP
C0
40
ENDCHAR
STARTCHAR 0061
ENCODING 97
SWIDTH 540 0
DWIDTH 6 0
BBX 4 6 1 0
BITMAP
F0
10
30
D0
90
F0
ENDCHAR
STARTCHAR 0062
ENCODING 98
SWIDTH 540 0
DWIDTH 6 0
BBX 5 8 1 0
BITMAP
80
80
F0
88
88
88
88
F0
ENDCHAR
STARTCHAR 0063
ENCODING 99
SWIDTH 450 0
DWIDTH 5 0
BBX 4 6 1 0
BITMAP
70
80
80
80
80
70
ENDCHAR
STARTCHAR 0064
ENCODING 100
SWIDTH 540 0
DWIDTH 6 0
BBX 5 8 1 0
BITMAP
08
08
F8
88
88
88
88
F8
ENDCHAR
STARTCHAR 0065
ENCODING 101
SWIDTH 540 0
DWIDTH 6 0
BBX 5 6 1 0
BITMAP
70
98
F8
80
80
70
ENDCHAR
STARTCHAR 0066
ENCODING 102
SWIDTH 270 0
DWIDTH 3 0
BBX 4 8 0 1
BITMAP
70
40
F0
40
40
40
40
40
ENDCHAR
STARTCHAR 0067
ENCODING 103
SWIDTH 540 0
DWIDTH 6 0
BBX 5 9 1 -3
BITMAP
78
88
88
88
88
F8
08
18
60
ENDCHAR
STARTCHAR 0068
ENCODING 104
SWIDTH 540 0
DWIDTH 6 0
BBX 5 8 1 0
BITMAP
80
80
F0
88
88
88
88
88
ENDCHAR
STARTCHAR 0069
ENCODING 105
SWIDTH 180 0
DWIDTH 2 0
BBX 1 8 1 0
BITMAP
80
00
80
80
80
80
80
80
ENDCHAR
STARTCHAR 006A
ENCODING 106
SWIDTH 180 0
DWIDTH 2 0
BBX 3 11 -1 -3
BITMAP
20
00
20
20
20
20
20
20
20
20
C0
ENDCHAR
STARTCHAR 006B
ENCODING 107
SWIDTH 450 0
DWIDTH 5 0
BBX 4 8 1 0
BITMAP
80
80
90
A0
C0
A0
90
90
ENDCHAR
STARTCHAR 006C
ENCODING 108
SWIDTH 180 0
DWIDTH 2 0
BBX 1 8 1 0
BITMAP
80
80
80
80
80
80
80
80
ENDCHAR
STARTCHAR 006D
ENCODING 109
SWIDTH 900 0
DWIDTH 10 0
BBX 8 6 1 0
BITMAP
F7
89
89
89
89
89
ENDCHAR
STARTCHAR 006E
ENCODING 110
SWIDTH 540 0
DWIDTH 6 0
BBX 5 6 1 0
BITMAP
F0
88
88
88
88
88
ENDCHAR
STARTCHAR 006F
ENCODING 111
SWIDTH 540 0
DWIDTH 6 0
BBX 5 6 1 0
BITMAP
70
88
88
88
88
70
ENDCHAR
STARTCHAR 0070
ENCODING 112
SWIDTH 540 0
DWIDTH 6 0
BBX 5 9 1 -3
BITMAP
F0
88
88
88
88
F0
80
80
80
ENDCHAR
STARTCHAR 0071
ENCODING 113
SWIDTH 540 0
DWIDTH 6 0
BBX 5 9 1 -3
BITMAP
78
88
88
88
88
F8
08
08
08
ENDCHAR
STARTCHAR 0072
ENCODING 114
SWIDTH 360 0
DWIDTH 4 0
BBX 3 6 1 0
BITMAP
E0
80
80
80
80
80
ENDCHAR
STARTCHAR 0073
ENCODING 115
SWIDTH 450 0
DWIDTH 5 0
BBX 4 6 1 0
BITMAP
F0
80
C0
30
10
E0
ENDCHAR
STARTCHAR 0074
ENCODING 116
SWIDTH 360 0
DWIDTH 4 0
BBX 4 7 0 0
BITMAP
40
F0
40
40
40
40
70
ENDCHAR
STARTCHAR 0075
ENCODING 117
SWIDTH 540 0
DWIDTH 6 0
BBX 5 6 1 0
BITMAP
88
88
88
88
88
F8
ENDCHAR
STARTCHAR 0076
ENCODING 118
SWIDTH 450 0
DWIDTH 5 0
BBX 5 6 0 0
BITMAP
88
48
48
50
30
30
ENDCHAR
STARTCHAR 0077
ENCODING 119
SWIDTH 720 0
DWIDTH 8 0
BBX 8 6 0 0
BITMAP
89
59
55
55
66
22
ENDCHAR
STARTCHAR 0078
ENCODING 120
SWIDTH 450 0
DWIDTH 5 0
BBX 4 6 1 0
BITMAP
90
B0
60
60
90
90
ENDCHAR
STARTCHAR 0079
ENCODING 121
SWIDTH 450 0
DWIDTH 5 0
BBX 5 9 0 -3
BITMAP
88
48
48
50
30
30
20
20
C0
ENDCHAR
STARTCHAR 007A
ENCODING 122
SWIDTH 450 0
DWIDTH 5 0
BBX 5 6 0 0
BITMAP
78
10
20
20
40
F8
ENDCHAR
STARTCHAR 007B
ENCODING 123
SWIDTH 360 0
DWIDTH 4 0
BBX 4 10 0 -2
BITMAP
30
20
20
20
C0
40
20
20
20
10
ENDCHAR
STARTCHAR 007C
ENCODING 124
SWIDTH 540 0
DWIDTH 6 0
BBX 1 10 3 -3
BITMAP
80
80
80
80
80
80
80
80
80
80
ENDCHAR
STARTCHAR 007D
ENCODING 125
SWIDTH 360 0
DWIDTH 4 0
BBX 4 10 0 -2
BITMAP
C0
20
20
20
30
20
20
20
60
C0
ENDCHAR
STARTCHAR 007E
ENCODING 126
SWIDTH 540 0
DWIDTH 6 0
BBX 4 2 1 3
BITMAP
C0
30
ENDCHAR
STARTCHAR 00A0
ENCODING 160
SWIDTH 180 0
DWIDTH 2 0
BBX 0 0 0 0
BITMAP
ENDCHAR
STARTCHAR 00A1
ENCODING 161
SWIDTH 180 0
DWIDTH 2 0
BBX 1 8 1 -2
BITMAP
80
00
80
80
80
80
80
80
ENDCHAR
STARTCHAR 00A2
ENCODING 162
SWIDTH 540 0
DWIDTH 6 0
BBX 4 8 1 0
BITMAP
20
70
80
80
80
80
70
20
ENDCHAR
STARTCHAR 00A3
ENCODING 163
SWIDTH 540 0
DWIDTH 6 0
BBX 6 8 0 0
BITMAP
3C
20
40
40
70
40
40
FC
ENDCHAR
STARTCHAR 00A4
ENCODING 164
SWIDTH 540 0
DWIDTH 6 0
BBX 4 4 1 1
BITMAP
F0
90
90
F0
ENDCHAR
STARTCHAR 00A5
ENCODING 165
SWIDTH 540 0
DWIDTH 6 0
BBX 6 8 0 0
BITMAP
84
48
48
30
78
10
78
10
ENDCHAR
STARTCHAR 00A6
ENCODING 166
SWIDTH 540 0
DWIDTH 6 0
BBX 1 10 3 -3
BITMAP
80
80
80
00
00
00
00
80
80
80
ENDCHAR
STARTCHAR 00A7
ENCODING 167
SWIDTH 450 0
DWIDTH 5 0
BBX 4 8 1 1
BITMAP
F0
80
E0
90
90
70
10
E0
ENDCHAR
STARTCHAR 00A8
ENCODING 168
SWIDTH 540 0
DWIDTH 6 0
BBX 3 1 2 7
BITMAP
A0
ENDCHAR
STARTCHAR 00A9
ENCODING 169
SWIDTH 810 0
DWIDTH 9 0
BBX 8 8 1 0
BITMAP
7C
82
BA
A1
C1
A2
8A
7C
ENDCHAR
STARTCHAR 00AA
ENCODING 170
SWIDTH 270 0
DWIDTH 3 0
BBX 3 4 0 4
BITMAP
60
20
E0
40
ENDCHAR
STARTCHAR 00AB
ENCODING 171
SWIDTH 450 0
DWIDTH 5 0
BBX 4 4 1 1
BITMAP
50
A0
A0
50
ENDCHAR
STARTCHAR 00AC
ENCODING 172
SWIDTH 540 0
DWIDTH 6 0
BBX 5 3 1 1
BITMAP
F8
08
08
ENDCHAR
STARTCHAR 00AD
ENCODING 173
SWIDTH 270 0
DWIDTH 3 0
BBX 2 1 1 2
BITMAP
C0
ENDCHAR
STARTCHAR 00AE
ENCODING 174
SWIDTH 810 0
DWIDTH 9 0
BBX 8 8 1 0
BITMAP
7C
82
BA
A9
B9
AA
82
7C
ENDCHAR
STARTCHAR 00AF
ENCODING 175
SWIDTH 450 0
DWIDTH 5 0
BBX 6 1 0 8
BITMAP
FC
ENDCHAR
STARTCHAR 00B0
ENCODING 176
SWIDTH 360 0
DWIDTH 4 0
BBX 3 3 1 5
BITMAP
E0
A0
E0
ENDCHAR
STARTCHAR 00B1
ENCODING 177
SWIDTH 540 0
DWIDTH 6 0
BBX 5 7 1 0
BITMAP
20
20
20
F0
20
20
F8
ENDCHAR
STARTCHAR 00B2
ENCODING 178
SWIDTH 270 0
DWIDTH 3 0
BBX 3 4 0 5
BITMAP
60
20
40
E0
ENDCHAR
STARTCHAR 00B3
ENCODING 179
SWIDTH 270 0
DWIDTH 3 0
BBX 2 4 1 5
BITMAP
C0
40
C0
C0
ENDCHAR
STARTCHAR 00B4
ENCODING 180
SWIDTH 270 0
DWIDTH 3 0
BBX 2 2 1 7
BITMAP
C0
80
ENDCHAR
STARTCHAR 00B5
ENCODING 181
SWIDTH 540 0
DWIDTH 6 0
BBX 5 9 1 -3
BITMAP
88
88
88
88
88
F8
80
80
80
ENDCHAR
STARTCHAR 00B6
ENCODING 182
SWIDTH 630 0
DWIDTH 7 0
BBX 5 9 1 -1
BITMAP
F8
E8
E8
E8
E8
28
28
28
28
ENDCHAR
STARTCHAR 00B7
ENCODING 183
SWIDTH 180 0
DWIDTH 2 0
BBX 1 2 1 3
BITMAP
80
80
ENDCHAR
STARTCHAR 00B8
ENCODING 184
SWIDTH 180 0
DWIDTH 2 0
BBX 2 3 0 -3
BITMAP
80
40
C0
ENDCHAR
STARTCHAR 00B9
ENCODING 185
SWIDTH 270 0
DWIDTH 3 0
BBX 2 4 1 5
BITMAP
C0
40
40
40
ENDCHAR
STARTCHAR 00BA
ENCODING 186
SWIDTH 360 0
DWIDTH 4 0
BBX 4 4 0 4
BITMAP
60
90
90
60
ENDCHAR
STARTCHAR 00BB
ENCODING 187
SWIDTH 450 0
DWIDTH 5 0
BBX 4 4 1 1
BITMAP
A0
50
50
A0
ENDCHAR
STARTCHAR 00BC
ENCODING 188
SWIDTH 720 0
DWIDTH 8 0
BBX 7 8 1 0
BITMAP
C4
48
48
56
6A
2A
5E
42
ENDCHAR
STARTCHAR 00BD
ENCODING 189
SWIDTH 720 0
DWIDTH 8 0
BBX 7 8 1 0
BITMAP
C0
48
50
5E
62
42
44
8E
ENDCHAR
STARTCHAR 00BE
ENCODING 190
SWIDTH 720 0
DWIDTH 8 0
BBX 9 8 0 0
BITMAP
E200
2200
6400
1900
EB00
1500
1780
2100
ENDCHAR
STARTCHAR 00BF
ENCODING 191
SWIDTH 360 0
DWIDTH 4 0
BBX 5 8 0 -2
BITMAP
20
00
20
20
40
80
80
78
ENDCHAR
STARTCHAR 00C0
ENCODING 192
SWIDTH 630 0
DWIDTH 7 0
BBX 7 11 0 0
BITMAP
20
10
00
10
28
28
28
44
7C
46
82
ENDCHAR
STARTCHAR 00C1
ENCODING 193
SWIDTH 630 0
DWIDTH 7 0
BBX 7 11 0 0
BITMAP
08
10
00
10
28
28
28
44
7C
46
82
ENDCHAR
STARTCHAR 00C2
ENCODING 194
SWIDTH 630 0
DWIDTH 7 0
BBX 7 11 0 0
BITMAP
10
28
00
10
28
28
28
44
7C
46
82
ENDCHAR
STARTCHAR 00C3
ENCODING 195
SWIDTH 630 0
DWIDTH 7 0
BBX 7 10 0 0
BITMAP
38
00
10
28
28
28
44
7C
46
82
ENDCHAR
STARTCHAR 00C4
ENCODING 196
SWIDTH 630 0
DWIDTH 7 0
BBX 7 10 0 0
BITMAP
28
00
10
28
28
28
44
7C
46
82
ENDCHAR
STARTCHAR 00C5
ENCODING 197
SWIDTH 630 0
DWIDTH 7 0
BBX 7 10 0 0
BITMAP
10
28
10
28
28
28
44
7C
46
82
ENDCHAR
STARTCHAR 00C6
ENCODING 198
SWIDTH 810 0
DWIDTH 9 0
BBX 9 8 0 0
BITMAP
0F80
1400
1400
2780
2400
7C00
4400
8780
ENDCHAR
STARTCHAR 00C7
ENCODING 199
SWIDTH 630 0
DWIDTH 7 0
BBX 6 11 1 -3
BITMAP
7C
C0
80
80
80
80
C0
78
20
10
30
ENDCHAR
STARTCHAR 00C8
ENCODING 200
SWIDTH 540 0
DWIDTH 6 0
BBX 5 11 1 0
BITMAP
40
20
00
F8
80
80
F0
80
80
80
F8
ENDCHAR
STARTCHAR 00C9
ENCODING 201
SWIDTH 540 0
DWIDTH 6 0
BBX 5 11 1 0
BITMAP
10
20
00
F8
80
80
F0
80
80
80
F8
ENDCHAR
STARTCHAR 00CA
ENCODING 202
SWIDTH 540 0
DWIDTH 6 0
BBX 5 11 1 0
BITMAP
20
50
00
F8
80
80
F0
80
80
80
F8
ENDCHAR
STARTCHAR 00CB
ENCODING 203
SWIDTH 540 0
DWIDTH 6 0
BBX 5 10 1 0
BITMAP
50
00
F8
80
80
F0
80
80
80
F8
ENDCHAR
STARTCHAR 00CC
ENCODING 204
SWIDTH 270 0
DWIDTH 3 0
BBX 3 11 0 0
BITMAP
C0
40
00
E0
40
40
40
40
40
40
E0
ENDCHAR
STARTCHAR 00CD
ENCODING 205
SWIDTH 270 0
DWIDTH 3 0
BBX 4 11 0 0
BITMAP
30
20
00
E0
40
40
40
40
40
40
E0
ENDCHAR
STARTCHAR 00CE
ENCODING 206
SWIDTH 270 0
DWIDTH 3 0
BBX 3 11 0 0
BITMAP
40
60
80
E0
40
40
40
40
40
40
E0
ENDCHAR
STARTCHAR 00CF
ENCODING 207
SWIDTH 270 0
DWIDTH 3 0
BBX 3 10 0 0
BITMAP
A0
00
E0
40
40
40
40
40
40
E0
ENDCHAR
STARTCHAR 00D0
ENCODING 208
SWIDTH 720 0
DWIDTH 8 0
BBX 7 8 0 0
BITMAP
7C
46
42
42
F2
42
46
7C
ENDCHAR
STARTCHAR 00D1
ENCODING 209
SWIDTH 720 0
DWIDTH 8 0
BBX 6 10 1 0
BITMAP
78
00
C4
C4
A4
A4
94
8C
8C
84
ENDCHAR
STARTCHAR 00D2
ENCODING 210
SWIDTH 720 0
DWIDTH 8 0
BBX 7 11 1 0
BITMAP
20
10
00
78
C4
82
82
82
82
84
7C
ENDCHAR
STARTCHAR 00D3
ENCODING 211
SWIDTH 720 0
DWIDTH 8 0
BBX 7 11 1 0
BITMAP
08
10
00
78
C4
82
82
82
82
84
7C
ENDCHAR
STARTCHAR 00D4
ENCODING 212
SWIDTH 720 0
DWIDTH 8 0
BBX 7 11 1 0
BITMAP
10
28
00
78
C4
82
82
82
82
84
7C
ENDCHAR
STARTCHAR 00D5
ENCODING 213
SWIDTH 720 0
DWIDTH 8 0
BBX 7 10 1 0
BITMAP
38
00
78
C4
82
82
82
82
84
7C
ENDCHAR
STARTCHAR 00D6
ENCODING 214
SWIDTH 720 0
DWIDTH 8 0
BBX 7 10 1 0
BITMAP
28
00
78
C4
82
82
82
82
84
7C
ENDCHAR
STARTCHAR 00D7
ENCODING 215
SWIDTH 540 0
DWIDTH 6 0
BBX 4 4 1 1
BITMAP
90
60
60
90
ENDCHAR
STARTCHAR 00D8
ENCODING 216
SWIDTH 720 0
DWIDTH 8 0
BBX 7 8 1 0
BITMAP
7C
C4
8A
92
A2
A2
C4
FC
ENDCHAR
STARTCHAR 00D9
ENCODING 217
SWIDTH 720 0
DWIDTH 8 0
BBX 6 11 1 0
BITMAP
20
20
00
84
84
84
84
84
84
84
78
ENDCHAR
STARTCHAR 00DA
ENCODING 218
SWIDTH 720 0
DWIDTH 8 0
BBX 6 11 1 0
BITMAP
08
10
00
84
84
84
84
84
84
84
78
ENDCHAR
STARTCHAR 00DB
ENCODING 219
SWIDTH 720 0
DWIDTH 8 0
BBX 6 11 1 0
BITMAP
10
30
00
84
84
84
84
84
84
84
78
ENDCHAR
STARTCHAR 00DC
ENCODING 220
SWIDTH 720 0
DWIDTH 8 0
BBX 6 10 1 0
BITMAP
28
00
84
84
84
84
84
84
84
78
ENDCHAR
STARTCHAR 00DD
ENCODING 221
SWIDTH 540 0
DWIDTH 6 0
BBX 6 11 0 0
BITMAP
08
10
00
84
4C
48
30
30
10
10
10
ENDCHAR
STARTCHAR 00DE
ENCODING 222
SWIDTH 540 0
DWIDTH 6 0
BBX 5 8 1 0
BITMAP
80
E0
98
88
88
F0
80
80
ENDCHAR
STARTCHAR 00DF
ENCODING 223
SWIDTH 630 0
DWIDTH 7 0
BBX 6 8 1 1
BITMAP
F8
88
90
A0
90
88
84
B8
ENDCHAR
STARTCHAR 00E0
ENCODING 224
SWIDTH 540 0
DWIDTH 6 0
BBX 4 9 1 0
BITMAP
40
40
00
F0
10
30
D0
90
F0
ENDCHAR
STARTCHAR 00E1
ENCODING 225
SWIDTH 540 0
DWIDTH 6 0
BBX 4 9 1 0
BITMAP
10
20
00
F0
10
30
D0
90
F0
ENDCHAR
STARTCHAR 00E2
ENCODING 226
SWIDTH 540 0
DWIDTH 6 0
BBX 4 9 1 0
BITMAP
20
60
10
F0
10
30
D0
90
F0
ENDCHAR
STARTCHAR 00E3
ENCODING 227
SWIDTH 540 0
DWIDTH 6 0
BBX 4 8 1 0
BITMAP
F0
00
F0
10
30
D0
90
F0
ENDCHAR
STARTCHAR 00E4
ENCODING 228
SWIDTH 540 0
DWIDTH 6 0
BBX 4 8 1 0
BITMAP
50
00
F0
10
30
D0
90
F0
ENDCHAR
STARTCHAR 00E5
ENCODING 229
SWIDTH 540 0
DWIDTH 6 0
BBX 4 9 1 0
BITMAP
60
60
00
F0
10
30
D0
90
F0
ENDCHAR
STARTCHAR 00E6
ENCODING 230
SWIDTH 810 0
DWIDTH 9 0
BBX 8 6 1 0
BITMAP
FE
11
3F
90
98
EF
ENDCHAR
STARTCHAR 00E7
ENCODING 231
SWIDTH 450 0
DWIDTH 5 0
BBX 4 9 1 -3
BITMAP
70
80
80
80
80
70
40
20
60
ENDCHAR
STARTCHAR 00E8
ENCODING 232
SWIDTH 540 0
DWIDTH 6 0
BBX 5 9 1 0
BITMAP
40
40
00
70
98
F8
80
80
70
ENDCHAR
STARTCHAR 00E9
ENCODING 233
SWIDTH 540 0
DWIDTH 6 0
BBX 5 9 1 0
BITMAP
10
20
00
70
98
F8
80
80
70
ENDCHAR
STARTCHAR 00EA
ENCODING 234
SWIDTH 540 0
DWIDTH 6 0
BBX 5 9 1 0
BITMAP
20
60
10
70
98
F8
80
80
70
ENDCHAR
STARTCHAR 00EB
ENCODING 235
SWIDTH 540 0
DWIDTH 6 0
BBX 5 8 1 0
BITMAP
50
00
70
98
F8
80
80
70
ENDCHAR
STARTCHAR 00EC
ENCODING 236
SWIDTH 180 0
DWIDTH 2 0
BBX 2 9 0 0
BITMAP
80
40
00
40
40
40
40
40
40
ENDCHAR
STARTCHAR 00ED
ENCODING 237
SWIDTH 180 0
DWIDTH 2 0
BBX 2 9 1 0
BITMAP
40
80
00
80
80
80
80
80
80
ENDCHAR
STARTCHAR 00EE
ENCODING 238
SWIDTH 180 0
DWIDTH 2 0
BBX 3 9 0 0
BITMAP
40
A0
00
40
40
40
40
40
40
ENDCHAR
STARTCHAR 00EF
ENCODING 239
SWIDTH 180 0
DWIDTH 2 0
BBX 3 8 0 0
BITMAP
A0
00
40
40
40
40
40
40
ENDCHAR
STARTCHAR 00F0
ENCODING 240
SWIDTH 540 0
DWIDTH 6 0
BBX 5 8 1 1
BITMAP
70
50
08
F8
88
88
88
70
ENDCHAR
STARTCHAR 00F1
ENCODING 241
SWIDTH 540 0
DWIDTH 6 0
BBX 5 8 1 0
BITMAP
70
00
F0
88
88
88
88
88
ENDCHAR
STARTCHAR 00F2
ENCODING 242
SWIDTH 540 0
DWIDTH 6 0
BBX 5 9 1 0
BITMAP
40
20
00
70
88
88
88
88
70
ENDCHAR
STARTCHAR 00F3
ENCODING 243
SWIDTH 540 0
DWIDTH 6 0
BBX 5 9 1 0
BITMAP
10
20
00
70
88
88
88
88
70
ENDCHAR
STARTCHAR 00F4
ENCODING 244
SWIDTH 540 0
DWIDTH 6 0
BBX 5 9 1 0
BITMAP
20
50
00
70
88
88
88
88
70
ENDCHAR
STARTCHAR 00F5
ENCODING 245
SWIDTH 540 0
DWIDTH 6 0
BBX 5 8 1 0
BITMAP
70
00
70
88
88
88
88
70
ENDCHAR
STARTCHAR 00F6
ENCODING 246
SWIDTH 540 0
DWIDTH 6 0
BBX 5 8 1 0
BITMAP
50
00
70
88
88
88
88
70
ENDCHAR
STARTCHAR 00F7
ENCODING 247
SWIDTH 540 0
DWIDTH 6 0
BBX 4 5 1 1
BITMAP
20
00
F0
20
20
ENDCHAR
STARTCHAR 00F8
ENCODING 248
SWIDTH 540 0
DWIDTH 6 0
BBX 5 6 1 0
BITMAP
78
98
A8
A8
C8
F0
ENDCHAR
STARTCHAR 00F9
ENCODING 249
SWIDTH 540 0
DWIDTH 6 0
BBX 5 9 1 0
BITMAP
40
20
00
88
88
88
88
88
F8
ENDCHAR
STARTCHAR 00FA
ENCODING 250
SWIDTH 540 0
DWIDTH 6 0
BBX 5 9 1 0
BITMAP
10
20
00
88
88
88
88
88
F8
ENDCHAR
STARTCHAR 00FB
ENCODING 251
SWIDTH 540 0
DWIDTH 6 0
BBX 5 9 1 0
BITMAP
20
50
00
88
88
88
88
88
F8
ENDCHAR
STARTCHAR 00FC
ENCODING 252
SWIDTH 540 0
DWIDTH 6 0
BBX 5 8 1 0
BITMAP
50
00
88
88
88
88
88
F8
ENDCHAR
STARTCHAR 00FD
ENCODING 253
SWIDTH 450 0
DWIDTH 5 0
BBX 5 12 0 -3
BITMAP
10
10
00
88
48
48
50
30
30
20
20
C0
ENDCHAR
STARTCHAR 00FE
ENCODING 254
SWIDTH 540 0
DWIDTH 6 0
BBX 5 11 1 -3
BITMAP
80
80
F0
88
88
88
88
F0
80
80
80
ENDCHAR
STARTCHAR 00FF
ENCODING 255
SWIDTH 450 0
DWIDTH 5 0
BBX 5 11 0 -3
BITMAP
50
00
88
48
48
50
30
30
20
20
C0
ENDCHAR
STARTCHAR 0100
ENCODING 256
SWIDTH 630 0
DWIDTH 7 0
BBX 7 10 0 0
BITMAP
38
00
10
28
28
28
44
7C
46
82
ENDCHAR
STARTCHAR 0101
ENCODING 257
SWIDTH 540 0
DWIDTH 6 0
BBX 4 8 1 0
BITMAP
F0
00
F0
10
30
D0
90
F0
ENDCHAR
STARTCHAR 0102
ENCODING 258
SWIDTH 630 0
DWIDTH 7 0
BBX 7 10 0 0
BITMAP
38
00
10
28
28
28
44
7C
46
82
ENDCHAR
STARTCHAR 0103
ENCODING 259
SWIDTH 540 0
DWIDTH 6 0
BBX 4 8 1 0
BITMAP
70
00
F0
10
30
D0
90
F0
ENDCHAR
STARTCHAR 0104
ENCODING 260
SWIDTH 630 0
DWIDTH 7 0
BBX 7 10 0 -2
BITMAP
10
28
28
28
44
7C
46
82
04
06
ENDCHAR
STARTCHAR 0105
ENCODING 261
SWIDTH 540 0
DWIDTH 6 0
BBX 4 8 1 -2
BITMAP
F0
10
30
D0
90
F0
10
10
ENDCHAR
STARTCHAR 0106
ENCODING 262
SWIDTH 630 0
DWIDTH 7 0
BBX 6 11 1 0
BITMAP
08
10
00
7C
C0
80
80
80
80
C0
78
ENDCHAR
STARTCHAR 0107
ENCODING 263
SWIDTH 450 0
DWIDTH 5 0
BBX 4 9 1 0
BITMAP
10
20
00
70
80
80
80
80
70
ENDCHAR
STARTCHAR 0108
ENCODING 264
SWIDTH 630 0
DWIDTH 7 0
BBX 6 11 1 0
BITMAP
10
30
08
7C
C0
80
80
80
80
C0
78
ENDCHAR
STARTCHAR 0109
ENCODING 265
SWIDTH 450 0
DWIDTH 5 0
BBX 4 9 1 0
BITMAP
20
60
10
70
80
80
80
80
70
ENDCHAR
STARTCHAR 010A
ENCODING 266
SWIDTH 630 0
DWIDTH 7 0
BBX 6 10 1 0
BITMAP
10
00
7C
C0
80
80
80
80
C0
78
ENDCHAR
STARTCHAR 010B
ENCODING 267
SWIDTH 450 0
DWIDTH 5 0
BBX 4 8 1 0
BITMAP
20
00
70
80
80
80
80
70
ENDCHAR
STARTCHAR 010C
ENCODING 268
SWIDTH 630 0
DWIDTH 7 0
BBX 6 11 1 0
BITMAP
48
30
00
7C
C0
80
80
80
80
C0
78
ENDCHAR
STARTCHAR 010D
ENCODING 269
SWIDTH 450 0
DWIDTH 5 0
BBX 4 9 1 0
BITMAP
90
60
00
70
80
80
80
80
70
ENDCHAR
STARTCHAR 010E
ENCODING 270
SWIDTH 720 0
DWIDTH 8 0
BBX 6 11 1 0
BITMAP
48
30
00
F8
8C
84
84
84
84
8C
F8
ENDCHAR
STARTCHAR 010F
ENCODING 271
SWIDTH 540 0
DWIDTH 6 0
BBX 6 8 1 0
BITMAP
0C
08
F8
88
88
88
88
F8
ENDCHAR
STARTCHAR 0110
ENCODING 272
SWIDTH 720 0
DWIDTH 8 0
BBX 7 8 0 0
BITMAP
7C
46
42
42
F2
42
46
7C
ENDCHAR
STARTCHAR 0111
ENCODING 273
SWIDTH 540 0
DWIDTH 6 0
BBX 5 8 1 0
BITMAP
08
38
78
88
88
88
88
F8
ENDCHAR
STARTCHAR 0112
ENCODING 274
SWIDTH 540 0
DWIDTH 6 0
BBX 5 10 1 0
BITMAP
70
00
F8
80
80
F0
80
80
80
F8
ENDCHAR
STARTCHAR 0113
ENCODING 275
SWIDTH 540 0
DWIDTH 6 0
BBX 5 8 1 0
BITMAP
F0
00
70
98
F8
80
80
70
ENDCHAR
STARTCHAR 0114
ENCODING 276
SWIDTH 540 0
DWIDTH 6 0
BBX 5 10 1 0
BITMAP
70
00
F8
80
80
F0
80
80
80
F8
ENDCHAR
STARTCHAR 0115
ENCODING 277
SWIDTH 540 0
DWIDTH 6 0
BBX 5 8 1 0
BITMAP
70
00
70
98
F8
80
80
70
ENDCHAR
STARTCHAR 0116
ENCODING 278
SWIDTH 540 0
DWIDTH 6 0
BBX 5 10 1 0
BITMAP
20
00
F8
80
80
F0
80
80
80
F8
ENDCHAR
STARTCHAR 0117
ENCODING 279
SWIDTH 540 0
DWIDTH 6 0
BBX 5 8 1 0
BITMAP
20
00
70
98
F8
80
80
70
ENDCHAR
STARTCHAR 0118
ENCODING 280
SWIDTH 540 0
DWIDTH 6 0
BBX 5 10 1 -2
BITMAP
F8
80
80
F0
80
80
80
F8
10
30
ENDCHAR
STARTCHAR 0119
ENCODING 281
SWIDTH 540 0
DWIDTH 6 0
BBX 5 8 1 -2
BITMAP
70
98
F8
80
80
70
10
30
ENDCHAR
STARTCHAR 011A
ENCODING 282
SWIDTH 540 0
DWIDTH 6 0
BBX 5 11 1 0
BITMAP
80
70
00
F8
80
80
F0
80
80
80
F8
ENDCHAR
STARTCHAR 011B
ENCODING 283
SWIDTH 540 0
DWIDTH 6 0
BBX 5 9 1 0
BITMAP
90
60
00
70
98
F8
80
80
70
ENDCHAR
STARTCHAR 011C
ENCODING 284
SWIDTH 720 0
DWIDTH 8 0
BBX 6 11 1 0
BITMAP
10
28
00
3C
C0
80
80
8C
84
C4
7C
ENDCHAR
STARTCHAR 011D
ENCODING 285
SWIDTH 540 0
DWIDTH 6 0
BBX 5 12 1 -3
BITMAP
20
50
00
78
88
88
88
88
F8
08
18
60
ENDCHAR
STARTCHAR 011E
ENCODING 286
SWIDTH 720 0
DWIDTH 8 0
BBX 6 10 1 0
BITMAP
38
00
3C
C0
80
80
8C
84
C4
7C
ENDCHAR
STARTCHAR 011F
ENCODING 287
SWIDTH 540 0
DWIDTH 6 0
BBX 5 11 1 -3
BITMAP
70
00
78
88
88
88
88
F8
08
18
60
ENDCHAR
STARTCHAR 0120
ENCODING 288
SWIDTH 720 0
DWIDTH 8 0
BBX 6 10 1 0
BITMAP
10
00
3C
C0
80
80
8C
84
C4
7C
ENDCHAR
STARTCHAR 0121
ENCODING 289
SWIDTH 540 0
DWIDTH 6 0
BBX 5 11 1 -3
BITMAP
20
00
78
88
88
88
88
F8
08
18
60
ENDCHAR
STARTCHAR 0122
ENCODING 290
SWIDTH 720 0
DWIDTH 8 0
BBX 6 10 1 -2
BITMAP
3C
C0
80
80
8C
84
C4
7C
00
10
ENDCHAR
STARTCHAR 0123
ENCODING 291
SWIDTH 540 0
DWIDTH 6 0
BBX 5 12 1 -3
BITMAP
20
20
00
78
88
88
88
88
F8
08
18
60
ENDCHAR
STARTCHAR 0124
ENCODING 292
SWIDTH 720 0
DWIDTH 8 0
BBX 6 11 1 0
BITMAP
10
30
08
84
84
84
FC
84
84
84
84
ENDCHAR
STARTCHAR 0125
ENCODING 293
SWIDTH 540 0
DWIDTH 6 0
BBX 6 11 0 0
BITMAP
40
A0
00
40
40
78
44
44
44
44
44
ENDCHAR
STARTCHAR 0126
ENCODING 294
SWIDTH 720 0
DWIDTH 8 0
BBX 8 8 0 0
BITMAP
42
FF
42
7E
42
42
42
42
ENDCHAR
STARTCHAR 0127
ENCODING 295
SWIDTH 540 0
DWIDTH 6 0
BBX 5 8 1 0
BITMAP
80
E0
B0
C8
88
88
88
88
ENDCHAR
STARTCHAR 0128
ENCODING 296
SWIDTH 270 0
DWIDTH 3 0
BBX 4 10 0 0
BITMAP
F0
00
E0
40
40
40
40
40
40
E0
ENDCHAR
STARTCHAR 0129
ENCODING 297
SWIDTH 180 0
DWIDTH 2 0
BBX 3 8 0 0
BITMAP
E0
00
40
40
40
40
40
40
ENDCHAR
STARTCHAR 012A
ENCODING 298
SWIDTH 270 0
DWIDTH 3 0
BBX 4 10 0 0
BITMAP
F0
00
E0
40
40
40
40
40
40
E0
ENDCHAR
STARTCHAR 012B
ENCODING 299
SWIDTH 180 0
DWIDTH 2 0
BBX 3 8 0 0
BITMAP
E0
00
40
40
40
40
40
40
ENDCHAR
STARTCHAR 012C
ENCODING 300
SWIDTH 270 0
DWIDTH 3 0
BBX 3 10 0 0
BITMAP
E0
00
E0
40
40
40
40
40
40
E0
ENDCHAR
STARTCHAR 012D
ENCODING 301
SWIDTH 180 0
DWIDTH 2 0
BBX 3 8 0 0
BITMAP
E0
00
40
40
40
40
40
40
ENDCHAR
STARTCHAR 012E
ENCODING 302
SWIDTH 270 0
DWIDTH 3 0
BBX 3 10 0 -2
BITMAP
E0
40
40
40
40
40
40
E0
20
60
ENDCHAR
STARTCHAR 012F
ENCODING 303
SWIDTH 180 0
DWIDTH 2 0
BBX 2 10 0 -2
BITMAP
40
00
40
40
40
40
40
40
80
C0
ENDCHAR
STARTCHAR 0130
ENCODING 304
SWIDTH 270 0
DWIDTH 3 0
BBX 3 10 0 0
BITMAP
40
00
E0
40
40
40
40
40
40
E0
ENDCHAR
STARTCHAR 0131
ENCODING 305
SWIDTH 180 0
DWIDTH 2 0
BBX 1 6 1 0
BITMAP
80
80
80
80
80
80
ENDCHAR
STARTCHAR 0132
ENCODING 306
SWIDTH 540 0
DWIDTH 6 0
BBX 6 10 0 -2
BITMAP
E4
44
44
44
44
44
44
E4
04
18
ENDCHAR
STARTCHAR 0133
ENCODING 307
SWIDTH 450 0
DWIDTH 5 0
BBX 4 11 1 -3
BITMAP
90
00
90
90
90
90
90
90
10
10
60
ENDCHAR
STARTCHAR 0134
ENCODING 308
SWIDTH 270 0
DWIDTH 3 0
BBX 4 13 -1 -2
BITMAP
20
50
00
20
20
20
20
20
20
20
20
20
E0
ENDCHAR
STARTCHAR 0135
ENCODING 309
SWIDTH 180 0
DWIDTH 2 0
BBX 4 12 -1 -3
BITMAP
20
50
00
20
20
20
20
20
20
20
20
C0
ENDCHAR
STARTCHAR 0136
ENCODING 310
SWIDTH 540 0
DWIDTH 6 0
BBX 6 10 1 -2
BITMAP
88
90
B0
E0
E0
90
88
8C
00
20
ENDCHAR
STARTCHAR 0137
ENCODING 311
SWIDTH 450 0
DWIDTH 5 0
BBX 4 10 1 -2
BITMAP
80
80
90
A0
C0
A0
90
90
00
40
ENDCHAR
STARTCHAR 0138
ENCODING 312
SWIDTH 450 0
DWIDTH 5 0
BBX 4 6 1 0
BITMAP
90
A0
E0
A0
90
90
ENDCHAR
STARTCHAR 0139
ENCODING 313
SWIDTH 450 0
DWIDTH 5 0
BBX 5 11 1 0
BITMAP
40
80
00
80
80
80
80
80
80
80
F8
ENDCHAR
STARTCHAR 013A
ENCODING 314
SWIDTH 180 0
DWIDTH 2 0
BBX 2 11 1 0
BITMAP
40
80
00
80
80
80
80
80
80
80
80
ENDCHAR
STARTCHAR 013B
ENCODING 315
SWIDTH 450 0
DWIDTH 5 0
BBX 5 10 1 -2
BITMAP
80
80
80
80
80
80
80
F8
00
20
ENDCHAR
STARTCHAR 013C
ENCODING 316
SWIDTH 180 0
DWIDTH 2 0
BBX 1 10 1 -2
BITMAP
80
80
80
80
80
80
80
80
00
80
ENDCHAR
STARTCHAR 013D
ENCODING 317
SWIDTH 450 0
DWIDTH 5 0
BBX 5 8 1 0
BITMAP
90
90
80
80
80
80
80
F8
ENDCHAR
STARTCHAR 013E
ENCODING 318
SWIDTH 180 0
DWIDTH 2 0
BBX 2 8 1 0
BITMAP
C0
80
80
80
80
80
80
80
ENDCHAR
STARTCHAR 013F
ENCODING 319
SWIDTH 450 0
DWIDTH 5 0
BBX 5 8 1 0
BITMAP
80
80
80
90
90
80
80
F8
ENDCHAR
STARTCHAR 0140
ENCODING 320
SWIDTH 180 0
DWIDTH 2 0
BBX 2 8 1 0
BITMAP
80
80
80
C0
80
80
80
80
ENDCHAR
STARTCHAR 0141
ENCODING 321
SWIDTH 450 0
DWIDTH 5 0
BBX 6 8 0 0
BITMAP
40
40
40
50
60
C0
40
7C
ENDCHAR
STARTCHAR 0142
ENCODING 322
SWIDTH 180 0
DWIDTH 2 0
BBX 3 8 0 0
BITMAP
40
40
40
60
C0
40
40
40
ENDCHAR
STARTCHAR 0143
ENCODING 323
SWIDTH 720 0
DWIDTH 8 0
BBX 6 11 1 0
BITMAP
08
10
00
C4
C4
A4
A4
94
8C
8C
84
ENDCHAR
STARTCHAR 0144
ENCODING 324
SWIDTH 540 0
DWIDTH 6 0
BBX 5 9 1 0
BITMAP
10
20
00
F0
88
88
88
88
88
ENDCHAR
STARTCHAR 0145
ENCODING 325
SWIDTH 720 0
DWIDTH 8 0
BBX 6 10 1 -2
BITMAP
C4
C4
A4
A4
94
8C
8C
84
00
10
ENDCHAR
STARTCHAR 0146
ENCODING 326
SWIDTH 540 0
DWIDTH 6 0
BBX 5 8 1 -2
BITMAP
F0
88
88
88
88
88
00
20
ENDCHAR
STARTCHAR 0147
ENCODING 327
SWIDTH 720 0
DWIDTH 8 0
BBX 6 11 1 0
BITMAP
48
30
00
C4
C4
A4
A4
94
8C
8C
84
ENDCHAR
STARTCHAR 0148
ENCODING 328
SWIDTH 540 0
DWIDTH 6 0
BBX 5 8 1 1
BITMAP
70
00
F0
88
88
88
88
88
ENDCHAR
STARTCHAR 0149
ENCODING 329
SWIDTH 630 0
DWIDTH 7 0
BBX 7 8 0 0
BITMAP
C0
80
BC
22
22
22
22
22
ENDCHAR
STARTCHAR 014A
ENCODING 330
SWIDTH 720 0
DWIDTH 8 0
BBX 6 10 1 -2
BITMAP
C4
C4
A4
B4
94
8C
8C
84
04
1C
ENDCHAR
STARTCHAR 014B
ENCODING 331
SWIDTH 540 0
DWIDTH 6 0
BBX 5 9 1 -3
BITMAP
F0
88
88
88
88
88
08
08
10
ENDCHAR
STARTCHAR 014C
ENCODING 332
SWIDTH 720 0
DWIDTH 8 0
BBX 7 10 1 0
BITMAP
38
00
78
C4
82
82
82
82
84
7C
ENDCHAR
STARTCHAR 014D
ENCODING 333
SWIDTH 540 0
DWIDTH 6 0
BBX 5 8 1 0
BITMAP
70
00
70
88
88
88
88
70
ENDCHAR
STARTCHAR 014E
ENCODING 334
SWIDTH 720 0
DWIDTH 8 0
BBX 7 10 1 0
BITMAP
38
00
78
C4
82
82
82
82
84
7C
ENDCHAR
STARTCHAR 014F
ENCODING 335
SWIDTH 540 0
DWIDTH 6 0
BBX 5 8 1 0
BITMAP
70
00
70
88
88
88
88
70
ENDCHAR
STARTCHAR 0150
ENCODING 336
SWIDTH 720 0
DWIDTH 8 0
BBX 7 11 1 0
BITMAP
28
28
00
78
C4
82
82
82
82
84
7C
ENDCHAR
STARTCHAR 0151
ENCODING 337
SWIDTH 540 0
DWIDTH 6 0
BBX 5 9 1 0
BITMAP
50
50
00
70
88
88
88
88
70
ENDCHAR
STARTCHAR 0152
ENCODING 338
SWIDTH 900 0
DWIDTH 10 0
BBX 9 8 1 0
BITMAP
7F80
C800
8800
8F00
8800
8800
8800
7F80
ENDCHAR
STARTCHAR 0153
ENCODING 339
SWIDTH 900 0
DWIDTH 10 0
BBX 9 6 1 0
BITMAP
7700
8880
8F80
8800
8800
7780
ENDCHAR
STARTCHAR 0154
ENCODING 340
SWIDTH 540 0
DWIDTH 6 0
BBX 5 11 1 0
BITMAP
10
20
00
F0
88
88
88
F0
90
88
88
ENDCHAR
STARTCHAR 0155
ENCODING 341
SWIDTH 360 0
DWIDTH 4 0
BBX 3 9 1 0
BITMAP
20
20
00
E0
80
80
80
80
80
ENDCHAR
STARTCHAR 0156
ENCODING 342
SWIDTH 540 0
DWIDTH 6 0
BBX 5 10 1 -2
BITMAP
F0
88
88
88
F0
90
88
88
00
20
ENDCHAR
STARTCHAR 0157
ENCODING 343
SWIDTH 360 0
DWIDTH 4 0
BBX 3 8 1 -2
BITMAP
E0
80
80
80
80
80
00
80
ENDCHAR
STARTCHAR 0158
ENCODING 344
SWIDTH 540 0
DWIDTH 6 0
BBX 5 10 1 1
BITMAP
70
00
F0
88
88
88
F0
90
88
88
ENDCHAR
STARTCHAR 0159
ENCODING 345
SWIDTH 360 0
DWIDTH 4 0
BBX 4 9 1 0
BITMAP
10
E0
00
E0
80
80
80
80
80
ENDCHAR
STARTCHAR 015A
ENCODING 346
SWIDTH 540 0
DWIDTH 6 0
BBX 5 11 1 0
BITMAP
10
20
00
F0
80
80
C0
30
08
18
F0
ENDCHAR
STARTCHAR 015B
ENCODING 347
SWIDTH 450 0
DWIDTH 5 0
BBX 4 9 1 0
BITMAP
20
20
00
F0
80
C0
30
10
E0
ENDCHAR
STARTCHAR 015C
ENCODING 348
SWIDTH 540 0
DWIDTH 6 0
BBX 5 11 1 0
BITMAP
20
60
10
F0
80
80
C0
30
08
18
F0
ENDCHAR
STARTCHAR 015D
ENCODING 349
SWIDTH 450 0
DWIDTH 5 0
BBX 4 9 1 0
BITMAP
40
A0
00
F0
80
C0
30
10
E0
ENDCHAR
STARTCHAR 015E
ENCODING 350
SWIDTH 540 0
DWIDTH 6 0
BBX 5 11 1 -3
BITMAP
F0
80
80
C0
30
08
18
F0
40
20
40
ENDCHAR
STARTCHAR 015F
ENCODING 351
SWIDTH 450 0
DWIDTH 5 0
BBX 4 9 1 -3
BITMAP
F0
80
C0
30
10
E0
40
20
40
ENDCHAR
STARTCHAR 0160
ENCODING 352
SWIDTH 540 0
DWIDTH 6 0
BBX 5 11 1 0
BITMAP
90
60
00
F0
80
80
C0
30
08
18
F0
ENDCHAR
STARTCHAR 0161
ENCODING 353
SWIDTH 450 0
DWIDTH 5 0
BBX 4 9 1 0
BITMAP
10
E0
00
F0
80
C0
30
10
E0
ENDCHAR
STARTCHAR 0162
ENCODING 354
SWIDTH 540 0
DWIDTH 6 0
BBX 6 11 0 -3
BITMAP
FC
10
10
10
10
10
10
10
20
10
30
ENDCHAR
STARTCHAR 0163
ENCODING 355
SWIDTH 360 0
DWIDTH 4 0
BBX 4 10 0 -3
BITMAP
40
F0
40
40
40
40
70
20
20
60
ENDCHAR
STARTCHAR 0164
ENCODING 356
SWIDTH 540 0
DWIDTH 6 0
BBX 6 11 0 0
BITMAP
48
30
00
FC
10
10
10
10
10
10
10
ENDCHAR
STARTCHAR 0165
ENCODING 357
SWIDTH 360 0
DWIDTH 4 0
BBX 5 8 0 0
BITMAP
08
40
F0
40
40
40
40
70
ENDCHAR
STARTCHAR 0166
ENCODING 358
SWIDTH 540 0
DWIDTH 6 0
BBX 6 8 0 0
BITMAP
FC
10
10
10
78
10
10
10
ENDCHAR
STARTCHAR 0167
ENCODING 359
SWIDTH 360 0
DWIDTH 4 0
BBX 4 7 0 0
BITMAP
40
F0
40
F0
40
40
70
ENDCHAR
STARTCHAR 0168
ENCODING 360
SWIDTH 720 0
DWIDTH 8 0
BBX 6 10 1 0
BITMAP
78
00
84
84
84
84
84
84
84
78
ENDCHAR
STARTCHAR 0169
ENCODING 361
SWIDTH 540 0
DWIDTH 6 0
BBX 5 8 1 0
BITMAP
70
00
88
88
88
88
88
F8
ENDCHAR
STARTCHAR 016A
ENCODING 362
SWIDTH 720 0
DWIDTH 8 0
BBX 6 10 1 0
BITMAP
78
00
84
84
84
84
84
84
84
78
ENDCHAR
STARTCHAR 016B
ENCODING 363
SWIDTH 540 0
DWIDTH 6 0
BBX 5 8 1 0
BITMAP
70
00
88
88
88
88
88
F8
ENDCHAR
STARTCHAR 016C
ENCODING 364
SWIDTH 720 0
DWIDTH 8 0
BBX 6 10 1 0
BITMAP
38
00
84
84
84
84
84
84
84
78
ENDCHAR
STARTCHAR 016D
ENCODING 365
SWIDTH 540 0
DWIDTH 6 0
BBX 5 8 1 0
BITMAP
70
00
88
88
88
88
88
F8
ENDCHAR
STARTCHAR 016E
ENCODING 366
SWIDTH 720 0
DWIDTH 8 0
BBX 6 11 1 0
BITMAP
30
30
00
84
84
84
84
84
84
84
78
ENDCHAR
STARTCHAR 016F
ENCODING 367
SWIDTH 540 0
DWIDTH 6 0
BBX 5 9 1 0
BITMAP
70
50
20
88
88
88
88
88
F8
ENDCHAR
STARTCHAR 0170
ENCODING 368
SWIDTH 720 0
DWIDTH 8 0
BBX 6 11 1 0
BITMAP
28
50
00
84
84
84
84
84
84
84
78
ENDCHAR
STARTCHAR 0171
ENCODING 369
SWIDTH 540 0
DWIDTH 6 0
BBX 5 9 1 0
BITMAP
50
50
00
88
88
88
88
88
F8
ENDCHAR
STARTCHAR 0172
ENCODING 370
SWIDTH 720 0
DWIDTH 8 0
BBX 6 10 1 -2
BITMAP
84
84
84
84
84
84
84
78
10
18
ENDCHAR
STARTCHAR 0173
ENCODING 371
SWIDTH 540 0
DWIDTH 6 0
BBX 5 8 1 -2
BITMAP
88
88
88
88
88
F8
10
18
ENDCHAR
STARTCHAR 0174
ENCODING 372
SWIDTH 900 0
DWIDTH 10 0
BBX 10 11 0 0
BITMAP
0400
0C00
0200
8C40
4C40
4C40
4A80
5280
3280
3300
2100
ENDCHAR
STARTCHAR 0175
ENCODING 373
SWIDTH 720 0
DWIDTH 8 0
BBX 8 9 0 0
BITMAP
08
14
00
89
59
55
55
66
22
ENDCHAR
STARTCHAR 0176
ENCODING 374
SWIDTH 540 0
DWIDTH 6 0
BBX 6 11 0 0
BITMAP
10
30
08
84
4C
48
30
30
10
10
10
ENDCHAR
STARTCHAR 0177
ENCODING 375
SWIDTH 450 0
DWIDTH 5 0
BBX 5 12 0 -3
BITMAP
20
30
40
88
48
48
50
30
30
20
20
C0
ENDCHAR
STARTCHAR 0178
ENCODING 376
SWIDTH 540 0
DWIDTH 6 0
BBX 6 10 0 0
BITMAP
28
00
84
4C
48
30
30
10
10
10
ENDCHAR
STARTCHAR 0179
ENCODING 377
SWIDTH 540 0
DWIDTH 6 0
BBX 6 11 0 0
BITMAP
08
10
00
7C
08
08
10
20
20
40
FC
ENDCHAR
STARTCHAR 017A
ENCODING 378
SWIDTH 450 0
DWIDTH 5 0
BBX 5 9 0 0
BITMAP
10
20
00
78
10
20
20
40
F8
ENDCHAR
STARTCHAR 017B
ENCODING 379
SWIDTH 540 0
DWIDTH 6 0
BBX 6 10 0 0
BITMAP
10
00
7C
08
08
10
20
20
40
FC
ENDCHAR
STARTCHAR 017C
ENCODING 380
SWIDTH 450 0
DWIDTH 5 0
BBX 5 8 0 0
BITMAP
20
00
78
10
20
20
40
F8
ENDCHAR
STARTCHAR 017D
ENCODING 381
SWIDTH 540 0
DWIDTH 6 0
BBX 6 11 0 0
BITMAP
48
30
00
7C
08
08
10
20
20
40
FC
ENDCHAR
STARTCHAR 017E
ENCODING 382
SWIDTH 450 0
DWIDTH 5 0
BBX 5 8 0 1
BITMAP
70
00
78
10
20
20
40
F8
ENDCHAR
STARTCHAR 017F
ENCODING 383
SWIDTH 270 0
DWIDTH 3 0
BBX 3 8 1 1
BITMAP
E0
80
80
80
80
80
80
80
ENDCHAR
STARTCHAR 0180
ENCODING 384
SWIDTH 540 0
DWIDTH 6 0
BBX 5 8 1 0
BITMAP
80
E0
F0
88
88
88
88
F0
ENDCHAR
STARTCHAR 0181
ENCODING 385
SWIDTH 720 0
DWIDTH 8 0
BBX 8 8 0 0
BITMAP
FC
A2
22
3E
22
23
22
3E
ENDCHAR
STARTCHAR 0182
ENCODING 386
SWIDTH 540 0
DWIDTH 6 0
BBX 5 8 1 0
BITMAP
F8
80
80
E0
98
88
88
F0
ENDCHAR
STARTCHAR 0183
ENCODING 387
SWIDTH 540 0
DWIDTH 6 0
BBX 5 8 1 0
BITMAP
F0
80
F0
88
88
88
88
F0
ENDCHAR
STARTCHAR 0184
ENCODING 388
SWIDTH 630 0
DWIDTH 7 0
BBX 5 8 1 0
BITMAP
80
80
80
E0
98
88
88
78
ENDCHAR
STARTCHAR 0185
ENCODING 389
SWIDTH 540 0
DWIDTH 6 0
BBX 5 8 1 0
BITMAP
80
80
F0
88
88
88
88
70
ENDCHAR
STARTCHAR 0186
ENCODING 390
SWIDTH 630 0
DWIDTH 7 0
BBX 6 8 0 0
BITMAP
F8
0C
04
04
04
04
0C
78
ENDCHAR
STARTCHAR 0187
ENCODING 391
SWIDTH 630 0
DWIDTH 7 0
BBX 6 9 1 1
BITMAP
04
7C
C0
80
80
80
80
C0
78
ENDCHAR
STARTCHAR 0188
ENCODING 392
SWIDTH 450 0
DWIDTH 5 0
BBX 5 8 1 1
BITMAP
18
10
70
80
80
80
80
70
ENDCHAR
STARTCHAR 0189
ENCODING 393
SWIDTH 720 0
DWIDTH 8 0
BBX 7 8 0 0
BITMAP
7C
46
42
42
F2
42
46
7C
ENDCHAR
STARTCHAR 018A
ENCODING 394
SWIDTH 810 0
DWIDTH 9 0
BBX 8 8 0 0
BITMAP
FC
A3
21
21
21
21
23
3C
ENDCHAR
STARTCHAR 018B
ENCODING 395
SWIDTH 540 0
DWIDTH 6 0
BBX 5 8 1 0
BITMAP
F8
08
08
38
C8
88
88
F8
ENDCHAR
STARTCHAR 018C
ENCODING 396
SWIDTH 540 0
DWIDTH 6 0
BBX 5 8 1 0
BITMAP
78
08
F8
88
88
88
88
F8
ENDCHAR
STARTCHAR 018D
ENCODING 397
SWIDTH 540 0
DWIDTH 6 0
BBX 5 9 1 -3
BITMAP
70
88
88
88
D0
30
10
90
60
ENDCHAR
STARTCHAR 018E
ENCODING 398
SWIDTH 540 0
DWIDTH 6 0
BBX 4 8 1 0
BITMAP
F0
10
10
F0
10
10
10
F0
ENDCHAR
STARTCHAR 018F
ENCODING 399
SWIDTH 720 0
DWIDTH 8 0
BBX 7 8 1 0
BITMAP
F8
04
04
04
FE
84
84
78
ENDCHAR
STARTCHAR 0190
ENCODING 400
SWIDTH 540 0
DWIDTH 6 0
BBX 5 8 1 0
BITMAP
78
80
80
70
C0
80
80
F8
ENDCHAR
STARTCHAR 0191
ENCODING 401
SWIDTH 540 0
DWIDTH 6 0
BBX 6 11 0 -3
BITMAP
3C
20
20
3C
20
20
20
20
20
A0
C0
ENDCHAR
STARTCHAR 0192
ENCODING 402
SWIDTH 360 0
DWIDTH 4 0
BBX 5 11 0 -2
BITMAP
38
20
70
20
20
20
20
20
20
A0
40
ENDCHAR
STARTCHAR 0193
ENCODING 403
SWIDTH 720 0
DWIDTH 8 0
BBX 7 10 1 0
BITMAP
02
04
3C
C0
80
80
8C
84
C4
7C
ENDCHAR
STARTCHAR 0194
ENCODING 404
SWIDTH 540 0
DWIDTH 6 0
BBX 6 11 0 -3
BITMAP
84
44
48
48
28
30
10
30
30
30
10
ENDCHAR
STARTCHAR 0195
ENCODING 405
SWIDTH 900 0
DWIDTH 10 0
BBX 8 8 1 0
BITMAP
80
80
F1
89
89
89
89
8F
ENDCHAR
STARTCHAR 0196
ENCODING 406
SWIDTH 270 0
DWIDTH 3 0
BBX 3 8 1 0
BITMAP
80
80
80
80
80
80
80
E0
ENDCHAR
STARTCHAR 0197
ENCODING 407
SWIDTH 270 0
DWIDTH 3 0
BBX 3 8 0 0
BITMAP
E0
40
40
E0
40
40
40
E0
ENDCHAR
STARTCHAR 0198
ENCODING 408
SWIDTH 540 0
DWIDTH 6 0
BBX 6 8 1 0
BITMAP
8C
90
A0
A0
E0
90
88
8C
ENDCHAR
STARTCHAR 0199
ENCODING 409
SWIDTH 450 0
DWIDTH 5 0
BBX 4 8 1 1
BITMAP
C0
80
90
A0
C0
A0
90
90
ENDCHAR
STARTCHAR 019A
ENCODING 410
SWIDTH 180 0
DWIDTH 2 0
BBX 3 8 0 0
BITMAP
40
40
40
E0
40
40
40
40
ENDCHAR
STARTCHAR 019B
ENCODING 411
SWIDTH 540 0
DWIDTH 6 0
BBX 6 9 0 0
BITMAP
40
30
60
30
30
50
48
48
8C
ENDCHAR
STARTCHAR 019C
ENCODING 412
SWIDTH 990 0
DWIDTH 11 0
BBX 9 8 1 0
BITMAP
8880
8880
8880
8880
8880
8880
8880
7780
ENDCHAR
STARTCHAR 019D
ENCODING 413
SWIDTH 720 0
DWIDTH 8 0
BBX 7 11 0 -3
BITMAP
62
62
52
52
4A
46
46
42
40
40
80
ENDCHAR
STARTCHAR 019E
ENCODING 414
SWIDTH 540 0
DWIDTH 6 0
BBX 5 9 1 -3
BITMAP
F0
88
88
88
88
88
08
08
08
ENDCHAR
STARTCHAR 019F
ENCODING 415
SWIDTH 720 0
DWIDTH 8 0
BBX 7 8 1 0
BITMAP
78
C4
82
82
FE
82
84
7C
ENDCHAR
STARTCHAR 01A0
ENCODING 416
SWIDTH 720 0
DWIDTH 8 0
BBX 8 8 1 0
BITMAP
79
C6
82
82
82
82
84
7C
ENDCHAR
STARTCHAR 01A1
ENCODING 417
SWIDTH 540 0
DWIDTH 6 0
BBX 6 7 1 0
BITMAP
04
74
88
88
88
88
70
ENDCHAR
STARTCHAR 01A2
ENCODING 418
SWIDTH 990 0
DWIDTH 11 0
BBX 10 8 1 0
BITMAP
7B80
8440
8440
8240
8240
8440
8440
7840
ENDCHAR
STARTCHAR 01A3
ENCODING 419
SWIDTH 810 0
DWIDTH 9 0
BBX 7 8 1 -3
BITMAP
7E
8A
8A
8A
8A
72
02
02
ENDCHAR
STARTCHAR 01A4
ENCODING 420
SWIDTH 630 0
DWIDTH 7 0
BBX 7 8 0 0
BITMAP
FC
A2
22
22
3C
20
20
20
ENDCHAR
STARTCHAR 01A5
ENCODING 421
SWIDTH 540 0
DWIDTH 6 0
BBX 5 11 1 -2
BITMAP
C0
80
F0
88
88
88
88
F0
80
80
80
ENDCHAR
STARTCHAR 01A6
ENCODING 422
SWIDTH 540 0
DWIDTH 6 0
BBX 5 9 1 -1
BITMAP
80
F0
88
88
88
F0
90
88
08
ENDCHAR
STARTCHAR 01A7
ENCODING 423
SWIDTH 540 0
DWIDTH 6 0
BBX 5 8 1 0
BITMAP
F0
10
18
30
C0
80
80
F8
ENDCHAR
STARTCHAR 01A8
ENCODING 424
SWIDTH 450 0
DWIDTH 5 0
BBX 5 6 0 0
BITMAP
70
08
10
60
80
78
ENDCHAR
STARTCHAR 01A9
ENCODING 425
SWIDTH 540 0
DWIDTH 6 0
BBX 6 8 0 0
BITMAP
7C
40
20
10
10
20
40
FC
ENDCHAR
STARTCHAR 01AA
ENCODING 426
SWIDTH 270 0
DWIDTH 3 0
BBX 4 11 0 -2
BITMAP
E0
E0
20
20
20
20
20
20
20
20
10
ENDCHAR
STARTCHAR 01AB
ENCODING 427
SWIDTH 360 0
DWIDTH 4 0
BBX 4 10 0 -3
BITMAP
40
F0
40
40
40
40
70
10
10
20
ENDCHAR
STARTCHAR 01AC
ENCODING 428
SWIDTH 540 0
DWIDTH 6 0
BBX 6 8 0 0
BITMAP
FC
90
10
10
10
10
10
10
ENDCHAR
STARTCHAR 01AD
ENCODING 429
SWIDTH 360 0
DWIDTH 4 0
BBX 4 8 0 1
BITMAP
60
40
F0
40
40
40
40
70
ENDCHAR
STARTCHAR 01AE
ENCODING 430
SWIDTH 540 0
DWIDTH 6 0
BBX 6 11 0 -3
BITMAP
FC
10
10
10
10
10
10
10
10
10
18
ENDCHAR
STARTCHAR 01AF
ENCODING 431
SWIDTH 720 0
DWIDTH 8 0
BBX 8 8 1 0
BITMAP
85
86
84
84
84
84
84
78
ENDCHAR
STARTCHAR 01B0
ENCODING 432
SWIDTH 630 0
DWIDTH 7 0
BBX 7 7 1 0
BITMAP
02
8C
88
88
88
88
F8
ENDCHAR
STARTCHAR 01B1
ENCODING 433
SWIDTH 720 0
DWIDTH 8 0
BBX 8 8 0 0
BITMAP
F7
22
41
41
41
41
43
3E
ENDCHAR
STARTCHAR 01B2
ENCODING 434
SWIDTH 720 0
DWIDTH 8 0
BBX 6 8 1 0
BITMAP
8C
84
84
84
84
84
84
78
ENDCHAR
STARTCHAR 01B3
ENCODING 435
SWIDTH 540 0
DWIDTH 6 0
BBX 6 8 0 0
BITMAP
84
48
48
30
30
10
10
10
ENDCHAR
STARTCHAR 01B4
ENCODING 436
SWIDTH 540 0
DWIDTH 6 0
BBX 6 9 0 -3
BITMAP
8C
48
48
50
30
30
20
20
C0
ENDCHAR
STARTCHAR 01B5
ENCODING 437
SWIDTH 540 0
DWIDTH 6 0
BBX 6 8 0 0
BITMAP
7C
08
08
78
20
20
40
FC
ENDCHAR
STARTCHAR 01B6
ENCODING 438
SWIDTH 450 0
DWIDTH 5 0
BBX 5 6 0 0
BITMAP
78
10
20
70
40
F8
ENDCHAR
STARTCHAR 01B7
ENCODING 439
SWIDTH 540 0
DWIDTH 6 0
BBX 6 8 0 0
BITMAP
7C
08
10
20
1C
04
04
F8
ENDCHAR
STARTCHAR 01B8
ENCODING 440
SWIDTH 540 0
DWIDTH 6 0
BBX 5 8 1 0
BITMAP
F8
40
20
60
80
80
80
F8
ENDCHAR
STARTCHAR 01B9
ENCODING 441
SWIDTH 450 0
DWIDTH 5 0
BBX 5 9 0 -3
BITMAP
78
40
20
10
60
80
80
40
38
ENDCHAR
STARTCHAR 01BA
ENCODING 442
SWIDTH 450 0
DWIDTH 5 0
BBX 5 9 0 -3
BITMAP
F8
10
60
18
08
08
70
80
70
ENDCHAR
STARTCHAR 01BB
ENCODING 443
SWIDTH 540 0
DWIDTH 6 0
BBX 5 8 1 1
BITMAP
F0
10
10
F8
20
40
80
F8
ENDCHAR
STARTCHAR 01BC
ENCODING 444
SWIDTH 540 0
DWIDTH 6 0
BBX 6 8 0 0
BITMAP
FC
40
40
78
0C
04
04
F8
ENDCHAR
STARTCHAR 01BD
ENCODING 445
SWIDTH 450 0
DWIDTH 5 0
BBX 5 6 0 0
BITMAP
F8
40
70
08
08
F0
ENDCHAR
STARTCHAR 01BE
ENCODING 446
SWIDTH 450 0
DWIDTH 5 0
BBX 5 7 0 0
BITMAP
40
F0
40
20
10
08
F0
ENDCHAR
STARTCHAR 01BF
ENCODING 447
SWIDTH 540 0
DWIDTH 6 0
BBX 5 9 1 -3
BITMAP
F0
88
88
88
90
E0
80
80
80
ENDCHAR
STARTCHAR 01C0
ENCODING 448
SWIDTH 270 0
DWIDTH 3 0
BBX 1 8 1 0
BITMAP
80
80
80
80
80
80
80
80
ENDCHAR
STARTCHAR 01C1
ENCODING 449
SWIDTH 540 0
DWIDTH 6 0
BBX 4 8 1 0
BITMAP
90
90
90
90
90
90
90
90
ENDCHAR
STARTCHAR 01C2
ENCODING 450
SWIDTH 450 0
DWIDTH 5 0
BBX 4 8 1 0
BITMAP
40
40
F0
40
F0
40
40
40
ENDCHAR
STARTCHAR 01C3
ENCODING 451
SWIDTH 180 0
DWIDTH 2 0
BBX 1 8 1 0
BITMAP
80
80
80
80
80
80
00
80
ENDCHAR
STARTCHAR 01C4
ENCODING 452
SWIDTH 1260 0
DWIDTH 14 0
BBX 13 11 1 0
BITMAP
0090
0060
0000
F8F8
8C10
8410
8420
8440
8440
8C80
F9F8
ENDCHAR
STARTCHAR 01C5
ENCODING 453
SWIDTH 1170 0
DWIDTH 13 0
BBX 12 9 1 0
BITMAP
0090
F860
8C00
84F0
8420
8420
8440
8C80
F8F0
ENDCHAR
STARTCHAR 01C6
ENCODING 454
SWIDTH 1080 0
DWIDTH 12 0
BBX 11 8 1 1
BITMAP
09C0
0800
FBE0
8840
8880
8880
8900
FBE0
ENDCHAR
STARTCHAR 01C7
ENCODING 455
SWIDTH 720 0
DWIDTH 8 0
BBX 7 10 1 -2
BITMAP
82
82
82
82
82
82
82
FA
02
0C
ENDCHAR
STARTCHAR 01C8
ENCODING 456
SWIDTH 720 0
DWIDTH 8 0
BBX 7 11 1 -3
BITMAP
82
80
82
82
82
82
82
FA
02
02
0C
ENDCHAR
STARTCHAR 01C9
ENCODING 457
SWIDTH 450 0
DWIDTH 5 0
BBX 4 11 1 -3
BITMAP
90
80
90
90
90
90
90
90
10
10
60
ENDCHAR
STARTCHAR 01CA
ENCODING 458
SWIDTH 990 0
DWIDTH 11 0
BBX 9 10 1 -2
BITMAP
C480
C480
A480
A480
9480
8C80
8C80
8480
0080
0180
ENDCHAR
STARTCHAR 01CB
ENCODING 459
SWIDTH 990 0
DWIDTH 11 0
BBX 9 11 1 -3
BITMAP
C480
C400
A480
A480
9480
8C80
8C80
8480
0080
0080
0180
ENDCHAR
STARTCHAR 01CC
ENCODING 460
SWIDTH 810 0
DWIDTH 9 0
BBX 8 11 1 -3
BITMAP
01
00
F1
89
89
89
89
89
01
01
06
ENDCHAR
STARTCHAR 01CD
ENCODING 461
SWIDTH 630 0
DWIDTH 7 0
BBX 7 10 0 1
BITMAP
28
10
10
28
28
28
44
7C
46
82
ENDCHAR
STARTCHAR 01CE
ENCODING 462
SWIDTH 540 0
DWIDTH 6 0
BBX 4 9 1 0
BITMAP
90
60
00
F0
10
30
D0
90
F0
ENDCHAR
STARTCHAR 01CF
ENCODING 463
SWIDTH 270 0
DWIDTH 3 0
BBX 4 11 0 0
BITMAP
90
60
00
E0
40
40
40
40
40
40
E0
ENDCHAR
STARTCHAR 01D0
ENCODING 464
SWIDTH 180 0
DWIDTH 2 0
BBX 3 8 0 1
BITMAP
E0
00
40
40
40
40
40
40
ENDCHAR
STARTCHAR 01D1
ENCODING 465
SWIDTH 720 0
DWIDTH 8 0
BBX 7 11 1 0
BITMAP
40
38
00
78
C4
82
82
82
82
84
7C
ENDCHAR
STARTCHAR 01D2
ENCODING 466
SWIDTH 540 0
DWIDTH 6 0
BBX 5 9 1 0
BITMAP
80
70
00
70
88
88
88
88
70
ENDCHAR
STARTCHAR 01D3
ENCODING 467
SWIDTH 720 0
DWIDTH 8 0
BBX 6 11 1 0
BITMAP
48
30
00
84
84
84
84
84
84
84
78
ENDCHAR
STARTCHAR 01D4
ENCODING 468
SWIDTH 540 0
DWIDTH 6 0
BBX 5 8 1 1
BITMAP
70
00
88
88
88
88
88
F8
ENDCHAR
STARTCHAR 01D5
ENCODING 469
SWIDTH 720 0
DWIDTH 8 0
BBX 6 11 1 0
BITMAP
78
08
00
84
84
84
84
84
84
84
78
ENDCHAR
STARTCHAR 01D6
ENCODING 470
SWIDTH 540 0
DWIDTH 6 0
BBX 5 9 1 0
BITMAP
70
50
00
88
88
88
88
88
F8
ENDCHAR
STARTCHAR 01D7
ENCODING 471
SWIDTH 720 0
DWIDTH 8 0
BBX 6 12 1 0
BITMAP
18
10
08
00
84
84
84
84
84
84
84
78
ENDCHAR
STARTCHAR 01D8
ENCODING 472
SWIDTH 540 0
DWIDTH 6 0
BBX 5 10 1 0
BITMAP
10
20
50
00
88
88
88
88
88
F8
ENDCHAR
STARTCHAR 01D9
ENCODING 473
SWIDTH 720 0
DWIDTH 8 0
BBX 6 12 1 0
BITMAP
48
30
08
00
84
84
84
84
84
84
84
78
ENDCHAR
STARTCHAR 01DA
ENCODING 474
SWIDTH 540 0
DWIDTH 6 0
BBX 5 10 1 0
BITMAP
50
20
50
00
88
88
88
88
88
F8
ENDCHAR
STARTCHAR 01DB
ENCODING 475
SWIDTH 720 0
DWIDTH 8 0
BBX 6 12 1 0
BITMAP
60
20
08
00
84
84
84
84
84
84
84
78
ENDCHAR
STARTCHAR 01DC
ENCODING 476
SWIDTH 540 0
DWIDTH 6 0
BBX 5 10 1 0
BITMAP
40
20
50
00
88
88
88
88
88
F8
ENDCHAR
STARTCHAR 01DD
ENCODING 477
SWIDTH 540 0
DWIDTH 6 0
BBX 5 6 1 0
BITMAP
F0
10
08
F8
90
F0
ENDCHAR
STARTCHAR 01DE
ENCODING 478
SWIDTH 630 0
DWIDTH 7 0
BBX 7 11 0 0
BITMAP
38
28
00
10
28
28
28
44
7C
46
82
ENDCHAR
STARTCHAR 01DF
ENCODING 479
SWIDTH 540 0
DWIDTH 6 0
BBX 4 9 1 0
BITMAP
F0
50
00
F0
10
30
D0
90
F0
ENDCHAR
STARTCHAR 01E0
ENCODING 480
SWIDTH 630 0
DWIDTH 7 0
BBX 7 11 0 0
BITMAP
38
10
00
10
28
28
28
44
7C
46
82
ENDCHAR
STARTCHAR 01E1
ENCODING 481
SWIDTH 540 0
DWIDTH 6 0
BBX 4 9 1 0
BITMAP
60
20
00
F0
10
30
D0
90
F0
ENDCHAR
STARTCHAR 01E2
ENCODING 482
SWIDTH 810 0
DWIDTH 9 0
BBX 9 10 0 0
BITMAP
0E00
0000
0F80
1400
1400
2780
2400
7C00
4400
8780
ENDCHAR
STARTCHAR 01E3
ENCODING 483
SWIDTH 810 0
DWIDTH 9 0
BBX 8 8 1 0
BITMAP
3C
00
FE
11
3F
90
98
EF
ENDCHAR
STARTCHAR 01E4
ENCODING 484
SWIDTH 720 0
DWIDTH 8 0
BBX 7 8 1 0
BITMAP
3C
C0
80
80
8C
8E
C4
7C
ENDCHAR
STARTCHAR 01E5
ENCODING 485
SWIDTH 540 0
DWIDTH 6 0
BBX 6 9 1 -3
BITMAP
F8
88
88
88
88
78
3C
08
70
ENDCHAR
STARTCHAR 01E6
ENCODING 486
SWIDTH 720 0
DWIDTH 8 0
BBX 6 10 1 1
BITMAP
38
00
3C
C0
80
80
8C
84
C4
7C
ENDCHAR
STARTCHAR 01E7
ENCODING 487
SWIDTH 540 0
DWIDTH 6 0
BBX 5 12 1 -3
BITMAP
90
60
00
78
88
88
88
88
F8
08
18
60
ENDCHAR
STARTCHAR 01E8
ENCODING 488
SWIDTH 540 0
DWIDTH 6 0
BBX 6 11 1 0
BITMAP
48
30
00
88
90
B0
E0
E0
90
88
8C
ENDCHAR
STARTCHAR 01E9
ENCODING 489
SWIDTH 450 0
DWIDTH 5 0
BBX 5 11 0 0
BITMAP
A0
40
00
40
40
48
50
60
50
48
48
ENDCHAR
STARTCHAR 01EA
ENCODING 490
SWIDTH 720 0
DWIDTH 8 0
BBX 7 10 1 -2
BITMAP
78
C4
82
82
82
82
84
7C
10
30
ENDCHAR
STARTCHAR 01EB
ENCODING 491
SWIDTH 540 0
DWIDTH 6 0
BBX 5 8 1 -2
BITMAP
70
88
88
88
88
70
20
60
ENDCHAR
STARTCHAR 01EC
ENCODING 492
SWIDTH 720 0
DWIDTH 8 0
BBX 7 12 1 -2
BITMAP
38
00
78
C4
82
82
82
82
84
7C
10
30
ENDCHAR
STARTCHAR 01ED
ENCODING 493
SWIDTH 540 0
DWIDTH 6 0
BBX 5 10 1 -2
BITMAP
70
00
70
88
88
88
88
70
20
60
ENDCHAR
STARTCHAR 01EE
ENCODING 494
SWIDTH 540 0
DWIDTH 6 0
BBX 6 11 0 0
BITMAP
48
30
00
7C
08
10
20
1C
04
04
F8
ENDCHAR
STARTCHAR 01EF
ENCODING 495
SWIDTH 450 0
DWIDTH 5 0
BBX 5 11 0 -2
BITMAP
70
00
F8
10
20
60
18
08
08
18
60
ENDCHAR
STARTCHAR 01F0
ENCODING 496
SWIDTH 180 0
DWIDTH 2 0
BBX 4 11 -1 -2
BITMAP
70
00
20
20
20
20
20
20
20
20
C0
ENDCHAR
STARTCHAR 01F1
ENCODING 497
SWIDTH 1260 0
DWIDTH 14 0
BBX 13 8 1 0
BITMAP
F8F8
8C10
8410
8420
8440
8440
8C80
F9F8
ENDCHAR
STARTCHAR 01F2
ENCODING 498
SWIDTH 1170 0
DWIDTH 13 0
BBX 12 8 1 0
BITMAP
F800
8C00
84F0
8420
8420
8440
8C80
F8F0
ENDCHAR
STARTCHAR 01F3
ENCODING 499
SWIDTH 1080 0
DWIDTH 12 0
BBX 11 8 1 0
BITMAP
0800
0800
FBE0
8840
8880
8880
8900
FBE0
ENDCHAR
STARTCHAR 01F4
ENCODING 500
SWIDTH 720 0
DWIDTH 8 0
BBX 6 11 1 0
BITMAP
08
10
00
3C
C0
80
80
8C
84
C4
7C
ENDCHAR
STARTCHAR 01F5
ENCODING 501
SWIDTH 540 0
DWIDTH 6 0
BBX 5 12 1 -3
BITMAP
10
20
00
78
88
88
88
88
F8
08
18
60
ENDCHAR
STARTCHAR 01F6
ENCODING 502
SWIDTH 900 0
DWIDTH 10 0
BBX 8 8 1 0
BITMAP
88
88
89
F9
89
89
89
87
ENDCHAR
STARTCHAR 01F7
ENCODING 503
SWIDTH 630 0
DWIDTH 7 0
BBX 6 11 1 -3
BITMAP
B8
CC
84
84
88
88
B0
C0
80
80
80
ENDCHAR
STARTCHAR 01F8
ENCODING 504
SWIDTH 720 0
DWIDTH 8 0
BBX 6 11 1 0
BITMAP
20
10
00
C4
C4
A4
A4
94
8C
8C
84
ENDCHAR
STARTCHAR 01F9
ENCODING 505
SWIDTH 540 0
DWIDTH 6 0
BBX 5 9 1 0
BITMAP
40
20
00
F0
88
88
88
88
88
ENDCHAR
STARTCHAR 01FA
ENCODING 506
SWIDTH 630 0
DWIDTH 7 0
BBX 7 11 0 0
BITMAP
08
10
18
28
10
28
28
44
7C
44
82
ENDCHAR
STARTCHAR 01FB
ENCODING 507
SWIDTH 540 0
DWIDTH 6 0
BBX 4 11 1 0
BITMAP
30
00
60
60
00
F0
10
30
D0
90
F0
ENDCHAR
STARTCHAR 01FC
ENCODING 508
SWIDTH 810 0
DWIDTH 9 0
BBX 9 11 0 0
BITMAP
0200
0400
0000
0F80
1400
1400
2780
2400
7C00
4400
8780
ENDCHAR
STARTCHAR 01FD
ENCODING 509
SWIDTH 810 0
DWIDTH 9 0
BBX 8 9 1 0
BITMAP
0C
08
00
FE
11
3F
90
98
EF
ENDCHAR
STARTCHAR 01FE
ENCODING 510
SWIDTH 720 0
DWIDTH 8 0
BBX 7 11 1 0
BITMAP
08
10
00
7C
C4
8A
92
A2
A2
C4
FC
ENDCHAR
STARTCHAR 01FF
ENCODING 511
SWIDTH 540 0
DWIDTH 6 0
BBX 5 9 1 0
BITMAP
10
20
00
78
98
A8
A8
C8
F0
ENDCHAR
STARTCHAR 0200
ENCODING 512
SWIDTH 630 0
DWIDTH 7 0
BBX 7 11 0 0
BITMAP
50
28
00
10
28
28
28
44
7C
46
82
ENDCHAR
STARTCHAR 0201
ENCODING 513
SWIDTH 540 0
DWIDTH 6 0
BBX 4 9 1 0
BITMAP
A0
A0
00
F0
10
30
D0
90
F0
ENDCHAR
STARTCHAR 0202
ENCODING 514
SWIDTH 630 0
DWIDTH 7 0
BBX 7 10 0 0
BITMAP
38
00
10
28
28
28
44
7C
46
82
ENDCHAR
STARTCHAR 0203
ENCODING 515
SWIDTH 540 0
DWIDTH 6 0
BBX 4 8 1 0
BITMAP
70
00
F0
10
30
D0
90
F0
ENDCHAR
STARTCHAR 0204
ENCODING 516
SWIDTH 540 0
DWIDTH 6 0
BBX 5 11 1 0
BITMAP
A0
60
00
F8
80
80
F0
80
80
80
F8
ENDCHAR
STARTCHAR 0205
ENCODING 517
SWIDTH 540 0
DWIDTH 6 0
BBX 5 9 1 0
BITMAP
A0
A0
00
70
98
F8
80
80
70
ENDCHAR
STARTCHAR 0206
ENCODING 518
SWIDTH 540 0
DWIDTH 6 0
BBX 5 10 1 0
BITMAP
70
00
F8
80
80
F0
80
80
80
F8
ENDCHAR
STARTCHAR 0207
ENCODING 519
SWIDTH 540 0
DWIDTH 6 0
BBX 5 8 1 0
BITMAP
70
00
70
98
F8
80
80
70
ENDCHAR
STARTCHAR 0208
ENCODING 520
SWIDTH 270 0
DWIDTH 3 0
BBX 4 11 -1 0
BITMAP
A0
50
00
70
20
20
20
20
20
20
70
ENDCHAR
STARTCHAR 0209
ENCODING 521
SWIDTH 180 0
DWIDTH 2 0
BBX 4 9 -1 0
BITMAP
A0
50
00
20
20
20
20
20
20
ENDCHAR
STARTCHAR 020A
ENCODING 522
SWIDTH 270 0
DWIDTH 3 0
BBX 3 10 0 0
BITMAP
E0
00
E0
40
40
40
40
40
40
E0
ENDCHAR
STARTCHAR 020B
ENCODING 523
SWIDTH 180 0
DWIDTH 2 0
BBX 3 8 0 0
BITMAP
E0
00
40
40
40
40
40
40
ENDCHAR
STARTCHAR 020C
ENCODING 524
SWIDTH 720 0
DWIDTH 8 0
BBX 7 11 1 0
BITMAP
50
50
00
78
C4
82
82
82
82
84
7C
ENDCHAR
STARTCHAR 020D
ENCODING 525
SWIDTH 540 0
DWIDTH 6 0
BBX 5 9 1 0
BITMAP
A0
A0
00
70
88
88
88
88
70
ENDCHAR
STARTCHAR 020E
ENCODING 526
SWIDTH 720 0
DWIDTH 8 0
BBX 7 10 1 0
BITMAP
38
00
78
C4
82
82
82
82
84
7C
ENDCHAR
STARTCHAR 020F
ENCODING 527
SWIDTH 540 0
DWIDTH 6 0
BBX 5 8 1 0
BITMAP
70
00
70
88
88
88
88
70
ENDCHAR
STARTCHAR 0210
ENCODING 528
SWIDTH 540 0
DWIDTH 6 0
BBX 5 11 1 0
BITMAP
A0
50
00
F0
88
88
88
F0
90
88
88
ENDCHAR
STARTCHAR 0211
ENCODING 529
SWIDTH 360 0
DWIDTH 4 0
BBX 4 9 0 0
BITMAP
A0
50
00
70
40
40
40
40
40
ENDCHAR
STARTCHAR 0212
ENCODING 530
SWIDTH 540 0
DWIDTH 6 0
BBX 5 10 1 0
BITMAP
70
00
F0
88
88
88
F0
90
88
88
ENDCHAR
STARTCHAR 0213
ENCODING 531
SWIDTH 360 0
DWIDTH 4 0
BBX 3 8 1 0
BITMAP
E0
00
E0
80
80
80
80
80
ENDCHAR
STARTCHAR 0214
ENCODING 532
SWIDTH 720 0
DWIDTH 8 0
BBX 6 11 1 0
BITMAP
50
50
00
84
84
84
84
84
84
84
78
ENDCHAR
STARTCHAR 0215
ENCODING 533
SWIDTH 540 0
DWIDTH 6 0
BBX 5 9 1 0
BITMAP
A0
50
00
88
88
88
88
88
F8
ENDCHAR
STARTCHAR 0216
ENCODING 534
SWIDTH 720 0
DWIDTH 8 0
BBX 6 10 1 0
BITMAP
38
00
84
84
84
84
84
84
84
78
ENDCHAR
STARTCHAR 0217
ENCODING 535
SWIDTH 540 0
DWIDTH 6 0
BBX 5 8 1 0
BITMAP
70
00
88
88
88
88
88
F8
ENDCHAR
STARTCHAR 0218
ENCODING 536
SWIDTH 540 0
DWIDTH 6 0
BBX 5 10 1 -2
BITMAP
F0
80
80
C0
30
08
18
F0
00
40
ENDCHAR
STARTCHAR 0219
ENCODING 537
SWIDTH 450 0
DWIDTH 5 0
BBX 4 8 1 -2
BITMAP
F0
80
C0
30
10
E0
00
40
ENDCHAR
STARTCHAR 021A
ENCODING 538
SWIDTH 540 0
DWIDTH 6 0
BBX 6 10 0 -2
BITMAP
FC
10
10
10
10
10
10
10
00
10
ENDCHAR
STARTCHAR 021B
ENCODING 539
SWIDTH 360 0
DWIDTH 4 0
BBX 4 9 0 -2
BITMAP
40
F0
40
40
40
40
70
00
20
ENDCHAR
STARTCHAR 021C
ENCODING 540
SWIDTH 540 0
DWIDTH 6 0
BBX 6 10 0 -2
BITMAP
78
04
0C
18
28
04
04
08
30
C0
ENDCHAR
STARTCHAR 021D
ENCODING 541
SWIDTH 450 0
DWIDTH 5 0
BBX 5 9 0 -3
BITMAP
70
08
08
70
08
08
18
70
80
ENDCHAR
STARTCHAR 021E
ENCODING 542
SWIDTH 720 0
DWIDTH 8 0
BBX 6 11 1 0
BITMAP
48
30
00
84
84
84
FC
84
84
84
84
ENDCHAR
STARTCHAR 021F
ENCODING 543
SWIDTH 540 0
DWIDTH 6 0
BBX 6 11 0 0
BITMAP
A0
40
00
40
40
78
44
44
44
44
44
ENDCHAR
STARTCHAR 0220
ENCODING 544
SWIDTH 720 0
DWIDTH 8 0
BBX 6 11 1 -3
BITMAP
B8
C4
84
84
84
84
84
84
04
04
04
ENDCHAR
STARTCHAR 0221
ENCODING 545
SWIDTH 810 0
DWIDTH 9 0
BBX 8 9 1 -1
BITMAP
08
08
F8
88
88
8B
8D
F7
08
ENDCHAR
STARTCHAR 0222
ENCODING 546
SWIDTH 630 0
DWIDTH 7 0
BBX 6 8 1 0
BITMAP
88
88
C8
78
84
84
8C
78
ENDCHAR
STARTCHAR 0223
ENCODING 547
SWIDTH 540 0
DWIDTH 6 0
BBX 5 8 1 0
BITMAP
88
88
D0
F0
88
88
88
F0
ENDCHAR
STARTCHAR 0224
ENCODING 548
SWIDTH 540 0
DWIDTH 6 0
BBX 6 10 0 -2
BITMAP
7C
08
08
10
20
20
40
FC
04
0C
ENDCHAR
STARTCHAR 0225
ENCODING 549
SWIDTH 450 0
DWIDTH 5 0
BBX 5 8 0 -2
BITMAP
78
10
20
20
40
F8
08
18
ENDCHAR
STARTCHAR 0226
ENCODING 550
SWIDTH 630 0
DWIDTH 7 0
BBX 7 10 0 0
BITMAP
10
00
10
28
28
28
44
7C
46
82
ENDCHAR
STARTCHAR 0227
ENCODING 551
SWIDTH 540 0
DWIDTH 6 0
BBX 4 8 1 0
BITMAP
20
00
F0
10
30
D0
90
F0
ENDCHAR
STARTCHAR 0228
ENCODING 552
SWIDTH 540 0
DWIDTH 6 0
BBX 5 11 1 -3
BITMAP
F8
80
80
F0
80
80
80
F8
20
20
60
ENDCHAR
STARTCHAR 0229
ENCODING 553
SWIDTH 540 0
DWIDTH 6 0
BBX 5 9 1 -3
BITMAP
70
98
F8
80
80
70
20
20
60
ENDCHAR
STARTCHAR 022A
ENCODING 554
SWIDTH 720 0
DWIDTH 8 0
BBX 7 11 1 0
BITMAP
38
28
00
78
C4
82
82
82
82
84
7C
ENDCHAR
STARTCHAR 022B
ENCODING 555
SWIDTH 540 0
DWIDTH 6 0
BBX 5 9 1 0
BITMAP
70
50
00
70
88
88
88
88
70
ENDCHAR
STARTCHAR 022C
ENCODING 556
SWIDTH 720 0
DWIDTH 8 0
BBX 7 11 1 0
BITMAP
38
38
00
78
C4
82
82
82
82
84
7C
ENDCHAR
STARTCHAR 022D
ENCODING 557
SWIDTH 540 0
DWIDTH 6 0
BBX 5 9 1 0
BITMAP
70
70
00
70
88
88
88
88
70
ENDCHAR
STARTCHAR 022E
ENCODING 558
SWIDTH 720 0
DWIDTH 8 0
BBX 7 10 1 0
BITMAP
10
00
78
C4
82
82
82
82
84
7C
ENDCHAR
STARTCHAR 022F
ENCODING 559
SWIDTH 540 0
DWIDTH 6 0
BBX 5 8 1 0
BITMAP
20
00
70
88
88
88
88
70
ENDCHAR
STARTCHAR 0230
ENCODING 560
SWIDTH 720 0
DWIDTH 8 0
BBX 7 11 1 0
BITMAP
38
10
00
78
C4
82
82
82
82
84
7C
ENDCHAR
STARTCHAR 0231
ENCODING 561
SWIDTH 540 0
DWIDTH 6 0
BBX 5 9 1 0
BITMAP
70
20
00
70
88
88
88
88
70
ENDCHAR
STARTCHAR 0232
ENCODING 562
SWIDTH 540 0
DWIDTH 6 0
BBX 6 10 0 0
BITMAP
78
00
84
4C
48
30
30
10
10
10
ENDCHAR
STARTCHAR 0233
ENCODING 563
SWIDTH 450 0
DWIDTH 5 0
BBX 5 11 0 -3
BITMAP
70
00
88
48
48
50
30
30
20
20
C0
ENDCHAR
STARTCHAR 0234
ENCODING 564
SWIDTH 360 0
DWIDTH 4 0
BBX 4 8 0 0
BITMAP
40
40
40
40
40
60
50
F0
ENDCHAR
STARTCHAR 0235
ENCODING 565
SWIDTH 720 0
DWIDTH 8 0
BBX 7 6 1 0
BITMAP
F0
88
88
8C
8A
9E
ENDCHAR
STARTCHAR 0236
ENCODING 566
SWIDTH 360 0
DWIDTH 4 0
BBX 4 7 0 0
BITMAP
40
F0
40
40
60
50
F0
ENDCHAR
STARTCHAR 0237
ENCODING 567
SWIDTH 180 0
DWIDTH 2 0
BBX 3 9 -1 -3
BITMAP
20
20
20
20
20
20
20
20
C0
ENDCHAR
STARTCHAR 0238
ENCODING 568
SWIDTH 900 0
DWIDTH 10 0
BBX 9 8 1 0
BITMAP
0800
0800
FF00
8880
8880
8880
8880
F700
ENDCHAR
STARTCHAR 0239
ENCODING 569
SWIDTH 900 0
DWIDTH 10 0
BBX 9 9 1 -3
BITMAP
7700
8880
8880
8880
8880
FF00
0800
0800
0800
ENDCHAR
STARTCHAR 023A
ENCODING 570
SWIDTH 630 0
DWIDTH 7 0
BBX 7 8 0 -1
BITMAP
18
28
28
38
54
7C
66
A2
ENDCHAR
STARTCHAR 023B
ENCODING 571
SWIDTH 630 0
DWIDTH 7 0
BBX 6 9 1 -1
BITMAP
7C
C8
90
90
90
A0
E0
78
40
ENDCHAR
STARTCHAR 023C
ENCODING 572
SWIDTH 450 0
DWIDTH 5 0
BBX 4 10 1 -2
BITMAP
10
10
70
A0
A0
C0
C0
70
80
80
ENDCHAR
STARTCHAR 023D
ENCODING 573
SWIDTH 450 0
DWIDTH 5 0
BBX 5 8 1 0
BITMAP
80
80
80
80
C0
80
80
F8
ENDCHAR
STARTCHAR 023E
ENCODING 574
SWIDTH 540 0
DWIDTH 6 0
BBX 6 9 0 -1
BITMAP
FC
18
10
10
10
30
30
50
40
ENDCHAR
STARTCHAR 023F
ENCODING 575
SWIDTH 450 0
DWIDTH 5 0
BBX 4 9 1 -3
BITMAP
F0
80
C0
30
10
E0
40
40
30
ENDCHAR
STARTCHAR 0240
ENCODING 576
SWIDTH 450 0
DWIDTH 5 0
BBX 5 9 0 -3
BITMAP
78
10
20
20
40
C0
20
20
18
ENDCHAR
STARTCHAR 0241
ENCODING 577
SWIDTH 360 0
DWIDTH 4 0
BBX 5 8 0 0
BITMAP
F0
18
18
10
60
40
40
40
ENDCHAR
STARTCHAR 0242
ENCODING 578
SWIDTH 360 0
DWIDTH 4 0
BBX 4 6 0 0
BITMAP
F0
10
10
10
60
40
ENDCHAR
STARTCHAR 0243
ENCODING 579
SWIDTH 630 0
DWIDTH 7 0
BBX 7 8 0 0
BITMAP
7C
44
44
7C
44
F2
46
7C
ENDCHAR
STARTCHAR 0244
ENCODING 580
SWIDTH 720 0
DWIDTH 8 0
BBX 8 8 0 0
BITMAP
42
42
42
FF
42
42
42
3C
ENDCHAR
STARTCHAR 0245
ENCODING 581
SWIDTH 540 0
DWIDTH 6 0
BBX 7 8 0 0
BITMAP
10
30
28
28
48
44
44
82
ENDCHAR
STARTCHAR 0246
ENCODING 582
SWIDTH 540 0
DWIDTH 6 0
BBX 5 9 1 -1
BITMAP
F8
90
A0
F0
A0
A0
C0
F8
40
ENDCHAR
STARTCHAR 0247
ENCODING 583
SWIDTH 540 0
DWIDTH 6 0
BBX 5 10 1 -2
BITMAP
10
10
70
A8
F8
C0
C0
70
80
80
ENDCHAR
STARTCHAR 0248
ENCODING 584
SWIDTH 270 0
DWIDTH 3 0
BBX 4 10 -1 -2
BITMAP
20
20
20
20
70
20
20
20
20
E0
ENDCHAR
STARTCHAR 0249
ENCODING 585
SWIDTH 180 0
DWIDTH 2 0
BBX 4 11 -1 -3
BITMAP
20
00
20
20
70
20
20
20
20
20
C0
ENDCHAR
STARTCHAR 024A
ENCODING 586
SWIDTH 720 0
DWIDTH 8 0
BBX 8 11 1 -3
BITMAP
78
84
84
84
84
84
84
7C
04
06
03
ENDCHAR
STARTCHAR 024B
ENCODING 587
SWIDTH 540 0
DWIDTH 6 0
BBX 6 9 1 -3
BITMAP
78
88
88
88
88
F8
08
08
04
ENDCHAR
STARTCHAR 024C
ENCODING 588
SWIDTH 540 0
DWIDTH 6 0
BBX 6 8 0 0
BITMAP
78
44
44
44
F8
48
44
44
ENDCHAR
STARTCHAR 024D
ENCODING 589
SWIDTH 360 0
DWIDTH 4 0
BBX 4 6 0 0
BITMAP
70
40
E0
40
40
40
ENDCHAR
STARTCHAR 024E
ENCODING 590
SWIDTH 540 0
DWIDTH 6 0
BBX 6 8 0 0
BITMAP
84
FC
48
30
30
10
10
10
ENDCHAR
STARTCHAR 024F
ENCODING 591
SWIDTH 450 0
DWIDTH 5 0
BBX 6 9 0 -3
BITMAP
88
48
FC
50
30
30
20
20
C0
ENDCHAR
STARTCHAR 0250
ENCODING 592
SWIDTH 540 0
DWIDTH 6 0
BBX 5 6 1 0
BITMAP
F0
88
98
E0
80
F0
ENDCHAR
STARTCHAR 0251
ENCODING 593
SWIDTH 540 0
DWIDTH 6 0
BBX 6 6 1 0
BITMAP
F8
88
88
88
88
FC
ENDCHAR
STARTCHAR 0252
ENCODING 594
SWIDTH 540 0
DWIDTH 6 0
BBX 6 6 0 0
BITMAP
F8
44
44
44
44
78
ENDCHAR
STARTCHAR 0253
ENCODING 595
SWIDTH 540 0
DWIDTH 6 0
BBX 5 8 1 1
BITMAP
C0
80
F0
88
88
88
88
F0
ENDCHAR
STARTCHAR 0254
ENCODING 596
SWIDTH 450 0
DWIDTH 5 0
BBX 5 6 0 0
BITMAP
F0
18
08
08
10
F0
ENDCHAR
STARTCHAR 0255
ENCODING 597
SWIDTH 450 0
DWIDTH 5 0
BBX 4 6 1 -1
BITMAP
70
80
80
B0
D0
F0
ENDCHAR
STARTCHAR 0256
ENCODING 598
SWIDTH 540 0
DWIDTH 6 0
BBX 6 11 1 -3
BITMAP
08
08
F8
88
88
88
88
F8
08
08
04
ENDCHAR
STARTCHAR 0257
ENCODING 599
SWIDTH 540 0
DWIDTH 6 0
BBX 5 8 1 1
BITMAP
08
08
F8
88
88
88
88
F8
ENDCHAR
STARTCHAR 0258
ENCODING 600
SWIDTH 540 0
DWIDTH 6 0
BBX 5 6 1 0
BITMAP
F0
90
F8
08
10
F0
ENDCHAR
STARTCHAR 0259
ENCODING 601
SWIDTH 540 0
DWIDTH 6 0
BBX 5 6 1 0
BITMAP
F0
10
08
F8
90
F0
ENDCHAR
STARTCHAR 025A
ENCODING 602
SWIDTH 720 0
DWIDTH 8 0
BBX 8 6 1 0
BITMAP
F0
10
1C
EF
90
F0
ENDCHAR
STARTCHAR 025B
ENCODING 603
SWIDTH 450 0
DWIDTH 5 0
BBX 5 6 0 0
BITMAP
78
40
70
40
80
78
ENDCHAR
STARTCHAR 025C
ENCODING 604
SWIDTH 450 0
DWIDTH 5 0
BBX 5 6 0 0
BITMAP
70
08
70
18
08
F0
ENDCHAR
STARTCHAR 025D
ENCODING 605
SWIDTH 630 0
DWIDTH 7 0
BBX 8 6 0 0
BITMAP
70
0C
77
18
08
F0
ENDCHAR
STARTCHAR 025E
ENCODING 606
SWIDTH 540 0
DWIDTH 6 0
BBX 5 6 1 0
BITMAP
78
88
98
88
88
78
ENDCHAR
STARTCHAR 025F
ENCODING 607
SWIDTH 180 0
DWIDTH 2 0
BBX 4 9 -1 -3
BITMAP
20
20
70
20
20
20
20
20
C0
ENDCHAR
STARTCHAR 0260
ENCODING 608
SWIDTH 540 0
DWIDTH 6 0
BBX 5 11 1 -2
BITMAP
08
08
78
88
88
88
88
F8
08
18
60
ENDCHAR
STARTCHAR 0261
ENCODING 609
SWIDTH 540 0
DWIDTH 6 0
BBX 5 9 1 -3
BITMAP
78
88
88
88
88
F8
08
18
60
ENDCHAR
STARTCHAR 0262
ENCODING 610
SWIDTH 540 0
DWIDTH 6 0
BBX 5 6 1 0
BITMAP
70
80
80
98
88
78
ENDCHAR
STARTCHAR 0263
ENCODING 611
SWIDTH 450 0
DWIDTH 5 0
BBX 5 9 0 -3
BITMAP
88
48
48
50
30
30
30
50
20
ENDCHAR
STARTCHAR 0264
ENCODING 612
SWIDTH 450 0
DWIDTH 5 0
BBX 6 6 0 0
BITMAP
8C
50
30
30
50
30
ENDCHAR
STARTCHAR 0265
ENCODING 613
SWIDTH 540 0
DWIDTH 6 0
BBX 5 8 1 -2
BITMAP
88
88
88
88
88
F8
08
08
ENDCHAR
STARTCHAR 0266
ENCODING 614
SWIDTH 540 0
DWIDTH 6 0
BBX 5 8 1 1
BITMAP
C0
80
F0
88
88
88
88
88
ENDCHAR
STARTCHAR 0267
ENCODING 615
SWIDTH 540 0
DWIDTH 6 0
BBX 5 11 1 -2
BITMAP
C0
80
F0
88
88
88
88
88
08
08
10
ENDCHAR
STARTCHAR 0268
ENCODING 616
SWIDTH 180 0
DWIDTH 2 0
BBX 3 8 0 0
BITMAP
40
00
40
40
E0
40
40
40
ENDCHAR
STARTCHAR 0269
ENCODING 617
SWIDTH 270 0
DWIDTH 3 0
BBX 2 6 1 0
BITMAP
80
80
80
80
80
C0
ENDCHAR
STARTCHAR 026A
ENCODING 618
SWIDTH 270 0
DWIDTH 3 0
BBX 3 6 0 0
BITMAP
E0
40
40
40
40
E0
ENDCHAR
STARTCHAR 026B
ENCODING 619
SWIDTH 360 0
DWIDTH 4 0
BBX 4 8 0 0
BITMAP
20
20
20
F0
20
20
20
20
ENDCHAR
STARTCHAR 026C
ENCODING 620
SWIDTH 270 0
DWIDTH 3 0
BBX 4 8 0 0
BITMAP
20
20
E0
A0
F0
20
20
20
ENDCHAR
STARTCHAR 026D
ENCODING 621
SWIDTH 180 0
DWIDTH 2 0
BBX 2 11 1 -3
BITMAP
80
80
80
80
80
80
80
80
80
80
40
ENDCHAR
STARTCHAR 026E
ENCODING 622
SWIDTH 630 0
DWIDTH 7 0
BBX 6 11 1 -3
BITMAP
80
80
FC
88
90
B0
88
84
04
08
70
ENDCHAR
STARTCHAR 026F
ENCODING 623
SWIDTH 900 0
DWIDTH 10 0
BBX 8 6 1 0
BITMAP
89
89
89
89
99
FF
ENDCHAR
STARTCHAR 0270
ENCODING 624
SWIDTH 900 0
DWIDTH 10 0
BBX 8 9 1 -3
BITMAP
89
89
89
89
99
FF
01
01
01
ENDCHAR
STARTCHAR 0271
ENCODING 625
SWIDTH 900 0
DWIDTH 10 0
BBX 8 9 1 -3
BITMAP
F7
89
89
89
89
89
01
01
03
ENDCHAR
STARTCHAR 0272
ENCODING 626
SWIDTH 540 0
DWIDTH 6 0
BBX 6 9 0 -3
BITMAP
78
44
44
44
44
44
40
40
80
ENDCHAR
STARTCHAR 0273
ENCODING 627
SWIDTH 540 0
DWIDTH 6 0
BBX 6 9 1 -3
BITMAP
F0
88
88
88
88
88
08
08
04
ENDCHAR
STARTCHAR 0274
ENCODING 628
SWIDTH 630 0
DWIDTH 7 0
BBX 5 6 1 0
BITMAP
88
C8
A8
A8
98
88
ENDCHAR
STARTCHAR 0275
ENCODING 629
SWIDTH 540 0
DWIDTH 6 0
BBX 5 6 1 0
BITMAP
70
88
88
F8
88
70
ENDCHAR
STARTCHAR 0276
ENCODING 630
SWIDTH 810 0
DWIDTH 9 0
BBX 8 6 1 0
BITMAP
7F
88
8F
88
88
7F
ENDCHAR
STARTCHAR 0277
ENCODING 631
SWIDTH 720 0
DWIDTH 8 0
BBX 7 6 1 0
BITMAP
7C
86
92
92
92
EC
ENDCHAR
STARTCHAR 0278
ENCODING 632
SWIDTH 720 0
DWIDTH 8 0
BBX 6 11 1 -3
BITMAP
10
10
78
94
94
94
94
78
10
10
10
ENDCHAR
STARTCHAR 0279
ENCODING 633
SWIDTH 360 0
DWIDTH 4 0
BBX 4 6 0 0
BITMAP
10
10
10
10
30
D0
ENDCHAR
STARTCHAR 027A
ENCODING 634
SWIDTH 360 0
DWIDTH 4 0
BBX 4 8 0 0
BITMAP
10
10
10
10
10
10
30
D0
ENDCHAR
STARTCHAR 027B
ENCODING 635
SWIDTH 360 0
DWIDTH 4 0
BBX 5 9 0 -3
BITMAP
10
10
10
10
30
D0
10
10
18
ENDCHAR
STARTCHAR 027C
ENCODING 636
SWIDTH 360 0
DWIDTH 4 0
BBX 3 9 1 -3
BITMAP
E0
80
80
80
80
80
80
80
80
ENDCHAR
STARTCHAR 027D
ENCODING 637
SWIDTH 360 0
DWIDTH 4 0
BBX 3 9 1 -3
BITMAP
E0
80
80
80
80
80
80
80
40
ENDCHAR
STARTCHAR 027E
ENCODING 638
SWIDTH 270 0
DWIDTH 3 0
BBX 3 6 1 0
BITMAP
E0
80
80
80
80
80
ENDCHAR
STARTCHAR 027F
ENCODING 639
SWIDTH 270 0
DWIDTH 3 0
BBX 3 9 0 -3
BITMAP
E0
20
20
20
20
20
20
20
20
ENDCHAR
STARTCHAR 0280
ENCODING 640
SWIDTH 540 0
DWIDTH 6 0
BBX 5 6 1 0
BITMAP
F0
88
88
F0
90
88
ENDCHAR
STARTCHAR 0281
ENCODING 641
SWIDTH 540 0
DWIDTH 6 0
BBX 5 6 1 0
BITMAP
88
90
E0
98
88
F0
ENDCHAR
STARTCHAR 0282
ENCODING 642
SWIDTH 450 0
DWIDTH 5 0
BBX 4 8 1 -2
BITMAP
F0
80
C0
30
10
E0
80
C0
ENDCHAR
STARTCHAR 0283
ENCODING 643
SWIDTH 180 0
DWIDTH 2 0
BBX 3 11 0 -2
BITMAP
60
40
40
40
40
40
40
40
40
40
80
ENDCHAR
STARTCHAR 0284
ENCODING 644
SWIDTH 180 0
DWIDTH 2 0
BBX 3 11 0 -2
BITMAP
60
40
40
40
E0
40
40
40
40
40
80
ENDCHAR
STARTCHAR 0285
ENCODING 645
SWIDTH 180 0
DWIDTH 2 0
BBX 3 9 0 -3
BITMAP
C0
40
40
40
40
40
40
40
20
ENDCHAR
STARTCHAR 0286
ENCODING 646
SWIDTH 180 0
DWIDTH 2 0
BBX 4 11 -1 -2
BITMAP
30
20
20
20
20
20
20
20
F0
A0
40
ENDCHAR
STARTCHAR 0287
ENCODING 647
SWIDTH 360 0
DWIDTH 4 0
BBX 4 7 0 -1
BITMAP
E0
20
20
20
20
F0
20
ENDCHAR
STARTCHAR 0288
ENCODING 648
SWIDTH 360 0
DWIDTH 4 0
BBX 4 10 0 -3
BITMAP
40
F0
40
40
40
40
40
40
40
30
ENDCHAR
STARTCHAR 0289
ENCODING 649
SWIDTH 540 0
DWIDTH 6 0
BBX 7 6 0 0
BITMAP
44
44
FE
44
44
7C
ENDCHAR
STARTCHAR 028A
ENCODING 650
SWIDTH 540 0
DWIDTH 6 0
BBX 6 6 0 0
BITMAP
EC
44
44
44
44
38
ENDCHAR
STARTCHAR 028B
ENCODING 651
SWIDTH 540 0
DWIDTH 6 0
BBX 5 6 1 0
BITMAP
98
88
88
88
88
70
ENDCHAR
STARTCHAR 028C
ENCODING 652
SWIDTH 450 0
DWIDTH 5 0
BBX 5 6 0 0
BITMAP
30
30
50
48
48
88
ENDCHAR
STARTCHAR 028D
ENCODING 653
SWIDTH 720 0
DWIDTH 8 0
BBX 8 6 0 0
BITMAP
22
66
55
55
59
89
ENDCHAR
STARTCHAR 028E
ENCODING 654
SWIDTH 450 0
DWIDTH 5 0
BBX 6 9 0 0
BITMAP
0C
10
20
20
30
50
48
48
88
ENDCHAR
STARTCHAR 028F
ENCODING 655
SWIDTH 450 0
DWIDTH 5 0
BBX 5 6 0 0
BITMAP
88
50
30
20
20
20
ENDCHAR
STARTCHAR 0290
ENCODING 656
SWIDTH 450 0
DWIDTH 5 0
BBX 6 9 0 -3
BITMAP
78
10
20
20
40
F8
08
08
04
ENDCHAR
STARTCHAR 0291
ENCODING 657
SWIDTH 540 0
DWIDTH 6 0
BBX 6 7 0 -1
BITMAP
78
10
20
28
54
FC
20
ENDCHAR
STARTCHAR 0292
ENCODING 658
SWIDTH 450 0
DWIDTH 5 0
BBX 5 9 0 -3
BITMAP
F8
10
20
60
18
08
08
18
60
ENDCHAR
STARTCHAR 0293
ENCODING 659
SWIDTH 450 0
DWIDTH 5 0
BBX 5 9 0 -3
BITMAP
F8
10
20
60
18
08
F8
98
60
ENDCHAR
STARTCHAR 0294
ENCODING 660
SWIDTH 360 0
DWIDTH 4 0
BBX 4 8 0 1
BITMAP
F0
10
10
30
40
40
40
40
ENDCHAR
STARTCHAR 0295
ENCODING 661
SWIDTH 360 0
DWIDTH 4 0
BBX 4 8 0 1
BITMAP
70
80
80
40
20
20
20
20
ENDCHAR
STARTCHAR 0296
ENCODING 662
SWIDTH 360 0
DWIDTH 4 0
BBX 4 8 0 0
BITMAP
40
40
40
60
10
10
10
F0
ENDCHAR
STARTCHAR 0297
ENCODING 663
SWIDTH 450 0
DWIDTH 5 0
BBX 4 9 1 -3
BITMAP
70
80
80
80
80
80
80
80
60
ENDCHAR
STARTCHAR 0298
ENCODING 664
SWIDTH 720 0
DWIDTH 8 0
BBX 7 8 1 0
BITMAP
78
C4
82
92
92
82
84
7C
ENDCHAR
STARTCHAR 0299
ENCODING 665
SWIDTH 540 0
DWIDTH 6 0
BBX 5 6 1 0
BITMAP
F0
88
F0
98
88
F0
ENDCHAR
STARTCHAR 029A
ENCODING 666
SWIDTH 540 0
DWIDTH 6 0
BBX 6 6 0 0
BITMAP
78
44
74
44
84
78
ENDCHAR
STARTCHAR 029B
ENCODING 667
SWIDTH 540 0
DWIDTH 6 0
BBX 5 8 1 1
BITMAP
08
10
70
80
80
98
88
78
ENDCHAR
STARTCHAR 029C
ENCODING 668
SWIDTH 630 0
DWIDTH 7 0
BBX 5 6 1 0
BITMAP
88
88
88
F8
88
88
ENDCHAR
STARTCHAR 029D
ENCODING 669
SWIDTH 180 0
DWIDTH 2 0
BBX 4 11 -1 -3
BITMAP
20
00
20
20
20
20
20
20
F0
A0
40
ENDCHAR
STARTCHAR 029E
ENCODING 670
SWIDTH 450 0
DWIDTH 5 0
BBX 5 8 0 -2
BITMAP
C8
48
28
18
28
48
08
08
ENDCHAR
STARTCHAR 029F
ENCODING 671
SWIDTH 360 0
DWIDTH 4 0
BBX 4 6 1 0
BITMAP
80
80
80
80
80
F0
ENDCHAR
STARTCHAR 02A0
ENCODING 672
SWIDTH 540 0
DWIDTH 6 0
BBX 6 11 1 -2
BITMAP
0C
08
F8
88
88
88
88
F8
08
08
08
ENDCHAR
STARTCHAR 02A1
ENCODING 673
SWIDTH 360 0
DWIDTH 4 0
BBX 4 8 0 1
BITMAP
F0
10
10
30
40
F0
40
40
ENDCHAR
STARTCHAR 02A2
ENCODING 674
SWIDTH 360 0
DWIDTH 4 0
BBX 4 8 0 1
BITMAP
70
80
80
40
20
70
20
20
ENDCHAR
STARTCHAR 02A3
ENCODING 675
SWIDTH 900 0
DWIDTH 10 0
BBX 9 8 1 0
BITMAP
0800
0800
FF80
8880
8900
8A00
8E00
FF80
ENDCHAR
STARTCHAR 02A4
ENCODING 676
SWIDTH 900 0
DWIDTH 10 0
BBX 9 11 1 -3
BITMAP
0800
0800
FF80
8880
8900
8A00
8980
F880
0080
0080
0700
ENDCHAR
STARTCHAR 02A5
ENCODING 677
SWIDTH 990 0
DWIDTH 11 0
BBX 10 9 1 -1
BITMAP
0800
0800
FF80
8880
8900
8A00
8FC0
FFC0
0200
ENDCHAR
STARTCHAR 02A6
ENCODING 678
SWIDTH 720 0
DWIDTH 8 0
BBX 8 7 0 0
BITMAP
40
FF
48
4C
43
41
7E
ENDCHAR
STARTCHAR 02A7
ENCODING 679
SWIDTH 450 0
DWIDTH 5 0
BBX 5 11 0 -2
BITMAP
08
48
F8
48
48
48
48
78
08
08
30
ENDCHAR
STARTCHAR 02A8
ENCODING 680
SWIDTH 810 0
DWIDTH 9 0
BBX 9 7 0 0
BITMAP
4000
F780
4400
4800
4B80
4480
7F80
ENDCHAR
STARTCHAR 02A9
ENCODING 681
SWIDTH 810 0
DWIDTH 9 0
BBX 9 11 0 -2
BITMAP
7000
4000
FF00
4880
4880
4880
4880
4880
0080
0080
0300
ENDCHAR
STARTCHAR 02AA
ENCODING 682
SWIDTH 630 0
DWIDTH 7 0
BBX 6 8 1 0
BITMAP
80
80
BC
A0
B0
8C
84
F8
ENDCHAR
STARTCHAR 02AB
ENCODING 683
SWIDTH 540 0
DWIDTH 6 0
BBX 5 8 1 0
BITMAP
80
80
F8
88
90
A0
A0
F8
ENDCHAR
STARTCHAR 02AC
ENCODING 684
SWIDTH 450 0
DWIDTH 5 0
BBX 6 8 0 0
BITMAP
A4
B8
D8
48
A4
B8
D8
48
ENDCHAR
STARTCHAR 02AD
ENCODING 685
SWIDTH 540 0
DWIDTH 6 0
BBX 5 8 1 0
BITMAP
F8
88
88
00
00
F8
88
88
ENDCHAR
STARTCHAR 02AE
ENCODING 686
SWIDTH 540 0
DWIDTH 6 0
BBX 6 9 0 -3
BITMAP
C4
44
44
44
44
7C
04
04
04
ENDCHAR
STARTCHAR 02AF
ENCODING 687
SWIDTH 540 0
DWIDTH 6 0
BBX 7 9 0 -3
BITMAP
C4
44
44
44
44
7C
04
04
02
ENDCHAR
STARTCHAR 02B0
ENCODING 688
SWIDTH 360 0
DWIDTH 4 0
BBX 3 5 1 3
BITMAP
80
E0
A0
A0
20
ENDCHAR
STARTCHAR 02B1
ENCODING 689
SWIDTH 360 0
DWIDTH 4 0
BBX 3 5 1 3
BITMAP
80
E0
A0
A0
20
ENDCHAR
STARTCHAR 02B2
ENCODING 690
SWIDTH 90 0
DWIDTH 1 0
BBX 1 4 0 4
BITMAP
80
80
80
80
ENDCHAR
STARTCHAR 02B3
ENCODING 691
SWIDTH 180 0
DWIDTH 2 0
BBX 2 3 1 3
BITMAP
40
80
80
ENDCHAR
STARTCHAR 02B4
ENCODING 692
SWIDTH 180 0
DWIDTH 2 0
BBX 2 3 0 4
BITMAP
40
40
80
ENDCHAR
STARTCHAR 02B5
ENCODING 693
SWIDTH 180 0
DWIDTH 2 0
BBX 3 4 0 3
BITMAP
40
40
C0
60
ENDCHAR
STARTCHAR 02B6
ENCODING 694
SWIDTH 360 0
DWIDTH 4 0
BBX 3 4 1 3
BITMAP
20
C0
A0
C0
ENDCHAR
STARTCHAR 02B7
ENCODING 695
SWIDTH 450 0
DWIDTH 5 0
BBX 6 4 0 3
BITMAP
A4
B8
D8
48
ENDCHAR
STARTCHAR 02B8
ENCODING 696
SWIDTH 270 0
DWIDTH 3 0
BBX 4 5 0 2
BITMAP
90
A0
60
40
40
ENDCHAR
STARTCHAR 02B9
ENCODING 697
SWIDTH 90 0
DWIDTH 1 0
BBX 2 3 0 5
BITMAP
40
80
80
ENDCHAR
STARTCHAR 02BA
ENCODING 698
SWIDTH 270 0
DWIDTH 3 0
BBX 4 3 0 5
BITMAP
50
A0
A0
ENDCHAR
STARTCHAR 02BB
ENCODING 699
SWIDTH 90 0
DWIDTH 1 0
BBX 2 3 0 5
BITMAP
40
80
80
ENDCHAR
STARTCHAR 02BC
ENCODING 700
SWIDTH 90 0
DWIDTH 1 0
BBX 2 3 0 5
BITMAP
40
80
80
ENDCHAR
STARTCHAR 02BD
ENCODING 701
SWIDTH 90 0
DWIDTH 1 0
BBX 2 3 0 5
BITMAP
80
40
40
ENDCHAR
STARTCHAR 02BE
ENCODING 702
SWIDTH 90 0
DWIDTH 1 0
BBX 2 3 0 6
BITMAP
80
40
80
ENDCHAR
STARTCHAR 02BF
ENCODING 703
SWIDTH 90 0
DWIDTH 1 0
BBX 2 3 0 6
BITMAP
40
80
40
ENDCHAR
STARTCHAR 02C0
ENCODING 704
SWIDTH 270 0
DWIDTH 3 0
BBX 2 4 1 5
BITMAP
80
40
40
80
ENDCHAR
STARTCHAR 02C1
ENCODING 705
SWIDTH 270 0
DWIDTH 3 0
BBX 3 3 0 6
BITMAP
A0
80
40
ENDCHAR
STARTCHAR 02C2
ENCODING 706
SWIDTH 270 0
DWIDTH 3 0
BBX 3 3 0 6
BITMAP
20
C0
60
ENDCHAR
STARTCHAR 02C3
ENCODING 707
SWIDTH 270 0
DWIDTH 3 0
BBX 3 3 0 6
BITMAP
80
60
C0
ENDCHAR
STARTCHAR 02C4
ENCODING 708
SWIDTH 270 0
DWIDTH 3 0
BBX 3 3 0 6
BITMAP
40
C0
A0
ENDCHAR
STARTCHAR 02C5
ENCODING 709
SWIDTH 270 0
DWIDTH 3 0
BBX 3 3 0 6
BITMAP
A0
C0
40
ENDCHAR
STARTCHAR 02C6
ENCODING 710
SWIDTH 360 0
DWIDTH 4 0
BBX 3 2 1 7
BITMAP
40
A0
ENDCHAR
STARTCHAR 02C7
ENCODING 711
SWIDTH 360 0
DWIDTH 4 0
BBX 4 2 0 7
BITMAP
90
60
ENDCHAR
STARTCHAR 02C8
ENCODING 712
SWIDTH 90 0
DWIDTH 1 0
BBX 1 2 0 6
BITMAP
80
80
ENDCHAR
STARTCHAR 02C9
ENCODING 713
SWIDTH 360 0
DWIDTH 4 0
BBX 4 1 0 7
BITMAP
F0
ENDCHAR
STARTCHAR 02CA
ENCODING 714
SWIDTH 270 0
DWIDTH 3 0
BBX 2 2 1 7
BITMAP
C0
80
ENDCHAR
STARTCHAR 02CB
ENCODING 715
SWIDTH 270 0
DWIDTH 3 0
BBX 2 2 0 7
BITMAP
C0
40
ENDCHAR
STARTCHAR 02CC
ENCODING 716
SWIDTH 90 0
DWIDTH 1 0
BBX 1 3 0 -2
BITMAP
80
80
80
ENDCHAR
STARTCHAR 02CD
ENCODING 717
SWIDTH 360 0
DWIDTH 4 0
BBX 4 1 0 -2
BITMAP
F0
ENDCHAR
STARTCHAR 02CE
ENCODING 718
SWIDTH 270 0
DWIDTH 3 0
BBX 2 2 0 -2
BITMAP
C0
40
ENDCHAR
STARTCHAR 02CF
ENCODING 719
SWIDTH 270 0
DWIDTH 3 0
BBX 2 2 1 -2
BITMAP
C0
80
ENDCHAR
STARTCHAR 02D0
ENCODING 720
SWIDTH 270 0
DWIDTH 3 0
BBX 1 6 1 0
BITMAP
80
00
00
00
00
80
ENDCHAR
STARTCHAR 02D1
ENCODING 721
SWIDTH 270 0
DWIDTH 3 0
BBX 1 1 1 4
BITMAP
80
ENDCHAR
STARTCHAR 02D2
ENCODING 722
SWIDTH 180 0
DWIDTH 2 0
BBX 2 3 0 2
BITMAP
80
40
80
ENDCHAR
STARTCHAR 02D3
ENCODING 723
SWIDTH 180 0
DWIDTH 2 0
BBX 2 3 0 2
BITMAP
40
80
40
ENDCHAR
STARTCHAR 02D4
ENCODING 724
SWIDTH 270 0
DWIDTH 3 0
BBX 1 1 1 3
BITMAP
80
ENDCHAR
STARTCHAR 02D5
ENCODING 725
SWIDTH 270 0
DWIDTH 3 0
BBX 1 1 1 3
BITMAP
80
ENDCHAR
STARTCHAR 02D6
ENCODING 726
SWIDTH 270 0
DWIDTH 3 0
BBX 3 2 0 2
BITMAP
E0
40
ENDCHAR
STARTCHAR 02D7
ENCODING 727
SWIDTH 270 0
DWIDTH 3 0
BBX 3 1 0 3
BITMAP
E0
ENDCHAR
STARTCHAR 02D8
ENCODING 728
SWIDTH 360 0
DWIDTH 4 0
BBX 3 1 1 7
BITMAP
E0
ENDCHAR
STARTCHAR 02D9
ENCODING 729
SWIDTH 180 0
DWIDTH 2 0
BBX 2 1 0 7
BITMAP
C0
ENDCHAR
STARTCHAR 02DA
ENCODING 730
SWIDTH 270 0
DWIDTH 3 0
BBX 3 2 0 7
BITMAP
E0
E0
ENDCHAR
STARTCHAR 02DB
ENCODING 731
SWIDTH 180 0
DWIDTH 2 0
BBX 2 2 0 -2
BITMAP
40
C0
ENDCHAR
STARTCHAR 02DC
ENCODING 732
SWIDTH 360 0
DWIDTH 4 0
BBX 3 1 1 7
BITMAP
E0
ENDCHAR
STARTCHAR 02DD
ENCODING 733
SWIDTH 360 0
DWIDTH 4 0
BBX 3 2 1 7
BITMAP
A0
A0
ENDCHAR
STARTCHAR 02DE
ENCODING 734
SWIDTH 180 0
DWIDTH 2 0
BBX 4 2 -1 2
BITMAP
C0
70
ENDCHAR
STARTCHAR 02DF
ENCODING 735
SWIDTH 270 0
DWIDTH 3 0
BBX 1 1 1 7
BITMAP
80
ENDCHAR
STARTCHAR 02E0
ENCODING 736
SWIDTH 270 0
DWIDTH 3 0
BBX 4 5 0 2
BITMAP
90
A0
60
40
60
ENDCHAR
STARTCHAR 02E1
ENCODING 737
SWIDTH 90 0
DWIDTH 1 0
BBX 1 4 0 3
BITMAP
80
80
80
80
ENDCHAR
STARTCHAR 02E2
ENCODING 738
SWIDTH 270 0
DWIDTH 3 0
BBX 3 4 0 3
BITMAP
60
80
60
E0
ENDCHAR
STARTCHAR 02E3
ENCODING 739
SWIDTH 270 0
DWIDTH 3 0
BBX 3 4 0 3
BITMAP
80
60
60
80
ENDCHAR
STARTCHAR 02E4
ENCODING 740
SWIDTH 270 0
DWIDTH 3 0
BBX 2 4 0 3
BITMAP
C0
80
40
40
ENDCHAR
STARTCHAR 02E5
ENCODING 741
SWIDTH 360 0
DWIDTH 4 0
BBX 3 8 1 0
BITMAP
E0
20
20
20
20
20
20
20
ENDCHAR
STARTCHAR 02E6
ENCODING 742
SWIDTH 360 0
DWIDTH 4 0
BBX 3 8 1 0
BITMAP
20
20
E0
20
20
20
20
20
ENDCHAR
STARTCHAR 02E7
ENCODING 743
SWIDTH 360 0
DWIDTH 4 0
BBX 3 8 1 0
BITMAP
20
20
20
20
E0
20
20
20
ENDCHAR
STARTCHAR 02E8
ENCODING 744
SWIDTH 360 0
DWIDTH 4 0
BBX 3 8 1 0
BITMAP
20
20
20
20
20
E0
20
20
ENDCHAR
STARTCHAR 02E9
ENCODING 745
SWIDTH 360 0
DWIDTH 4 0
BBX 3 8 1 0
BITMAP
20
20
20
20
20
20
20
E0
ENDCHAR
STARTCHAR 02EA
ENCODING 746
SWIDTH 360 0
DWIDTH 4 0
BBX 3 4 1 2
BITMAP
80
80
80
E0
ENDCHAR
STARTCHAR 02EB
ENCODING 747
SWIDTH 360 0
DWIDTH 4 0
BBX 3 4 1 2
BITMAP
80
80
E0
80
ENDCHAR
STARTCHAR 02EC
ENCODING 748
SWIDTH 360 0
DWIDTH 4 0
BBX 4 2 0 -2
BITMAP
90
60
ENDCHAR
STARTCHAR 02ED
ENCODING 749
SWIDTH 450 0
DWIDTH 5 0
BBX 5 2 0 7
BITMAP
F8
78
ENDCHAR
STARTCHAR 02EE
ENCODING 750
SWIDTH 270 0
DWIDTH 3 0
BBX 4 3 0 5
BITMAP
50
A0
A0
ENDCHAR
STARTCHAR 02EF
ENCODING 751
SWIDTH 360 0
DWIDTH 4 0
BBX 3 3 1 -3
BITMAP
A0
C0
40
ENDCHAR
STARTCHAR 02F0
ENCODING 752
SWIDTH 360 0
DWIDTH 4 0
BBX 3 3 1 -3
BITMAP
40
C0
20
ENDCHAR
STARTCHAR 02F1
ENCODING 753
SWIDTH 270 0
DWIDTH 3 0
BBX 3 3 0 -3
BITMAP
60
C0
20
ENDCHAR
STARTCHAR 02F2
ENCODING 754
SWIDTH 270 0
DWIDTH 3 0
BBX 3 3 0 -3
BITMAP
C0
60
80
ENDCHAR
STARTCHAR 02F3
ENCODING 755
SWIDTH 270 0
DWIDTH 3 0
BBX 2 2 1 -3
BITMAP
C0
C0
ENDCHAR
STARTCHAR 02F4
ENCODING 756
SWIDTH 270 0
DWIDTH 3 0
BBX 1 1 1 3
BITMAP
80
ENDCHAR
STARTCHAR 02F5
ENCODING 757
SWIDTH 360 0
DWIDTH 4 0
BBX 3 2 1 3
BITMAP
A0
20
ENDCHAR
STARTCHAR 02F6
ENCODING 758
SWIDTH 360 0
DWIDTH 4 0
BBX 3 1 1 3
BITMAP
A0
ENDCHAR
STARTCHAR 02F7
ENCODING 759
SWIDTH 360 0
DWIDTH 4 0
BBX 4 1 0 -2
BITMAP
F0
ENDCHAR
STARTCHAR 02F8
ENCODING 760
SWIDTH 180 0
DWIDTH 2 0
BBX 1 6 1 2
BITMAP
80
00
00
00
80
80
ENDCHAR
STARTCHAR 02F9
ENCODING 761
SWIDTH 270 0
DWIDTH 3 0
BBX 3 3 0 5
BITMAP
E0
80
80
ENDCHAR
STARTCHAR 02FA
ENCODING 762
SWIDTH 270 0
DWIDTH 3 0
BBX 3 3 0 5
BITMAP
E0
20
20
ENDCHAR
STARTCHAR 02FB
ENCODING 763
SWIDTH 270 0
DWIDTH 3 0
BBX 3 3 0 0
BITMAP
80
80
E0
ENDCHAR
STARTCHAR 02FC
ENCODING 764
SWIDTH 270 0
DWIDTH 3 0
BBX 3 3 0 0
BITMAP
20
20
E0
ENDCHAR
STARTCHAR 02FD
ENCODING 765
SWIDTH 450 0
DWIDTH 5 0
BBX 5 2 0 -2
BITMAP
80
F8
ENDCHAR
STARTCHAR 02FE
ENCODING 766
SWIDTH 450 0
DWIDTH 5 0
BBX 5 2 0 -2
BITMAP
80
F8
ENDCHAR
STARTCHAR 02FF
ENCODING 767
SWIDTH 450 0
DWIDTH 5 0
BBX 4 3 1 -2
BITMAP
C0
F0
40
ENDCHAR
STARTCHAR 0300
ENCODING 768
SWIDTH 0 0
DWIDTH 0 0
BBX 1 2 -5 7
BITMAP
80
80
ENDCHAR
STARTCHAR 0301
ENCODING 769
SWIDTH 0 0
DWIDTH 0 0
BBX 2 2 -3 7
BITMAP
C0
80
ENDCHAR
STARTCHAR 0302
ENCODING 770
SWIDTH 0 0
DWIDTH 0 0
BBX 2 2 -1 7
BITMAP
40
C0
ENDCHAR
STARTCHAR 0303
ENCODING 771
SWIDTH 0 0
DWIDTH 0 0
BBX 3 1 -5 7
BITMAP
E0
ENDCHAR
STARTCHAR 0304
ENCODING 772
SWIDTH 0 0
DWIDTH 0 0
BBX 4 1 -2 7
BITMAP
F0
ENDCHAR
STARTCHAR 0305
ENCODING 773
SWIDTH 0 0
DWIDTH 0 0
BBX 4 1 -2 8
BITMAP
F0
ENDCHAR
STARTCHAR 0306
ENCODING 774
SWIDTH 0 0
DWIDTH 0 0
BBX 4 1 -2 7
BITMAP
F0
ENDCHAR
STARTCHAR 0307
ENCODING 775
SWIDTH 0 0
DWIDTH 0 0
BBX 2 1 -1 7
BITMAP
C0
ENDCHAR
STARTCHAR 0308
ENCODING 776
SWIDTH 0 0
DWIDTH 0 0
BBX 4 1 -2 7
BITMAP
90
ENDCHAR
STARTCHAR 0309
ENCODING 777
SWIDTH 0 0
DWIDTH 0 0
BBX 2 2 -4 7
BITMAP
C0
C0
ENDCHAR
STARTCHAR 030A
ENCODING 778
SWIDTH 0 0
DWIDTH 0 0
BBX 2 2 -1 7
BITMAP
C0
C0
ENDCHAR
STARTCHAR 030B
ENCODING 779
SWIDTH 0 0
DWIDTH 0 0
BBX 4 2 -1 7
BITMAP
50
A0
ENDCHAR
STARTCHAR 030C
ENCODING 780
SWIDTH 0 0
DWIDTH 0 0
BBX 4 2 -2 7
BITMAP
90
60
ENDCHAR
STARTCHAR 030D
ENCODING 781
SWIDTH 0 0
DWIDTH 0 0
BBX 1 1 0 7
BITMAP
80
ENDCHAR
STARTCHAR 030E
ENCODING 782
SWIDTH 0 0
DWIDTH 0 0
BBX 2 1 -1 7
BITMAP
C0
ENDCHAR
STARTCHAR 030F
ENCODING 783
SWIDTH 0 0
DWIDTH 0 0
BBX 4 2 -6 7
BITMAP
A0
50
ENDCHAR
STARTCHAR 0310
ENCODING 784
SWIDTH 0 0
DWIDTH 0 0
BBX 4 2 -2 7
BITMAP
60
F0
ENDCHAR
STARTCHAR 0311
ENCODING 785
SWIDTH 0 0
DWIDTH 0 0
BBX 3 1 -1 7
BITMAP
E0
ENDCHAR
STARTCHAR 0312
ENCODING 786
SWIDTH 0 0
DWIDTH 0 0
BBX 2 3 -1 5
BITMAP
40
80
80
ENDCHAR
STARTCHAR 0313
ENCODING 787
SWIDTH 0 0
DWIDTH 0 0
BBX 2 3 -1 5
BITMAP
40
80
80
ENDCHAR
STARTCHAR 0314
ENCODING 788
SWIDTH 0 0
DWIDTH 0 0
BBX 2 3 -1 5
BITMAP
80
40
40
ENDCHAR
STARTCHAR 0315
ENCODING 789
SWIDTH 0 0
DWIDTH 0 0
BBX 2 3 -1 5
BITMAP
40
80
80
ENDCHAR
STARTCHAR 0316
ENCODING 790
SWIDTH 0 0
DWIDTH 0 0
BBX 2 2 -1 -2
BITMAP
80
40
ENDCHAR
STARTCHAR 0317
ENCODING 791
SWIDTH 0 0
DWIDTH 0 0
BBX 2 2 -1 -2
BITMAP
40
80
ENDCHAR
STARTCHAR 0318
ENCODING 792
SWIDTH 0 0
DWIDTH 0 0
BBX 2 2 -1 -2
BITMAP
40
C0
ENDCHAR
STARTCHAR 0319
ENCODING 793
SWIDTH 0 0
DWIDTH 0 0
BBX 2 2 -1 -2
BITMAP
80
C0
ENDCHAR
STARTCHAR 031A
ENCODING 794
SWIDTH 0 0
DWIDTH 0 0
BBX 2 2 0 8
BITMAP
C0
40
ENDCHAR
STARTCHAR 031B
ENCODING 795
SWIDTH 0 0
DWIDTH 0 0
BBX 2 2 -1 6
BITMAP
40
80
ENDCHAR
STARTCHAR 031C
ENCODING 796
SWIDTH 0 0
DWIDTH 0 0
BBX 2 2 -1 -3
BITMAP
40
80
ENDCHAR
STARTCHAR 031D
ENCODING 797
SWIDTH 0 0
DWIDTH 0 0
BBX 2 1 -1 -2
BITMAP
C0
ENDCHAR
STARTCHAR 031E
ENCODING 798
SWIDTH 0 0
DWIDTH 0 0
BBX 2 1 -1 -2
BITMAP
C0
ENDCHAR
STARTCHAR 031F
ENCODING 799
SWIDTH 0 0
DWIDTH 0 0
BBX 2 1 -1 -2
BITMAP
C0
ENDCHAR
STARTCHAR 0320
ENCODING 800
SWIDTH 0 0
DWIDTH 0 0
BBX 2 1 -1 -2
BITMAP
C0
ENDCHAR
STARTCHAR 0321
ENCODING 801
SWIDTH 0 0
DWIDTH 0 0
BBX 2 3 -2 -3
BITMAP
40
40
80
ENDCHAR
STARTCHAR 0322
ENCODING 802
SWIDTH 0 0
DWIDTH 0 0
BBX 2 3 0 -3
BITMAP
80
80
40
ENDCHAR
STARTCHAR 0323
ENCODING 803
SWIDTH 0 0
DWIDTH 0 0
BBX 1 1 -4 -2
BITMAP
80
ENDCHAR
STARTCHAR 0324
ENCODING 804
SWIDTH 0 0
DWIDTH 0 0
BBX 4 1 -2 -2
BITMAP
90
ENDCHAR
STARTCHAR 0325
ENCODING 805
SWIDTH 0 0
DWIDTH 0 0
BBX 2 2 -1 -3
BITMAP
C0
C0
ENDCHAR
STARTCHAR 0326
ENCODING 806
SWIDTH 0 0
DWIDTH 0 0
BBX 1 1 -1 -2
BITMAP
80
ENDCHAR
STARTCHAR 0327
ENCODING 807
SWIDTH 0 0
DWIDTH 0 0
BBX 2 3 -1 -3
BITMAP
80
40
80
ENDCHAR
STARTCHAR 0328
ENCODING 808
SWIDTH 0 0
DWIDTH 0 0
BBX 1 2 -1 -2
BITMAP
80
80
ENDCHAR
STARTCHAR 0329
ENCODING 809
SWIDTH 0 0
DWIDTH 0 0
BBX 1 1 0 -1
BITMAP
80
ENDCHAR
STARTCHAR 032A
ENCODING 810
SWIDTH 0 0
DWIDTH 0 0
BBX 4 1 -2 -2
BITMAP
F0
ENDCHAR
STARTCHAR 032B
ENCODING 811
SWIDTH 0 0
DWIDTH 0 0
BBX 4 1 -2 -2
BITMAP
F0
ENDCHAR
STARTCHAR 032C
ENCODING 812
SWIDTH 0 0
DWIDTH 0 0
BBX 4 2 -2 -2
BITMAP
90
60
ENDCHAR
STARTCHAR 032D
ENCODING 813
SWIDTH 0 0
DWIDTH 0 0
BBX 2 2 -1 -2
BITMAP
C0
C0
ENDCHAR
STARTCHAR 032E
ENCODING 814
SWIDTH 0 0
DWIDTH 0 0
BBX 2 1 -1 -2
BITMAP
C0
ENDCHAR
STARTCHAR 032F
ENCODING 815
SWIDTH 0 0
DWIDTH 0 0
BBX 4 1 -2 -2
BITMAP
F0
ENDCHAR
STARTCHAR 0330
ENCODING 816
SWIDTH 0 0
DWIDTH 0 0
BBX 4 1 -2 -2
BITMAP
F0
ENDCHAR
STARTCHAR 0331
ENCODING 817
SWIDTH 0 0
DWIDTH 0 0
BBX 4 1 -2 -2
BITMAP
F0
ENDCHAR
STARTCHAR 0332
ENCODING 818
SWIDTH 0 0
DWIDTH 0 0
BBX 4 1 -2 -2
BITMAP
F0
ENDCHAR
STARTCHAR 0333
ENCODING 819
SWIDTH 0 0
DWIDTH 0 0
BBX 4 2 -2 -2
BITMAP
F0
F0
ENDCHAR
STARTCHAR 0334
ENCODING 820
SWIDTH 0 0
DWIDTH 0 0
BBX 4 2 -2 2
BITMAP
50
B0
ENDCHAR
STARTCHAR 0335
ENCODING 821
SWIDTH 0 0
DWIDTH 0 0
BBX 4 1 -2 3
BITMAP
F0
ENDCHAR
STARTCHAR 0336
ENCODING 822
SWIDTH 0 0
DWIDTH 0 0
BBX 8 1 -4 3
BITMAP
FF
ENDCHAR
STARTCHAR 0337
ENCODING 823
SWIDTH 0 0
DWIDTH 0 0
BBX 2 2 -1 2
BITMAP
40
80
ENDCHAR
STARTCHAR 0338
ENCODING 824
SWIDTH 0 0
DWIDTH 0 0
BBX 4 9 -2 -1
BITMAP
10
20
20
20
40
40
80
80
80
ENDCHAR
STARTCHAR 0339
ENCODING 825
SWIDTH 0 0
DWIDTH 0 0
BBX 2 2 -1 -3
BITMAP
80
40
ENDCHAR
STARTCHAR 033A
ENCODING 826
SWIDTH 0 0
DWIDTH 0 0
BBX 4 1 -2 -2
BITMAP
F0
ENDCHAR
STARTCHAR 033B
ENCODING 827
SWIDTH 0 0
DWIDTH 0 0
BBX 4 3 -2 -3
BITMAP
F0
90
F0
ENDCHAR
STARTCHAR 033C
ENCODING 828
SWIDTH 0 0
DWIDTH 0 0
BBX 4 1 -2 -2
BITMAP
F0
ENDCHAR
STARTCHAR 033D
ENCODING 829
SWIDTH 0 0
DWIDTH 0 0
BBX 2 2 -1 7
BITMAP
C0
40
ENDCHAR
STARTCHAR 033E
ENCODING 830
SWIDTH 0 0
DWIDTH 0 0
BBX 2 4 -1 6
BITMAP
40
80
40
80
ENDCHAR
STARTCHAR 033F
ENCODING 831
SWIDTH 0 0
DWIDTH 0 0
BBX 4 3 -2 8
BITMAP
F0
00
F0
ENDCHAR
STARTCHAR 0340
ENCODING 832
SWIDTH 0 0
DWIDTH 0 0
BBX 2 2 -2 7
BITMAP
80
40
ENDCHAR
STARTCHAR 0341
ENCODING 833
SWIDTH 0 0
DWIDTH 0 0
BBX 2 2 0 7
BITMAP
40
80
ENDCHAR
STARTCHAR 0342
ENCODING 834
SWIDTH 0 0
DWIDTH 0 0
BBX 4 1 -2 7
BITMAP
F0
ENDCHAR
STARTCHAR 0343
ENCODING 835
SWIDTH 0 0
DWIDTH 0 0
BBX 2 2 -1 7
BITMAP
80
40
ENDCHAR
STARTCHAR 0344
ENCODING 836
SWIDTH 0 0
DWIDTH 0 0
BBX 4 2 -2 7
BITMAP
20
B0
ENDCHAR
STARTCHAR 0345
ENCODING 837
SWIDTH 0 0
DWIDTH 0 0
BBX 1 2 0 -3
BITMAP
80
80
ENDCHAR
STARTCHAR 0346
ENCODING 838
SWIDTH 0 0
DWIDTH 0 0
BBX 4 1 -2 7
BITMAP
F0
ENDCHAR
STARTCHAR 0347
ENCODING 839
SWIDTH 0 0
DWIDTH 0 0
BBX 4 2 -2 -2
BITMAP
F0
F0
ENDCHAR
STARTCHAR 0348
ENCODING 840
SWIDTH 0 0
DWIDTH 0 0
BBX 2 2 -1 -2
BITMAP
C0
C0
ENDCHAR
STARTCHAR 0349
ENCODING 841
SWIDTH 0 0
DWIDTH 0 0
BBX 2 2 -1 -3
BITMAP
C0
40
ENDCHAR
STARTCHAR 034A
ENCODING 842
SWIDTH 0 0
DWIDTH 0 0
BBX 4 2 -2 7
BITMAP
F0
40
ENDCHAR
STARTCHAR 034B
ENCODING 843
SWIDTH 0 0
DWIDTH 0 0
BBX 4 2 -2 7
BITMAP
D0
20
ENDCHAR
STARTCHAR 034C
ENCODING 844
SWIDTH 0 0
DWIDTH 0 0
BBX 4 3 -2 7
BITMAP
50
A0
F0
ENDCHAR
STARTCHAR 034D
ENCODING 845
SWIDTH 0 0
DWIDTH 0 0
BBX 4 1 -2 -1
BITMAP
F0
ENDCHAR
STARTCHAR 034E
ENCODING 846
SWIDTH 0 0
DWIDTH 0 0
BBX 2 1 -1 -2
BITMAP
C0
ENDCHAR
STARTCHAR 034F
ENCODING 847
SWIDTH 0 0
DWIDTH 0 0
BBX 8 8 -4 0
BITMAP
DB
81
24
81
81
00
81
DB
ENDCHAR
STARTCHAR 0350
ENCODING 848
SWIDTH 0 0
DWIDTH 0 0
BBX 2 2 -1 7
BITMAP
80
40
ENDCHAR
STARTCHAR 0351
ENCODING 849
SWIDTH 0 0
DWIDTH 0 0
BBX 2 2 -1 7
BITMAP
40
80
ENDCHAR
STARTCHAR 0352
ENCODING 850
SWIDTH 0 0
DWIDTH 0 0
BBX 4 2 -2 7
BITMAP
F0
60
ENDCHAR
STARTCHAR 0353
ENCODING 851
SWIDTH 0 0
DWIDTH 0 0
BBX 2 2 -1 -2
BITMAP
C0
C0
ENDCHAR
STARTCHAR 0354
ENCODING 852
SWIDTH 0 0
DWIDTH 0 0
BBX 2 2 -1 -2
BITMAP
80
40
ENDCHAR
STARTCHAR 0355
ENCODING 853
SWIDTH 0 0
DWIDTH 0 0
BBX 2 2 -1 -2
BITMAP
C0
80
ENDCHAR
STARTCHAR 0356
ENCODING 854
SWIDTH 0 0
DWIDTH 0 0
BBX 4 2 -2 -2
BITMAP
F0
A0
ENDCHAR
STARTCHAR 0357
ENCODING 855
SWIDTH 0 0
DWIDTH 0 0
BBX 2 2 -1 7
BITMAP
80
40
ENDCHAR
STARTCHAR 0358
ENCODING 856
SWIDTH 0 0
DWIDTH 0 0
BBX 2 1 1 7
BITMAP
C0
ENDCHAR
STARTCHAR 0359
ENCODING 857
SWIDTH 0 0
DWIDTH 0 0
BBX 2 2 -1 -2
BITMAP
C0
C0
ENDCHAR
STARTCHAR 035A
ENCODING 858
SWIDTH 0 0
DWIDTH 0 0
BBX 4 3 -2 -3
BITMAP
F0
D0
F0
ENDCHAR
STARTCHAR 035B
ENCODING 859
SWIDTH 0 0
DWIDTH 0 0
BBX 2 2 -1 7
BITMAP
80
C0
ENDCHAR
STARTCHAR 035C
ENCODING 860
SWIDTH 0 0
DWIDTH 0 0
BBX 8 3 -4 -3
BITMAP
81
C2
3C
ENDCHAR
STARTCHAR 035D
ENCODING 861
SWIDTH 0 0
DWIDTH 0 0
BBX 8 2 -4 7
BITMAP
81
7E
ENDCHAR
STARTCHAR 035E
ENCODING 862
SWIDTH 0 0
DWIDTH 0 0
BBX 6 1 -3 7
BITMAP
FC
ENDCHAR
STARTCHAR 035F
ENCODING 863
SWIDTH 0 0
DWIDTH 0 0
BBX 6 1 -3 -2
BITMAP
FC
ENDCHAR
STARTCHAR 0360
ENCODING 864
SWIDTH 0 0
DWIDTH 0 0
BBX 8 1 -4 7
BITMAP
FF
ENDCHAR
STARTCHAR 0361
ENCODING 865
SWIDTH 0 0
DWIDTH 0 0
BBX 8 2 -4 7
BITMAP
7E
81
ENDCHAR
STARTCHAR 0362
ENCODING 866
SWIDTH 0 0
DWIDTH 0 0
BBX 8 1 -4 -1
BITMAP
FF
ENDCHAR
STARTCHAR 0363
ENCODING 867
SWIDTH 0 0
DWIDTH 0 0
BBX 2 2 -1 7
BITMAP
40
C0
ENDCHAR
STARTCHAR 0364
ENCODING 868
SWIDTH 0 0
DWIDTH 0 0
BBX 2 2 -1 7
BITMAP
C0
80
ENDCHAR
STARTCHAR 0365
ENCODING 869
SWIDTH 0 0
DWIDTH 0 0
BBX 0 0 0 7
BITMAP
ENDCHAR
STARTCHAR 0366
ENCODING 870
SWIDTH 0 0
DWIDTH 0 0
BBX 2 2 -1 7
BITMAP
C0
C0
ENDCHAR
STARTCHAR 0367
ENCODING 871
SWIDTH 0 0
DWIDTH 0 0
BBX 2 1 -1 8
BITMAP
C0
ENDCHAR
STARTCHAR 0368
ENCODING 872
SWIDTH 0 0
DWIDTH 0 0
BBX 1 2 -1 7
BITMAP
80
80
ENDCHAR
STARTCHAR 0369
ENCODING 873
SWIDTH 0 0
DWIDTH 0 0
BBX 2 2 -1 8
BITMAP
C0
C0
ENDCHAR
STARTCHAR 036A
ENCODING 874
SWIDTH 0 0
DWIDTH 0 0
BBX 2 1 -1 8
BITMAP
C0
ENDCHAR
STARTCHAR 036B
ENCODING 875
SWIDTH 0 0
DWIDTH 0 0
BBX 4 2 -2 7
BITMAP
F0
80
ENDCHAR
STARTCHAR 036C
ENCODING 876
SWIDTH 0 0
DWIDTH 0 0
BBX 1 2 -1 7
BITMAP
80
80
ENDCHAR
STARTCHAR 036D
ENCODING 877
SWIDTH 0 0
DWIDTH 0 0
BBX 1 1 -1 8
BITMAP
80
ENDCHAR
STARTCHAR 036E
ENCODING 878
SWIDTH 0 0
DWIDTH 0 0
BBX 2 2 -1 7
BITMAP
80
40
ENDCHAR
STARTCHAR 036F
ENCODING 879
SWIDTH 0 0
DWIDTH 0 0
BBX 2 2 -1 7
BITMAP
C0
C0
ENDCHAR
STARTCHAR 0370
ENCODING 880
SWIDTH 360 0
DWIDTH 4 0
BBX 3 8 1 0
BITMAP
80
80
80
E0
80
80
80
80
ENDCHAR
STARTCHAR 0371
ENCODING 881
SWIDTH 360 0
DWIDTH 4 0
BBX 2 6 1 0
BITMAP
80
80
80
C0
80
80
ENDCHAR
STARTCHAR 0372
ENCODING 882
SWIDTH 630 0
DWIDTH 7 0
BBX 6 8 1 0
BITMAP
FC
A4
A4
20
20
20
20
20
ENDCHAR
STARTCHAR 0373
ENCODING 883
SWIDTH 630 0
DWIDTH 7 0
BBX 5 8 1 0
BITMAP
F8
A8
20
20
20
20
20
20
ENDCHAR
STARTCHAR 0374
ENCODING 884
SWIDTH 90 0
DWIDTH 1 0
BBX 2 3 0 6
BITMAP
40
40
80
ENDCHAR
STARTCHAR 0375
ENCODING 885
SWIDTH 90 0
DWIDTH 1 0
BBX 1 2 0 -2
BITMAP
80
80
ENDCHAR
STARTCHAR 0376
ENCODING 886
SWIDTH 720 0
DWIDTH 8 0
BBX 6 8 1 0
BITMAP
84
8C
8C
94
B4
A4
C4
C4
ENDCHAR
STARTCHAR 0377
ENCODING 887
SWIDTH 630 0
DWIDTH 7 0
BBX 5 6 1 0
BITMAP
88
98
A8
A8
C8
88
ENDCHAR
STARTCHAR 037A
ENCODING 890
SWIDTH 180 0
DWIDTH 2 0
BBX 1 2 1 -3
BITMAP
80
80
ENDCHAR
STARTCHAR 037B
ENCODING 891
SWIDTH 450 0
DWIDTH 5 0
BBX 5 6 0 0
BITMAP
F0
18
08
08
10
F0
ENDCHAR
STARTCHAR 037C
ENCODING 892
SWIDTH 450 0
DWIDTH 5 0
BBX 4 6 1 0
BITMAP
70
80
A0
80
80
70
ENDCHAR
STARTCHAR 037D
ENCODING 893
SWIDTH 450 0
DWIDTH 5 0
BBX 5 6 0 0
BITMAP
F0
18
08
08
10
F0
ENDCHAR
STARTCHAR 037E
ENCODING 894
SWIDTH 180 0
DWIDTH 2 0
BBX 2 7 0 -1
BITMAP
40
00
00
00
00
40
80
ENDCHAR
STARTCHAR 037F
ENCODING 895
SWIDTH 270 0
DWIDTH 3 0
BBX 3 10 -1 -2
BITMAP
20
20
20
20
20
20
20
20
20
E0
ENDCHAR
STARTCHAR 0384
ENCODING 900
SWIDTH 180 0
DWIDTH 2 0
BBX 1 2 1 7
BITMAP
80
80
ENDCHAR
STARTCHAR 0385
ENCODING 901
SWIDTH 630 0
DWIDTH 7 0
BBX 4 2 2 7
BITMAP
60
D0
ENDCHAR
STARTCHAR 0386
ENCODING 902
SWIDTH 630 0
DWIDTH 7 0
BBX 8 8 0 0
BITMAP
48
98
14
24
22
3E
42
41
ENDCHAR
STARTCHAR 0387
ENCODING 903
SWIDTH 180 0
DWIDTH 2 0
BBX 1 1 1 5
BITMAP
80
ENDCHAR
STARTCHAR 0388
ENCODING 904
SWIDTH 720 0
DWIDTH 8 0
BBX 7 8 0 0
BITMAP
5E
90
10
1E
10
10
10
1E
ENDCHAR
STARTCHAR 0389
ENCODING 905
SWIDTH 900 0
DWIDTH 10 0
BBX 9 8 0 0
BITMAP
5080
9080
1080
1F80
1080
1080
1080
1080
ENDCHAR
STARTCHAR 038A
ENCODING 906
SWIDTH 450 0
DWIDTH 5 0
BBX 5 8 0 0
BITMAP
78
90
10
10
10
10
10
38
ENDCHAR
STARTCHAR 038C
ENCODING 908
SWIDTH 810 0
DWIDTH 9 0
BBX 9 8 0 0
BITMAP
4F00
9180
2080
2080
2080
2080
1180
1F00
ENDCHAR
STARTCHAR 038E
ENCODING 910
SWIDTH 720 0
DWIDTH 8 0
BBX 8 8 0 0
BITMAP
51
91
0A
0A
04
04
04
04
ENDCHAR
STARTCHAR 038F
ENCODING 911
SWIDTH 810 0
DWIDTH 9 0
BBX 9 8 0 0
BITMAP
5E00
B100
2080
2080
2080
2080
1100
3B80
ENDCHAR
STARTCHAR 0390
ENCODING 912
SWIDTH 270 0
DWIDTH 3 0
BBX 4 9 0 0
BITMAP
20
D0
00
40
40
40
40
40
60
ENDCHAR
STARTCHAR 0391
ENCODING 913
SWIDTH 630 0
DWIDTH 7 0
BBX 7 8 0 0
BITMAP
10
28
28
28
44
7C
46
82
ENDCHAR
STARTCHAR 0392
ENCODING 914
SWIDTH 630 0
DWIDTH 7 0
BBX 6 8 1 0
BITMAP
F8
88
88
F8
88
84
8C
F8
ENDCHAR
STARTCHAR 0393
ENCODING 915
SWIDTH 450 0
DWIDTH 5 0
BBX 4 8 1 0
BITMAP
F0
80
80
80
80
80
80
80
ENDCHAR
STARTCHAR 0394
ENCODING 916
SWIDTH 630 0
DWIDTH 7 0
BBX 7 8 0 0
BITMAP
10
28
28
28
44
44
82
FE
ENDCHAR
STARTCHAR 0395
ENCODING 917
SWIDTH 540 0
DWIDTH 6 0
BBX 5 8 1 0
BITMAP
F8
80
80
F0
80
80
80
F8
ENDCHAR
STARTCHAR 0396
ENCODING 918
SWIDTH 540 0
DWIDTH 6 0
BBX 6 8 0 0
BITMAP
7C
08
08
10
20
20
40
FC
ENDCHAR
STARTCHAR 0397
ENCODING 919
SWIDTH 720 0
DWIDTH 8 0
BBX 6 8 1 0
BITMAP
84
84
84
FC
84
84
84
84
ENDCHAR
STARTCHAR 0398
ENCODING 920
SWIDTH 720 0
DWIDTH 8 0
BBX 7 8 1 0
BITMAP
78
C4
82
82
BA
82
84
7C
ENDCHAR
STARTCHAR 0399
ENCODING 921
SWIDTH 270 0
DWIDTH 3 0
BBX 3 8 0 0
BITMAP
E0
40
40
40
40
40
40
E0
ENDCHAR
STARTCHAR 039A
ENCODING 922
SWIDTH 540 0
DWIDTH 6 0
BBX 6 8 1 0
BITMAP
88
90
B0
E0
E0
90
88
8C
ENDCHAR
STARTCHAR 039B
ENCODING 923
SWIDTH 540 0
DWIDTH 6 0
BBX 7 8 0 0
BITMAP
10
30
28
28
48
44
44
82
ENDCHAR
STARTCHAR 039C
ENCODING 924
SWIDTH 900 0
DWIDTH 10 0
BBX 8 8 1 0
BITMAP
C3
C3
C5
A5
A5
99
99
99
ENDCHAR
STARTCHAR 039D
ENCODING 925
SWIDTH 720 0
DWIDTH 8 0
BBX 6 8 1 0
BITMAP
C4
C4
A4
A4
94
8C
8C
84
ENDCHAR
STARTCHAR 039E
ENCODING 926
SWIDTH 540 0
DWIDTH 6 0
BBX 5 8 1 0
BITMAP
F8
00
00
F8
00
00
00
F8
ENDCHAR
STARTCHAR 039F
ENCODING 927
SWIDTH 720 0
DWIDTH 8 0
BBX 7 8 1 0
BITMAP
78
C4
82
82
82
82
84
7C
ENDCHAR
STARTCHAR 03A0
ENCODING 928
SWIDTH 720 0
DWIDTH 8 0
BBX 6 8 1 0
BITMAP
FC
84
84
84
84
84
84
84
ENDCHAR
STARTCHAR 03A1
ENCODING 929
SWIDTH 540 0
DWIDTH 6 0
BBX 5 8 1 0
BITMAP
F0
88
88
88
F0
80
80
80
ENDCHAR
STARTCHAR 03A3
ENCODING 931
SWIDTH 540 0
DWIDTH 6 0
BBX 6 8 0 0
BITMAP
7C
40
20
10
10
20
40
FC
ENDCHAR
STARTCHAR 03A4
ENCODING 932
SWIDTH 540 0
DWIDTH 6 0
BBX 6 8 0 0
BITMAP
FC
10
10
10
10
10
10
10
ENDCHAR
STARTCHAR 03A5
ENCODING 933
SWIDTH 540 0
DWIDTH 6 0
BBX 6 8 0 0
BITMAP
84
4C
48
30
30
10
10
10
ENDCHAR
STARTCHAR 03A6
ENCODING 934
SWIDTH 810 0
DWIDTH 9 0
BBX 8 8 1 0
BITMAP
10
7E
93
91
91
92
7C
10
ENDCHAR
STARTCHAR 03A7
ENCODING 935
SWIDTH 540 0
DWIDTH 6 0
BBX 6 8 0 0
BITMAP
44
48
28
30
30
28
4C
84
ENDCHAR
STARTCHAR 03A8
ENCODING 936
SWIDTH 810 0
DWIDTH 9 0
BBX 7 8 1 0
BITMAP
92
92
92
92
D2
7C
10
10
ENDCHAR
STARTCHAR 03A9
ENCODING 937
SWIDTH 630 0
DWIDTH 7 0
BBX 8 8 0 0
BITMAP
3C
42
C2
81
81
42
42
E7
ENDCHAR
STARTCHAR 03AA
ENCODING 938
SWIDTH 270 0
DWIDTH 3 0
BBX 3 10 0 0
BITMAP
A0
00
E0
40
40
40
40
40
40
E0
ENDCHAR
STARTCHAR 03AB
ENCODING 939
SWIDTH 540 0
DWIDTH 6 0
BBX 6 10 0 0
BITMAP
28
00
84
4C
48
30
30
10
10
10
ENDCHAR
STARTCHAR 03AC
ENCODING 940
SWIDTH 540 0
DWIDTH 6 0
BBX 6 9 1 0
BITMAP
10
20
00
F8
88
88
88
88
FC
ENDCHAR
STARTCHAR 03AD
ENCODING 941
SWIDTH 450 0
DWIDTH 5 0
BBX 4 9 1 0
BITMAP
20
20
00
F0
80
C0
80
80
F0
ENDCHAR
STARTCHAR 03AE
ENCODING 942
SWIDTH 540 0
DWIDTH 6 0
BBX 5 12 1 -3
BITMAP
20
20
00
F0
88
88
88
88
88
08
08
08
ENDCHAR
STARTCHAR 03AF
ENCODING 943
SWIDTH 270 0
DWIDTH 3 0
BBX 2 9 1 0
BITMAP
40
80
00
80
80
80
80
80
C0
ENDCHAR
STARTCHAR 03B0
ENCODING 944
SWIDTH 540 0
DWIDTH 6 0
BBX 5 9 1 0
BITMAP
20
70
00
88
88
88
88
88
F0
ENDCHAR
STARTCHAR 03B1
ENCODING 945
SWIDTH 540 0
DWIDTH 6 0
BBX 6 6 1 0
BITMAP
F8
88
88
88
88
FC
ENDCHAR
STARTCHAR 03B2
ENCODING 946
SWIDTH 540 0
DWIDTH 6 0
BBX 5 12 1 -3
BITMAP
20
D8
88
88
B0
98
88
88
F0
80
80
80
ENDCHAR
STARTCHAR 03B3
ENCODING 947
SWIDTH 450 0
DWIDTH 5 0
BBX 5 8 0 -2
BITMAP
88
48
48
48
30
30
20
20
ENDCHAR
STARTCHAR 03B4
ENCODING 948
SWIDTH 540 0
DWIDTH 6 0
BBX 6 8 0 1
BITMAP
3C
40
30
68
44
C4
44
78
ENDCHAR
STARTCHAR 03B5
ENCODING 949
SWIDTH 450 0
DWIDTH 5 0
BBX 4 6 1 0
BITMAP
F0
80
C0
80
80
F0
ENDCHAR
STARTCHAR 03B6
ENCODING 950
SWIDTH 450 0
DWIDTH 5 0
BBX 4 10 1 -2
BITMAP
F0
20
40
40
80
80
80
E0
10
10
ENDCHAR
STARTCHAR 03B7
ENCODING 951
SWIDTH 540 0
DWIDTH 6 0
BBX 5 9 1 -3
BITMAP
F0
88
88
88
88
88
08
08
08
ENDCHAR
STARTCHAR 03B8
ENCODING 952
SWIDTH 540 0
DWIDTH 6 0
BBX 5 8 1 1
BITMAP
F0
88
88
F8
88
88
88
70
ENDCHAR
STARTCHAR 03B9
ENCODING 953
SWIDTH 270 0
DWIDTH 3 0
BBX 2 6 1 0
BITMAP
80
80
80
80
80
C0
ENDCHAR
STARTCHAR 03BA
ENCODING 954
SWIDTH 450 0
DWIDTH 5 0
BBX 4 6 1 0
BITMAP
90
A0
E0
A0
90
90
ENDCHAR
STARTCHAR 03BB
ENCODING 955
SWIDTH 450 0
DWIDTH 5 0
BBX 6 8 0 1
BITMAP
E0
20
20
30
50
48
48
8C
ENDCHAR
STARTCHAR 03BC
ENCODING 956
SWIDTH 540 0
DWIDTH 6 0
BBX 6 9 1 -3
BITMAP
88
88
88
88
88
FC
80
80
80
ENDCHAR
STARTCHAR 03BD
ENCODING 957
SWIDTH 450 0
DWIDTH 5 0
BBX 5 6 0 0
BITMAP
88
48
48
48
30
30
ENDCHAR
STARTCHAR 03BE
ENCODING 958
SWIDTH 450 0
DWIDTH 5 0
BBX 4 10 1 -2
BITMAP
F0
80
80
70
80
80
80
E0
10
10
ENDCHAR
STARTCHAR 03BF
ENCODING 959
SWIDTH 540 0
DWIDTH 6 0
BBX 5 6 1 0
BITMAP
70
88
88
88
88
70
ENDCHAR
STARTCHAR 03C0
ENCODING 960
SWIDTH 630 0
DWIDTH 7 0
BBX 7 6 0 0
BITMAP
FE
44
44
44
44
46
ENDCHAR
STARTCHAR 03C1
ENCODING 961
SWIDTH 540 0
DWIDTH 6 0
BBX 5 9 1 -3
BITMAP
70
88
88
88
88
F0
80
80
80
ENDCHAR
STARTCHAR 03C2
ENCODING 962
SWIDTH 450 0
DWIDTH 5 0
BBX 4 8 1 -2
BITMAP
70
80
80
80
80
60
10
10
ENDCHAR
STARTCHAR 03C3
ENCODING 963
SWIDTH 540 0
DWIDTH 6 0
BBX 5 6 1 0
BITMAP
78
88
88
88
88
70
ENDCHAR
STARTCHAR 03C4
ENCODING 964
SWIDTH 450 0
DWIDTH 5 0
BBX 5 6 0 0
BITMAP
F8
20
20
20
20
38
ENDCHAR
STARTCHAR 03C5
ENCODING 965
SWIDTH 540 0
DWIDTH 6 0
BBX 5 6 1 0
BITMAP
88
88
88
88
88
F0
ENDCHAR
STARTCHAR 03C6
ENCODING 966
SWIDTH 720 0
DWIDTH 8 0
BBX 6 11 1 -3
BITMAP
10
10
78
94
94
94
94
78
10
10
10
ENDCHAR
STARTCHAR 03C7
ENCODING 967
SWIDTH 540 0
DWIDTH 6 0
BBX 7 9 0 -3
BITMAP
C4
44
28
30
10
30
28
48
86
ENDCHAR
STARTCHAR 03C8
ENCODING 968
SWIDTH 720 0
DWIDTH 8 0
BBX 7 11 1 -3
BITMAP
10
10
94
94
92
92
94
78
10
10
10
ENDCHAR
STARTCHAR 03C9
ENCODING 969
SWIDTH 720 0
DWIDTH 8 0
BBX 7 6 1 0
BITMAP
82
82
92
92
92
EC
ENDCHAR
STARTCHAR 03CA
ENCODING 970
SWIDTH 270 0
DWIDTH 3 0
BBX 3 8 0 0
BITMAP
A0
00
40
40
40
40
40
60
ENDCHAR
STARTCHAR 03CB
ENCODING 971
SWIDTH 540 0
DWIDTH 6 0
BBX 5 8 1 0
BITMAP
50
00
88
88
88
88
88
F0
ENDCHAR
STARTCHAR 03CC
ENCODING 972
SWIDTH 540 0
DWIDTH 6 0
BBX 5 9 1 0
BITMAP
10
20
00
70
88
88
88
88
70
ENDCHAR
STARTCHAR 03CD
ENCODING 973
SWIDTH 540 0
DWIDTH 6 0
BBX 5 9 1 0
BITMAP
30
20
00
88
88
88
88
88
F0
ENDCHAR
STARTCHAR 03CE
ENCODING 974
SWIDTH 720 0
DWIDTH 8 0
BBX 7 9 1 0
BITMAP
08
10
00
82
82
92
92
92
EC
ENDCHAR
STARTCHAR 03CF
ENCODING 975
SWIDTH 540 0
DWIDTH 6 0
BBX 6 11 1 -3
BITMAP
88
90
B0
A0
E0
90
88
8C
04
88
70
ENDCHAR
STARTCHAR 03D0
ENCODING 976
SWIDTH 630 0
DWIDTH 7 0
BBX 6 8 1 1
BITMAP
78
C8
B0
F8
88
84
88
78
ENDCHAR
STARTCHAR 03D1
ENCODING 977
SWIDTH 540 0
DWIDTH 6 0
BBX 6 8 0 1
BITMAP
78
44
24
DC
44
44
44
78
ENDCHAR
STARTCHAR 03D2
ENCODING 978
SWIDTH 540 0
DWIDTH 6 0
BBX 6 8 0 0
BITMAP
84
48
48
30
30
10
10
10
ENDCHAR
STARTCHAR 03D3
ENCODING 979
SWIDTH 720 0
DWIDTH 8 0
BBX 9 8 0 0
BITMAP
5180
9100
0A00
0A00
0400
0400
0400
0400
ENDCHAR
STARTCHAR 03D4
ENCODING 980
SWIDTH 540 0
DWIDTH 6 0
BBX 6 10 0 0
BITMAP
28
00
84
48
48
30
30
10
10
10
ENDCHAR
STARTCHAR 03D5
ENCODING 981
SWIDTH 720 0
DWIDTH 8 0
BBX 6 11 1 -3
BITMAP
10
10
78
94
94
94
94
78
10
10
10
ENDCHAR
STARTCHAR 03D6
ENCODING 982
SWIDTH 810 0
DWIDTH 9 0
BBX 9 6 0 0
BITMAP
FF80
4100
4900
4900
4900
3700
ENDCHAR
STARTCHAR 03D7
ENCODING 983
SWIDTH 450 0
DWIDTH 5 0
BBX 5 8 1 -2
BITMAP
90
A0
E0
A0
90
90
08
F0
ENDCHAR
STARTCHAR 03D8
ENCODING 984
SWIDTH 720 0
DWIDTH 8 0
BBX 7 8 1 0
BITMAP
78
84
82
82
82
CC
30
10
ENDCHAR
STARTCHAR 03D9
ENCODING 985
SWIDTH 540 0
DWIDTH 6 0
BBX 5 9 1 -3
BITMAP
70
88
88
88
88
70
20
20
20
ENDCHAR
STARTCHAR 03DA
ENCODING 986
SWIDTH 630 0
DWIDTH 7 0
BBX 6 8 1 0
BITMAP
7C
80
80
80
80
60
10
10
ENDCHAR
STARTCHAR 03DB
ENCODING 987
SWIDTH 450 0
DWIDTH 5 0
BBX 4 8 1 -2
BITMAP
70
80
80
80
80
60
10
70
ENDCHAR
STARTCHAR 03DC
ENCODING 988
SWIDTH 450 0
DWIDTH 5 0
BBX 4 8 1 0
BITMAP
F0
80
80
80
F0
90
80
80
ENDCHAR
STARTCHAR 03DD
ENCODING 989
SWIDTH 450 0
DWIDTH 5 0
BBX 4 9 1 -3
BITMAP
F0
80
80
F0
90
90
80
80
80
ENDCHAR
STARTCHAR 03DE
ENCODING 990
SWIDTH 450 0
DWIDTH 5 0
BBX 5 8 0 0
BITMAP
C0
40
40
78
08
10
10
18
ENDCHAR
STARTCHAR 03DF
ENCODING 991
SWIDTH 540 0
DWIDTH 6 0
BBX 5 11 1 -2
BITMAP
C0
40
80
80
F8
10
10
20
20
20
10
ENDCHAR
STARTCHAR 03E0
ENCODING 992
SWIDTH 540 0
DWIDTH 6 0
BBX 6 8 0 0
BITMAP
F0
18
6C
0C
34
04
04
08
ENDCHAR
STARTCHAR 03E1
ENCODING 993
SWIDTH 450 0
DWIDTH 5 0
BBX 6 11 -1 -2
BITMAP
E0
10
08
38
04
3C
04
04
04
04
08
ENDCHAR
STARTCHAR 03F0
ENCODING 1008
SWIDTH 630 0
DWIDTH 7 0
BBX 7 6 0 0
BITMAP
C6
24
2C
34
24
46
ENDCHAR
STARTCHAR 03F1
ENCODING 1009
SWIDTH 540 0
DWIDTH 6 0
BBX 5 9 1 -3
BITMAP
70
88
88
88
88
F0
80
70
10
ENDCHAR
STARTCHAR 03F2
ENCODING 1010
SWIDTH 450 0
DWIDTH 5 0
BBX 4 6 1 0
BITMAP
70
80
80
80
80
70
ENDCHAR
STARTCHAR 03F3
ENCODING 1011
SWIDTH 180 0
DWIDTH 2 0
BBX 3 11 -1 -3
BITMAP
20
00
20
20
20
20
20
20
20
20
C0
ENDCHAR
STARTCHAR 03F4
ENCODING 1012
SWIDTH 720 0
DWIDTH 8 0
BBX 7 8 1 0
BITMAP
78
C4
82
82
FE
82
84
7C
ENDCHAR
STARTCHAR 03F5
ENCODING 1013
SWIDTH 450 0
DWIDTH 5 0
BBX 4 6 1 0
BITMAP
70
80
80
E0
80
70
ENDCHAR
STARTCHAR 03F6
ENCODING 1014
SWIDTH 450 0
DWIDTH 5 0
BBX 5 6 0 0
BITMAP
F0
08
08
78
08
F0
ENDCHAR
STARTCHAR 03F7
ENCODING 1015
SWIDTH 540 0
DWIDTH 6 0
BBX 5 8 1 0
BITMAP
80
E0
98
88
88
F0
80
80
ENDCHAR
STARTCHAR 03F8
ENCODING 1016
SWIDTH 540 0
DWIDTH 6 0
BBX 5 11 1 -3
BITMAP
80
80
F0
88
88
88
88
F0
80
80
80
ENDCHAR
STARTCHAR 03F9
ENCODING 1017
SWIDTH 630 0
DWIDTH 7 0
BBX 6 8 1 0
BITMAP
7C
C0
80
80
80
80
C0
78
ENDCHAR
STARTCHAR 03FA
ENCODING 1018
SWIDTH 900 0
DWIDTH 10 0
BBX 8 8 1 0
BITMAP
C3
C3
A5
B5
99
81
81
81
ENDCHAR
STARTCHAR 03FB
ENCODING 1019
SWIDTH 720 0
DWIDTH 8 0
BBX 6 9 1 -3
BITMAP
84
CC
B4
B4
84
84
80
80
80
ENDCHAR
STARTCHAR 03FC
ENCODING 1020
SWIDTH 540 0
DWIDTH 6 0
BBX 6 9 0 -3
BITMAP
38
44
44
44
44
78
40
F0
40
ENDCHAR
STARTCHAR 03FD
ENCODING 1021
SWIDTH 630 0
DWIDTH 7 0
BBX 6 8 0 0
BITMAP
F8
0C
04
04
04
04
0C
78
ENDCHAR
STARTCHAR 03FE
ENCODING 1022
SWIDTH 630 0
DWIDTH 7 0
BBX 6 8 1 0
BITMAP
7C
C0
80
90
90
80
C0
78
ENDCHAR
STARTCHAR 03FF
ENCODING 1023
SWIDTH 630 0
DWIDTH 7 0
BBX 6 8 0 0
BITMAP
F8
0C
04
24
24
04
0C
78
ENDCHAR
STARTCHAR 0400
ENCODING 1024
SWIDTH 540 0
DWIDTH 6 0
BBX 5 11 1 0
BITMAP
40
20
00
F8
80
80
F0
80
80
80
F8
ENDCHAR
STARTCHAR 0401
ENCODING 1025
SWIDTH 540 0
DWIDTH 6 0
BBX 5 10 1 0
BITMAP
50
00
F8
80
80
F0
80
80
80
F8
ENDCHAR
STARTCHAR 0402
ENCODING 1026
SWIDTH 720 0
DWIDTH 8 0
BBX 7 8 0 0
BITMAP
F8
20
20
3E
22
22
22
26
ENDCHAR
STARTCHAR 0403
ENCODING 1027
SWIDTH 450 0
DWIDTH 5 0
BBX 5 11 1 0
BITMAP
10
20
00
F8
80
80
80
80
80
80
80
ENDCHAR
STARTCHAR 0404
ENCODING 1028
SWIDTH 630 0
DWIDTH 7 0
BBX 6 8 1 0
BITMAP
7C
C0
80
F8
80
80
80
7C
ENDCHAR
STARTCHAR 0405
ENCODING 1029
SWIDTH 540 0
DWIDTH 6 0
BBX 5 8 1 0
BITMAP
F0
80
80
C0
30
08
18
F0
ENDCHAR
STARTCHAR 0406
ENCODING 1030
SWIDTH 270 0
DWIDTH 3 0
BBX 3 8 0 0
BITMAP
E0
40
40
40
40
40
40
E0
ENDCHAR
STARTCHAR 0407
ENCODING 1031
SWIDTH 270 0
DWIDTH 3 0
BBX 3 10 0 0
BITMAP
A0
00
E0
40
40
40
40
40
40
E0
ENDCHAR
STARTCHAR 0408
ENCODING 1032
SWIDTH 270 0
DWIDTH 3 0
BBX 3 10 -1 -2
BITMAP
20
20
20
20
20
20
20
20
20
E0
ENDCHAR
STARTCHAR 0409
ENCODING 1033
SWIDTH 900 0
DWIDTH 10 0
BBX 10 8 0 0
BITMAP
3C00
2400
2400
2700
24C0
2440
4440
C780
ENDCHAR
STARTCHAR 040A
ENCODING 1034
SWIDTH 900 0
DWIDTH 10 0
BBX 9 8 1 0
BITMAP
8800
8800
8800
FE00
8980
8880
8880
8F00
ENDCHAR
STARTCHAR 040B
ENCODING 1035
SWIDTH 720 0
DWIDTH 8 0
BBX 7 8 0 0
BITMAP
FC
20
20
3E
22
22
22
22
ENDCHAR
STARTCHAR 040C
ENCODING 1036
SWIDTH 540 0
DWIDTH 6 0
BBX 5 11 1 0
BITMAP
10
10
00
88
90
B0
E0
A0
B0
98
88
ENDCHAR
STARTCHAR 040D
ENCODING 1037
SWIDTH 720 0
DWIDTH 8 0
BBX 6 11 1 0
BITMAP
20
10
00
84
8C
8C
94
B4
A4
C4
C4
ENDCHAR
STARTCHAR 040E
ENCODING 1038
SWIDTH 540 0
DWIDTH 6 0
BBX 7 10 0 0
BITMAP
28
10
82
44
44
28
28
18
10
60
ENDCHAR
STARTCHAR 040F
ENCODING 1039
SWIDTH 720 0
DWIDTH 8 0
BBX 6 10 1 -2
BITMAP
84
84
84
84
84
84
84
FC
10
10
ENDCHAR
STARTCHAR 0410
ENCODING 1040
SWIDTH 630 0
DWIDTH 7 0
BBX 7 8 0 0
BITMAP
10
28
28
28
44
7C
46
82
ENDCHAR
STARTCHAR 0411
ENCODING 1041
SWIDTH 540 0
DWIDTH 6 0
BBX 5 8 1 0
BITMAP
F8
80
80
E0
98
88
88
F0
ENDCHAR
STARTCHAR 0412
ENCODING 1042
SWIDTH 630 0
DWIDTH 7 0
BBX 6 8 1 0
BITMAP
F8
88
88
F8
88
84
8C
F8
ENDCHAR
STARTCHAR 0413
ENCODING 1043
SWIDTH 450 0
DWIDTH 5 0
BBX 5 8 1 0
BITMAP
F8
80
80
80
80
80
80
80
ENDCHAR
STARTCHAR 0414
ENCODING 1044
SWIDTH 630 0
DWIDTH 7 0
BBX 7 10 0 -2
BITMAP
1C
14
24
24
24
44
44
FE
82
82
ENDCHAR
STARTCHAR 0415
ENCODING 1045
SWIDTH 540 0
DWIDTH 6 0
BBX 5 8 1 0
BITMAP
F8
80
80
F0
80
80
80
F8
ENDCHAR
STARTCHAR 0416
ENCODING 1046
SWIDTH 810 0
DWIDTH 9 0
BBX 9 8 0 0
BITMAP
C880
4900
2A00
1A00
1E00
2B00
4900
C880
ENDCHAR
STARTCHAR 0417
ENCODING 1047
SWIDTH 540 0
DWIDTH 6 0
BBX 6 8 0 0
BITMAP
78
04
04
78
08
04
04
F8
ENDCHAR
STARTCHAR 0418
ENCODING 1048
SWIDTH 720 0
DWIDTH 8 0
BBX 6 8 1 0
BITMAP
84
8C
8C
94
B4
A4
C4
C4
ENDCHAR
STARTCHAR 0419
ENCODING 1049
SWIDTH 720 0
DWIDTH 8 0
BBX 6 10 1 0
BITMAP
28
10
84
8C
8C
94
B4
A4
C4
C4
ENDCHAR
STARTCHAR 041A
ENCODING 1050
SWIDTH 540 0
DWIDTH 6 0
BBX 5 8 1 0
BITMAP
88
90
B0
E0
A0
B0
98
88
ENDCHAR
STARTCHAR 041B
ENCODING 1051
SWIDTH 630 0
DWIDTH 7 0
BBX 7 8 0 0
BITMAP
3E
22
22
22
22
22
42
C2
ENDCHAR
STARTCHAR 041C
ENCODING 1052
SWIDTH 900 0
DWIDTH 10 0
BBX 8 8 1 0
BITMAP
C3
C3
C5
A5
A5
99
99
99
ENDCHAR
STARTCHAR 041D
ENCODING 1053
SWIDTH 720 0
DWIDTH 8 0
BBX 6 8 1 0
BITMAP
84
84
84
FC
84
84
84
84
ENDCHAR
STARTCHAR 041E
ENCODING 1054
SWIDTH 720 0
DWIDTH 8 0
BBX 7 8 1 0
BITMAP
78
C4
82
82
82
82
84
7C
ENDCHAR
STARTCHAR 041F
ENCODING 1055
SWIDTH 720 0
DWIDTH 8 0
BBX 6 8 1 0
BITMAP
FC
84
84
84
84
84
84
84
ENDCHAR
STARTCHAR 0420
ENCODING 1056
SWIDTH 540 0
DWIDTH 6 0
BBX 5 8 1 0
BITMAP
F0
88
88
88
F0
80
80
80
ENDCHAR
STARTCHAR 0421
ENCODING 1057
SWIDTH 630 0
DWIDTH 7 0
BBX 6 8 1 0
BITMAP
7C
C0
80
80
80
80
C0
78
ENDCHAR
STARTCHAR 0422
ENCODING 1058
SWIDTH 540 0
DWIDTH 6 0
BBX 6 8 0 0
BITMAP
FC
10
10
10
10
10
10
10
ENDCHAR
STARTCHAR 0423
ENCODING 1059
SWIDTH 540 0
DWIDTH 6 0
BBX 7 8 0 0
BITMAP
82
44
44
28
28
18
10
60
ENDCHAR
STARTCHAR 0424
ENCODING 1060
SWIDTH 720 0
DWIDTH 8 0
BBX 7 8 1 0
BITMAP
10
7C
92
92
92
92
7C
10
ENDCHAR
STARTCHAR 0425
ENCODING 1061
SWIDTH 540 0
DWIDTH 6 0
BBX 6 8 0 0
BITMAP
44
48
28
30
30
28
4C
84
ENDCHAR
STARTCHAR 0426
ENCODING 1062
SWIDTH 720 0
DWIDTH 8 0
BBX 7 10 1 -2
BITMAP
84
84
84
84
84
84
84
FE
02
02
ENDCHAR
STARTCHAR 0427
ENCODING 1063
SWIDTH 630 0
DWIDTH 7 0
BBX 6 8 1 0
BITMAP
84
84
84
84
FC
04
04
04
ENDCHAR
STARTCHAR 0428
ENCODING 1064
SWIDTH 990 0
DWIDTH 11 0
BBX 9 8 1 0
BITMAP
8880
8880
8880
8880
8880
8880
8880
FF80
ENDCHAR
STARTCHAR 0429
ENCODING 1065
SWIDTH 990 0
DWIDTH 11 0
BBX 10 10 1 -2
BITMAP
8880
8880
8880
8880
8880
8880
8880
FFC0
0040
0040
ENDCHAR
STARTCHAR 042A
ENCODING 1066
SWIDTH 630 0
DWIDTH 7 0
BBX 7 8 0 0
BITMAP
E0
20
20
38
26
22
22
3C
ENDCHAR
STARTCHAR 042B
ENCODING 1067
SWIDTH 810 0
DWIDTH 9 0
BBX 7 8 1 0
BITMAP
82
82
82
E2
9A
8A
8A
F2
ENDCHAR
STARTCHAR 042C
ENCODING 1068
SWIDTH 630 0
DWIDTH 7 0
BBX 6 8 1 0
BITMAP
80
80
80
F0
88
84
88
F8
ENDCHAR
STARTCHAR 042D
ENCODING 1069
SWIDTH 630 0
DWIDTH 7 0
BBX 6 8 0 0
BITMAP
F8
0C
04
7C
04
04
0C
F8
ENDCHAR
STARTCHAR 042E
ENCODING 1070
SWIDTH 990 0
DWIDTH 11 0
BBX 10 8 1 0
BITMAP
8F00
8880
9040
F040
9040
9040
8880
8F80
ENDCHAR
STARTCHAR 042F
ENCODING 1071
SWIDTH 630 0
DWIDTH 7 0
BBX 5 8 1 0
BITMAP
78
88
88
88
78
48
88
88
ENDCHAR
STARTCHAR 0430
ENCODING 1072
SWIDTH 540 0
DWIDTH 6 0
BBX 4 6 1 0
BITMAP
F0
10
30
D0
90
F0
ENDCHAR
STARTCHAR 0431
ENCODING 1073
SWIDTH 540 0
DWIDTH 6 0
BBX 5 8 1 1
BITMAP
70
80
A0
D8
88
88
88
70
ENDCHAR
STARTCHAR 0432
ENCODING 1074
SWIDTH 540 0
DWIDTH 6 0
BBX 5 6 1 0
BITMAP
F0
88
F0
98
88
F0
ENDCHAR
STARTCHAR 0433
ENCODING 1075
SWIDTH 360 0
DWIDTH 4 0
BBX 4 6 1 0
BITMAP
F0
80
80
80
80
80
ENDCHAR
STARTCHAR 0434
ENCODING 1076
SWIDTH 540 0
DWIDTH 6 0
BBX 6 8 0 -2
BITMAP
38
28
28
28
48
FC
84
84
ENDCHAR
STARTCHAR 0435
ENCODING 1077
SWIDTH 540 0
DWIDTH 6 0
BBX 5 6 1 0
BITMAP
70
98
F8
80
80
70
ENDCHAR
STARTCHAR 0436
ENCODING 1078
SWIDTH 720 0
DWIDTH 8 0
BBX 8 6 0 0
BITMAP
49
4A
2C
3C
4A
C9
ENDCHAR
STARTCHAR 0437
ENCODING 1079
SWIDTH 450 0
DWIDTH 5 0
BBX 5 6 0 0
BITMAP
70
08
70
18
08
F0
ENDCHAR
STARTCHAR 0438
ENCODING 1080
SWIDTH 630 0
DWIDTH 7 0
BBX 5 6 1 0
BITMAP
88
98
A8
A8
C8
88
ENDCHAR
STARTCHAR 0439
ENCODING 1081
SWIDTH 630 0
DWIDTH 7 0
BBX 5 8 1 0
BITMAP
50
20
88
98
A8
A8
C8
88
ENDCHAR
STARTCHAR 043A
ENCODING 1082
SWIDTH 450 0
DWIDTH 5 0
BBX 4 6 1 0
BITMAP
90
A0
C0
E0
A0
90
ENDCHAR
STARTCHAR 043B
ENCODING 1083
SWIDTH 540 0
DWIDTH 6 0
BBX 5 6 0 0
BITMAP
38
28
28
48
48
C8
ENDCHAR
STARTCHAR 043C
ENCODING 1084
SWIDTH 720 0
DWIDTH 8 0
BBX 6 6 1 0
BITMAP
84
CC
CC
AC
B4
94
ENDCHAR
STARTCHAR 043D
ENCODING 1085
SWIDTH 630 0
DWIDTH 7 0
BBX 5 6 1 0
BITMAP
88
88
88
F8
88
88
ENDCHAR
STARTCHAR 043E
ENCODING 1086
SWIDTH 540 0
DWIDTH 6 0
BBX 5 6 1 0
BITMAP
70
88
88
88
88
70
ENDCHAR
STARTCHAR 043F
ENCODING 1087
SWIDTH 540 0
DWIDTH 6 0
BBX 5 6 1 0
BITMAP
F8
88
88
88
88
88
ENDCHAR
STARTCHAR 0440
ENCODING 1088
SWIDTH 540 0
DWIDTH 6 0
BBX 5 9 1 -3
BITMAP
F0
88
88
88
88
F0
80
80
80
ENDCHAR
STARTCHAR 0441
ENCODING 1089
SWIDTH 450 0
DWIDTH 5 0
BBX 4 6 1 0
BITMAP
70
80
80
80
80
70
ENDCHAR
STARTCHAR 0442
ENCODING 1090
SWIDTH 450 0
DWIDTH 5 0
BBX 5 6 0 0
BITMAP
F8
20
20
20
20
20
ENDCHAR
STARTCHAR 0443
ENCODING 1091
SWIDTH 450 0
DWIDTH 5 0
BBX 5 9 0 -3
BITMAP
88
48
48
50
30
30
20
20
C0
ENDCHAR
STARTCHAR 0444
ENCODING 1092
SWIDTH 720 0
DWIDTH 8 0
BBX 6 11 1 -3
BITMAP
10
10
78
94
94
94
94
78
10
10
10
ENDCHAR
STARTCHAR 0445
ENCODING 1093
SWIDTH 450 0
DWIDTH 5 0
BBX 4 6 1 0
BITMAP
90
B0
60
60
90
90
ENDCHAR
STARTCHAR 0446
ENCODING 1094
SWIDTH 630 0
DWIDTH 7 0
BBX 6 8 1 -2
BITMAP
88
88
88
88
88
FC
04
04
ENDCHAR
STARTCHAR 0447
ENCODING 1095
SWIDTH 540 0
DWIDTH 6 0
BBX 5 6 1 0
BITMAP
88
88
88
F8
08
08
ENDCHAR
STARTCHAR 0448
ENCODING 1096
SWIDTH 810 0
DWIDTH 9 0
BBX 8 6 1 0
BITMAP
91
91
91
91
91
FF
ENDCHAR
STARTCHAR 0449
ENCODING 1097
SWIDTH 900 0
DWIDTH 10 0
BBX 9 8 1 -2
BITMAP
9100
9100
9100
9100
9100
FF80
0080
0080
ENDCHAR
STARTCHAR 044A
ENCODING 1098
SWIDTH 630 0
DWIDTH 7 0
BBX 7 6 0 0
BITMAP
E0
20
38
26
22
3E
ENDCHAR
STARTCHAR 044B
ENCODING 1099
SWIDTH 720 0
DWIDTH 8 0
BBX 7 6 1 0
BITMAP
82
82
E2
9A
8A
F2
ENDCHAR
STARTCHAR 044C
ENCODING 1100
SWIDTH 540 0
DWIDTH 6 0
BBX 5 6 1 0
BITMAP
80
80
E0
98
88
F0
ENDCHAR
STARTCHAR 044D
ENCODING 1101
SWIDTH 450 0
DWIDTH 5 0
BBX 5 6 0 0
BITMAP
F0
08
08
78
08
F0
ENDCHAR
STARTCHAR 044E
ENCODING 1102
SWIDTH 810 0
DWIDTH 9 0
BBX 8 6 1 0
BITMAP
9E
92
A1
E1
92
9E
ENDCHAR
STARTCHAR 044F
ENCODING 1103
SWIDTH 540 0
DWIDTH 6 0
BBX 5 6 0 0
BITMAP
78
88
48
38
48
48
ENDCHAR
STARTCHAR 0450
ENCODING 1104
SWIDTH 540 0
DWIDTH 6 0
BBX 5 9 1 0
BITMAP
40
40
00
70
98
F8
80
80
70
ENDCHAR
STARTCHAR 0451
ENCODING 1105
SWIDTH 540 0
DWIDTH 6 0
BBX 5 8 1 0
BITMAP
50
00
70
98
F8
80
80
70
ENDCHAR
STARTCHAR 0452
ENCODING 1106
SWIDTH 540 0
DWIDTH 6 0
BBX 5 11 1 -3
BITMAP
80
E0
B0
C8
88
88
88
88
08
08
10
ENDCHAR
STARTCHAR 0453
ENCODING 1107
SWIDTH 360 0
DWIDTH 4 0
BBX 4 9 1 0
BITMAP
20
20
00
F0
80
80
80
80
80
ENDCHAR
STARTCHAR 0454
ENCODING 1108
SWIDTH 450 0
DWIDTH 5 0
BBX 4 6 1 0
BITMAP
70
80
80
E0
80
70
ENDCHAR
STARTCHAR 0455
ENCODING 1109
SWIDTH 450 0
DWIDTH 5 0
BBX 4 6 1 0
BITMAP
F0
80
C0
30
10
E0
ENDCHAR
STARTCHAR 0456
ENCODING 1110
SWIDTH 180 0
DWIDTH 2 0
BBX 1 8 1 0
BITMAP
80
00
80
80
80
80
80
80
ENDCHAR
STARTCHAR 0457
ENCODING 1111
SWIDTH 180 0
DWIDTH 2 0
BBX 3 8 0 0
BITMAP
A0
00
40
40
40
40
40
40
ENDCHAR
STARTCHAR 0458
ENCODING 1112
SWIDTH 180 0
DWIDTH 2 0
BBX 3 11 -1 -3
BITMAP
20
00
20
20
20
20
20
20
20
20
C0
ENDCHAR
STARTCHAR 0459
ENCODING 1113
SWIDTH 810 0
DWIDTH 9 0
BBX 9 6 0 0
BITMAP
3800
2800
2E00
4980
4880
CF00
ENDCHAR
STARTCHAR 045A
ENCODING 1114
SWIDTH 810 0
DWIDTH 9 0
BBX 8 6 1 0
BITMAP
88
88
8C
FB
89
8F
ENDCHAR
STARTCHAR 045B
ENCODING 1115
SWIDTH 540 0
DWIDTH 6 0
BBX 5 8 1 0
BITMAP
80
E0
B0
C8
88
88
88
88
ENDCHAR
STARTCHAR 045C
ENCODING 1116
SWIDTH 450 0
DWIDTH 5 0
BBX 4 9 1 0
BITMAP
30
20
00
90
A0
C0
E0
A0
90
ENDCHAR
STARTCHAR 045D
ENCODING 1117
SWIDTH 630 0
DWIDTH 7 0
BBX 5 9 1 0
BITMAP
40
20
00
88
98
A8
A8
C8
88
ENDCHAR
STARTCHAR 045E
ENCODING 1118
SWIDTH 450 0
DWIDTH 5 0
BBX 5 11 0 -3
BITMAP
58
20
88
48
48
50
30
30
20
20
C0
ENDCHAR
STARTCHAR 045F
ENCODING 1119
SWIDTH 540 0
DWIDTH 6 0
BBX 5 8 1 -2
BITMAP
88
88
88
88
88
F8
20
20
ENDCHAR
STARTCHAR 0460
ENCODING 1120
SWIDTH 900 0
DWIDTH 10 0
BBX 10 8 0 0
BITMAP
8C40
8440
4440
4C40
4C80
4A80
3280
3100
ENDCHAR
STARTCHAR 0461
ENCODING 1121
SWIDTH 720 0
DWIDTH 8 0
BBX 8 6 0 0
BITMAP
89
89
49
59
56
26
ENDCHAR
STARTCHAR 0462
ENCODING 1122
SWIDTH 630 0
DWIDTH 7 0
BBX 7 8 0 0
BITMAP
20
F8
20
38
26
22
22
3C
ENDCHAR
STARTCHAR 0463
ENCODING 1123
SWIDTH 630 0
DWIDTH 7 0
BBX 6 7 0 0
BITMAP
40
F0
40
70
4C
44
7C
ENDCHAR
STARTCHAR 0464
ENCODING 1124
SWIDTH 900 0
DWIDTH 10 0
BBX 9 8 1 0
BITMAP
8780
8800
9000
FF00
9000
9000
9800
8F80
ENDCHAR
STARTCHAR 0465
ENCODING 1125
SWIDTH 720 0
DWIDTH 8 0
BBX 7 6 1 0
BITMAP
9E
90
A0
FC
90
9E
ENDCHAR
STARTCHAR 0466
ENCODING 1126
SWIDTH 630 0
DWIDTH 7 0
BBX 7 8 0 0
BITMAP
10
18
28
3C
54
56
52
92
ENDCHAR
STARTCHAR 0467
ENCODING 1127
SWIDTH 540 0
DWIDTH 6 0
BBX 6 6 0 0
BITMAP
30
30
48
78
54
94
ENDCHAR
STARTCHAR 0468
ENCODING 1128
SWIDTH 900 0
DWIDTH 10 0
BBX 9 8 1 0
BITMAP
8400
8A00
8A00
FE00
9500
9500
A480
A480
ENDCHAR
STARTCHAR 0469
ENCODING 1129
SWIDTH 720 0
DWIDTH 8 0
BBX 7 6 1 0
BITMAP
88
94
94
EA
AA
AA
ENDCHAR
STARTCHAR 046A
ENCODING 1130
SWIDTH 720 0
DWIDTH 8 0
BBX 8 8 0 0
BITMAP
7E
62
24
18
6E
4A
4B
89
ENDCHAR
STARTCHAR 046B
ENCODING 1131
SWIDTH 630 0
DWIDTH 7 0
BBX 7 6 0 0
BITMAP
7C
28
18
74
54
92
ENDCHAR
STARTCHAR 046C
ENCODING 1132
SWIDTH 900 0
DWIDTH 10 0
BBX 10 8 1 0
BITMAP
9F80
9180
8900
FE00
9580
9480
B480
A440
ENDCHAR
STARTCHAR 046D
ENCODING 1133
SWIDTH 810 0
DWIDTH 9 0
BBX 8 6 1 0
BITMAP
BF
92
8C
FA
A9
A9
ENDCHAR
STARTCHAR 046E
ENCODING 1134
SWIDTH 540 0
DWIDTH 6 0
BBX 6 11 0 -2
BITMAP
30
78
04
04
78
08
04
04
78
80
7C
ENDCHAR
STARTCHAR 046F
ENCODING 1135
SWIDTH 450 0
DWIDTH 5 0
BBX 5 9 0 -2
BITMAP
50
70
08
70
18
08
70
80
F8
ENDCHAR
STARTCHAR 0470
ENCODING 1136
SWIDTH 720 0
DWIDTH 8 0
BBX 7 8 1 0
BITMAP
92
92
92
92
D2
7C
10
10
ENDCHAR
STARTCHAR 0471
ENCODING 1137
SWIDTH 720 0
DWIDTH 8 0
BBX 7 11 1 -3
BITMAP
10
10
94
94
92
92
94
78
10
10
10
ENDCHAR
STARTCHAR 0472
ENCODING 1138
SWIDTH 720 0
DWIDTH 8 0
BBX 7 8 1 0
BITMAP
78
C4
82
82
FE
82
84
7C
ENDCHAR
STARTCHAR 0473
ENCODING 1139
SWIDTH 540 0
DWIDTH 6 0
BBX 5 6 1 0
BITMAP
70
88
88
F8
88
70
ENDCHAR
STARTCHAR 0474
ENCODING 1140
SWIDTH 630 0
DWIDTH 7 0
BBX 7 8 0 0
BITMAP
82
44
44
48
28
28
30
10
ENDCHAR
STARTCHAR 0475
ENCODING 1141
SWIDTH 450 0
DWIDTH 5 0
BBX 6 6 0 0
BITMAP
8C
48
48
50
30
30
ENDCHAR
STARTCHAR 0476
ENCODING 1142
SWIDTH 630 0
DWIDTH 7 0
BBX 7 11 0 0
BITMAP
50
28
00
82
44
44
48
28
28
30
10
ENDCHAR
STARTCHAR 0477
ENCODING 1143
SWIDTH 450 0
DWIDTH 5 0
BBX 6 9 0 0
BITMAP
A0
50
00
8C
48
48
50
30
30
ENDCHAR
STARTCHAR 0478
ENCODING 1144
SWIDTH 1170 0
DWIDTH 13 0
BBX 12 11 1 -3
BITMAP
7800
8400
8510
8510
8490
84A0
8460
7840
0040
0040
0180
ENDCHAR
STARTCHAR 0479
ENCODING 1145
SWIDTH 1080 0
DWIDTH 12 0
BBX 11 9 1 -3
BITMAP
7220
8A20
8A40
8940
8980
7080
0080
0100
0200
ENDCHAR
STARTCHAR 047A
ENCODING 1146
SWIDTH 810 0
DWIDTH 9 0
BBX 7 10 1 -1
BITMAP
10
7C
C2
82
82
82
82
C2
7C
10
ENDCHAR
STARTCHAR 047B
ENCODING 1147
SWIDTH 630 0
DWIDTH 7 0
BBX 6 8 1 -1
BITMAP
20
78
88
84
84
88
78
20
ENDCHAR
STARTCHAR 047C
ENCODING 1148
SWIDTH 990 0
DWIDTH 11 0
BBX 10 11 1 0
BITMAP
1E00
0800
0000
7700
8080
8040
8040
8840
8840
8880
7F00
ENDCHAR
STARTCHAR 047D
ENCODING 1149
SWIDTH 900 0
DWIDTH 10 0
BBX 8 10 1 0
BITMAP
30
3C
10
00
E7
81
81
89
89
7F
ENDCHAR
STARTCHAR 047E
ENCODING 1150
SWIDTH 900 0
DWIDTH 10 0
BBX 10 10 0 0
BITMAP
1E00
0000
8C40
8440
4440
4C40
4C80
4A80
3280
3100
ENDCHAR
STARTCHAR 047F
ENCODING 1151
SWIDTH 720 0
DWIDTH 8 0
BBX 8 8 0 0
BITMAP
3C
00
89
89
49
59
56
26
ENDCHAR
STARTCHAR 0480
ENCODING 1152
SWIDTH 630 0
DWIDTH 7 0
BBX 6 11 1 -3
BITMAP
7C
C0
80
80
80
80
C0
78
08
08
08
ENDCHAR
STARTCHAR 0481
ENCODING 1153
SWIDTH 450 0
DWIDTH 5 0
BBX 4 8 1 -3
BITMAP
70
80
80
80
80
E0
20
20
ENDCHAR
STARTCHAR 0482
ENCODING 1154
SWIDTH 540 0
DWIDTH 6 0
BBX 5 7 1 0
BITMAP
08
70
10
28
C0
70
80
ENDCHAR
STARTCHAR 0483
ENCODING 1155
SWIDTH 0 0
DWIDTH 0 0
BBX 4 2 -5 6
BITMAP
10
E0
ENDCHAR
STARTCHAR 0484
ENCODING 1156
SWIDTH 0 0
DWIDTH 0 0
BBX 4 1 -5 7
BITMAP
F0
ENDCHAR
STARTCHAR 0485
ENCODING 1157
SWIDTH 0 0
DWIDTH 0 0
BBX 1 2 -4 7
BITMAP
80
80
ENDCHAR
STARTCHAR 0486
ENCODING 1158
SWIDTH 0 0
DWIDTH 0 0
BBX 1 2 -4 7
BITMAP
80
80
ENDCHAR
STARTCHAR 0487
ENCODING 1159
SWIDTH 0 0
DWIDTH 0 0
BBX 4 2 -2 8
BITMAP
C0
B0
ENDCHAR
STARTCHAR 0488
ENCODING 1160
SWIDTH 0 0
DWIDTH 0 0
BBX 12 11 -6 -3
BITMAP
0600
0000
6060
0000
0000
C030
0000
0000
0000
70E0
0400
ENDCHAR
STARTCHAR 0489
ENCODING 1161
SWIDTH 0 0
DWIDTH 0 0
BBX 12 12 -6 -3
BITMAP
0200
0400
2060
0000
0000
8020
4010
0000
0000
3040
0200
0400
ENDCHAR
STARTCHAR 048A
ENCODING 1162
SWIDTH 720 0
DWIDTH 8 0
BBX 7 12 1 -2
BITMAP
48
30
84
8C
8C
94
B4
A4
C4
C2
02
02
ENDCHAR
STARTCHAR 048B
ENCODING 1163
SWIDTH 630 0
DWIDTH 7 0
BBX 6 10 1 -2
BITMAP
50
20
88
98
A8
A8
C8
8C
04
04
ENDCHAR
STARTCHAR 048C
ENCODING 1164
SWIDTH 540 0
DWIDTH 6 0
BBX 6 8 0 0
BITMAP
40
F0
40
70
4C
44
44
78
ENDCHAR
STARTCHAR 048D
ENCODING 1165
SWIDTH 540 0
DWIDTH 6 0
BBX 6 8 0 0
BITMAP
40
F0
40
40
70
4C
44
78
ENDCHAR
STARTCHAR 048E
ENCODING 1166
SWIDTH 540 0
DWIDTH 6 0
BBX 5 8 1 0
BITMAP
F0
88
88
A8
F0
80
80
80
ENDCHAR
STARTCHAR 048F
ENCODING 1167
SWIDTH 540 0
DWIDTH 6 0
BBX 5 9 1 -3
BITMAP
F0
88
88
88
A8
F0
88
80
80
ENDCHAR
STARTCHAR 0490
ENCODING 1168
SWIDTH 450 0
DWIDTH 5 0
BBX 5 10 1 0
BITMAP
08
08
F8
80
80
80
80
80
80
80
ENDCHAR
STARTCHAR 0491
ENCODING 1169
SWIDTH 360 0
DWIDTH 4 0
BBX 4 8 1 0
BITMAP
10
10
F0
80
80
80
80
80
ENDCHAR
STARTCHAR 0492
ENCODING 1170
SWIDTH 450 0
DWIDTH 5 0
BBX 6 8 0 0
BITMAP
7C
40
40
40
F0
40
40
40
ENDCHAR
STARTCHAR 0493
ENCODING 1171
SWIDTH 360 0
DWIDTH 4 0
BBX 4 6 1 0
BITMAP
F0
80
80
C0
80
80
ENDCHAR
STARTCHAR 0494
ENCODING 1172
SWIDTH 630 0
DWIDTH 7 0
BBX 6 11 1 -3
BITMAP
F8
80
80
80
F8
8C
84
84
04
08
70
ENDCHAR
STARTCHAR 0495
ENCODING 1173
SWIDTH 450 0
DWIDTH 5 0
BBX 5 9 1 -3
BITMAP
F0
80
80
F0
90
88
08
10
60
ENDCHAR
STARTCHAR 0496
ENCODING 1174
SWIDTH 900 0
DWIDTH 10 0
BBX 10 10 0 -2
BITMAP
C880
4900
2A00
1A00
1E00
2B00
4900
C8C0
0040
0040
ENDCHAR
STARTCHAR 0497
ENCODING 1175
SWIDTH 720 0
DWIDTH 8 0
BBX 9 8 0 -2
BITMAP
4900
4A00
2C00
3C00
4A00
C980
0080
0080
ENDCHAR
STARTCHAR 0498
ENCODING 1176
SWIDTH 540 0
DWIDTH 6 0
BBX 6 10 0 -2
BITMAP
78
04
04
78
08
04
04
F8
10
10
ENDCHAR
STARTCHAR 0499
ENCODING 1177
SWIDTH 450 0
DWIDTH 5 0
BBX 5 8 0 -2
BITMAP
70
08
70
18
08
F0
20
20
ENDCHAR
STARTCHAR 049A
ENCODING 1178
SWIDTH 630 0
DWIDTH 7 0
BBX 6 10 1 -2
BITMAP
88
90
B0
E0
A0
B0
98
8C
04
04
ENDCHAR
STARTCHAR 049B
ENCODING 1179
SWIDTH 540 0
DWIDTH 6 0
BBX 5 8 1 -2
BITMAP
90
A0
C0
E0
A0
98
08
08
ENDCHAR
STARTCHAR 049C
ENCODING 1180
SWIDTH 540 0
DWIDTH 6 0
BBX 5 8 1 0
BITMAP
88
90
B0
E0
A0
B0
98
88
ENDCHAR
STARTCHAR 049D
ENCODING 1181
SWIDTH 450 0
DWIDTH 5 0
BBX 4 6 1 0
BITMAP
90
A0
C0
E0
A0
90
ENDCHAR
STARTCHAR 049E
ENCODING 1182
SWIDTH 540 0
DWIDTH 6 0
BBX 6 8 0 0
BITMAP
44
E8
58
70
50
58
4C
44
ENDCHAR
STARTCHAR 049F
ENCODING 1183
SWIDTH 450 0
DWIDTH 5 0
BBX 4 8 1 0
BITMAP
80
C0
90
A0
C0
E0
A0
90
ENDCHAR
STARTCHAR 04A0
ENCODING 1184
SWIDTH 630 0
DWIDTH 7 0
BBX 7 8 0 0
BITMAP
E2
24
28
30
38
28
24
22
ENDCHAR
STARTCHAR 04A1
ENCODING 1185
SWIDTH 540 0
DWIDTH 6 0
BBX 6 6 0 0
BITMAP
E4
28
30
28
2C
24
ENDCHAR
STARTCHAR 04A2
ENCODING 1186
SWIDTH 720 0
DWIDTH 8 0
BBX 7 10 1 -2
BITMAP
84
84
84
FC
84
84
84
86
02
02
ENDCHAR
STARTCHAR 04A3
ENCODING 1187
SWIDTH 630 0
DWIDTH 7 0
BBX 6 8 1 -2
BITMAP
88
88
88
F8
88
8C
04
04
ENDCHAR
STARTCHAR 04A4
ENCODING 1188
SWIDTH 810 0
DWIDTH 9 0
BBX 8 8 1 0
BITMAP
87
84
84
FC
84
84
84
84
ENDCHAR
STARTCHAR 04A5
ENCODING 1189
SWIDTH 720 0
DWIDTH 8 0
BBX 7 6 1 0
BITMAP
8E
88
88
F8
88
88
ENDCHAR
STARTCHAR 04A6
ENCODING 1190
SWIDTH 990 0
DWIDTH 11 0
BBX 10 11 1 -3
BITMAP
FC00
8400
8400
8400
8780
8440
8440
8440
0040
00C0
0380
ENDCHAR
STARTCHAR 04A7
ENCODING 1191
SWIDTH 810 0
DWIDTH 9 0
BBX 8 9 1 -3
BITMAP
F8
88
88
8F
89
89
01
01
06
ENDCHAR
STARTCHAR 04A8
ENCODING 1192
SWIDTH 720 0
DWIDTH 8 0
BBX 7 8 1 0
BITMAP
70
80
9E
92
92
92
9C
7E
ENDCHAR
STARTCHAR 04A9
ENCODING 1193
SWIDTH 630 0
DWIDTH 7 0
BBX 6 6 1 0
BITMAP
60
98
A8
A4
A8
7C
ENDCHAR
STARTCHAR 04AA
ENCODING 1194
SWIDTH 630 0
DWIDTH 7 0
BBX 6 10 1 -2
BITMAP
7C
C0
80
80
80
80
C0
78
10
10
ENDCHAR
STARTCHAR 04AB
ENCODING 1195
SWIDTH 450 0
DWIDTH 5 0
BBX 4 8 1 -2
BITMAP
70
80
80
80
80
70
20
20
ENDCHAR
STARTCHAR 04AC
ENCODING 1196
SWIDTH 540 0
DWIDTH 6 0
BBX 6 10 0 -2
BITMAP
FC
10
10
10
10
10
10
18
08
08
ENDCHAR
STARTCHAR 04AD
ENCODING 1197
SWIDTH 450 0
DWIDTH 5 0
BBX 5 8 0 -2
BITMAP
F8
20
20
20
20
30
10
10
ENDCHAR
STARTCHAR 04AE
ENCODING 1198
SWIDTH 540 0
DWIDTH 6 0
BBX 6 8 0 0
BITMAP
84
4C
48
30
30
10
10
10
ENDCHAR
STARTCHAR 04AF
ENCODING 1199
SWIDTH 450 0
DWIDTH 5 0
BBX 5 9 0 -3
BITMAP
88
48
48
50
30
30
20
20
20
ENDCHAR
STARTCHAR 04B0
ENCODING 1200
SWIDTH 540 0
DWIDTH 6 0
BBX 6 8 0 0
BITMAP
84
4C
48
30
30
78
10
10
ENDCHAR
STARTCHAR 04B1
ENCODING 1201
SWIDTH 450 0
DWIDTH 5 0
BBX 5 9 0 -3
BITMAP
88
48
48
50
30
30
78
20
20
ENDCHAR
STARTCHAR 04B2
ENCODING 1202
SWIDTH 630 0
DWIDTH 7 0
BBX 7 10 0 -2
BITMAP
44
48
28
30
30
28
4C
86
02
02
ENDCHAR
STARTCHAR 04B3
ENCODING 1203
SWIDTH 540 0
DWIDTH 6 0
BBX 5 8 1 -2
BITMAP
90
B0
60
60
90
98
08
08
ENDCHAR
STARTCHAR 04B4
ENCODING 1204
SWIDTH 810 0
DWIDTH 9 0
BBX 9 10 0 -2
BITMAP
FD00
2100
2100
2100
2100
2100
2100
3F80
0080
0080
ENDCHAR
STARTCHAR 04B5
ENCODING 1205
SWIDTH 720 0
DWIDTH 8 0
BBX 8 8 0 -2
BITMAP
FA
22
22
22
22
3F
01
01
ENDCHAR
STARTCHAR 04B6
ENCODING 1206
SWIDTH 630 0
DWIDTH 7 0
BBX 7 10 1 -2
BITMAP
84
84
84
84
FC
04
04
06
02
02
ENDCHAR
STARTCHAR 04B7
ENCODING 1207
SWIDTH 540 0
DWIDTH 6 0
BBX 6 8 1 -2
BITMAP
88
88
88
F8
08
0C
04
04
ENDCHAR
STARTCHAR 04B8
ENCODING 1208
SWIDTH 630 0
DWIDTH 7 0
BBX 6 8 1 0
BITMAP
84
84
A4
A4
FC
24
24
04
ENDCHAR
STARTCHAR 04B9
ENCODING 1209
SWIDTH 540 0
DWIDTH 6 0
BBX 5 6 1 0
BITMAP
88
88
A8
F8
28
08
ENDCHAR
STARTCHAR 04BA
ENCODING 1210
SWIDTH 630 0
DWIDTH 7 0
BBX 6 8 1 0
BITMAP
80
80
80
F8
84
84
84
84
ENDCHAR
STARTCHAR 04BB
ENCODING 1211
SWIDTH 540 0
DWIDTH 6 0
BBX 5 8 1 0
BITMAP
80
80
F0
88
88
88
88
88
ENDCHAR
STARTCHAR 04BC
ENCODING 1212
SWIDTH 810 0
DWIDTH 9 0
BBX 9 8 0 0
BITMAP
0E00
1100
A080
E080
3F00
2000
1000
1F00
ENDCHAR
STARTCHAR 04BD
ENCODING 1213
SWIDTH 630 0
DWIDTH 7 0
BBX 7 6 0 0
BITMAP
1C
A2
FE
20
20
1E
ENDCHAR
STARTCHAR 04BE
ENCODING 1214
SWIDTH 810 0
DWIDTH 9 0
BBX 9 10 0 -2
BITMAP
0E00
1100
A080
E080
3F00
2000
1000
1F00
0400
0400
ENDCHAR
STARTCHAR 04BF
ENCODING 1215
SWIDTH 630 0
DWIDTH 7 0
BBX 7 8 0 -2
BITMAP
1C
A2
FE
20
20
1E
08
08
ENDCHAR
STARTCHAR 04C0
ENCODING 1216
SWIDTH 270 0
DWIDTH 3 0
BBX 3 8 0 0
BITMAP
E0
40
40
40
40
40
40
E0
ENDCHAR
STARTCHAR 04C1
ENCODING 1217
SWIDTH 810 0
DWIDTH 9 0
BBX 9 10 0 0
BITMAP
1600
0800
C880
4900
2A00
1A00
1E00
2B00
4900
C880
ENDCHAR
STARTCHAR 04C2
ENCODING 1218
SWIDTH 720 0
DWIDTH 8 0
BBX 8 8 0 0
BITMAP
34
08
49
4A
2C
3C
4A
C9
ENDCHAR
STARTCHAR 04C3
ENCODING 1219
SWIDTH 630 0
DWIDTH 7 0
BBX 6 11 1 -3
BITMAP
88
90
A0
E0
F8
84
84
84
04
0C
30
ENDCHAR
STARTCHAR 04C4
ENCODING 1220
SWIDTH 540 0
DWIDTH 6 0
BBX 5 9 1 -3
BITMAP
90
A0
C0
F0
88
88
08
10
60
ENDCHAR
STARTCHAR 04C5
ENCODING 1221
SWIDTH 630 0
DWIDTH 7 0
BBX 8 10 0 -2
BITMAP
3E
22
22
22
22
22
42
C3
02
02
ENDCHAR
STARTCHAR 04C6
ENCODING 1222
SWIDTH 540 0
DWIDTH 6 0
BBX 6 8 0 -2
BITMAP
38
28
28
48
48
CC
04
04
ENDCHAR
STARTCHAR 04C7
ENCODING 1223
SWIDTH 720 0
DWIDTH 8 0
BBX 6 11 1 -3
BITMAP
84
84
84
FC
84
84
84
84
04
0C
38
ENDCHAR
STARTCHAR 04C8
ENCODING 1224
SWIDTH 540 0
DWIDTH 6 0
BBX 5 9 1 -3
BITMAP
88
88
88
F8
88
88
08
08
30
ENDCHAR
STARTCHAR 04C9
ENCODING 1225
SWIDTH 720 0
DWIDTH 8 0
BBX 7 10 1 -2
BITMAP
84
84
84
FC
84
84
84
86
02
02
ENDCHAR
STARTCHAR 04CA
ENCODING 1226
SWIDTH 630 0
DWIDTH 7 0
BBX 6 8 1 -2
BITMAP
88
88
88
F8
88
8C
04
04
ENDCHAR
STARTCHAR 04CB
ENCODING 1227
SWIDTH 630 0
DWIDTH 7 0
BBX 6 10 1 -2
BITMAP
84
84
84
84
FC
04
04
0C
08
08
ENDCHAR
STARTCHAR 04CC
ENCODING 1228
SWIDTH 540 0
DWIDTH 6 0
BBX 5 8 1 -2
BITMAP
88
88
88
F8
08
18
10
10
ENDCHAR
STARTCHAR 04CD
ENCODING 1229
SWIDTH 900 0
DWIDTH 10 0
BBX 9 10 1 -2
BITMAP
C300
C300
C500
A500
A500
9900
9900
9980
0080
0100
ENDCHAR
STARTCHAR 04CE
ENCODING 1230
SWIDTH 720 0
DWIDTH 8 0
BBX 7 8 1 -2
BITMAP
84
CC
CC
AC
B4
96
02
02
ENDCHAR
STARTCHAR 04CF
ENCODING 1231
SWIDTH 270 0
DWIDTH 3 0
BBX 3 8 0 0
BITMAP
E0
40
40
40
40
40
40
E0
ENDCHAR
STARTCHAR 04D0
ENCODING 1232
SWIDTH 630 0
DWIDTH 7 0
BBX 7 10 0 0
BITMAP
28
10
10
28
28
28
44
7C
46
82
ENDCHAR
STARTCHAR 04D1
ENCODING 1233
SWIDTH 540 0
DWIDTH 6 0
BBX 4 8 1 0
BITMAP
D0
20
F0
10
30
D0
90
F0
ENDCHAR
STARTCHAR 04D2
ENCODING 1234
SWIDTH 630 0
DWIDTH 7 0
BBX 7 10 0 0
BITMAP
28
00
10
28
28
28
44
7C
46
82
ENDCHAR
STARTCHAR 04D3
ENCODING 1235
SWIDTH 540 0
DWIDTH 6 0
BBX 4 8 1 0
BITMAP
50
00
F0
10
30
D0
90
F0
ENDCHAR
STARTCHAR 04D4
ENCODING 1236
SWIDTH 810 0
DWIDTH 9 0
BBX 9 8 0 0
BITMAP
0F80
1400
1400
2780
2400
7C00
4400
8780
ENDCHAR
STARTCHAR 04D5
ENCODING 1237
SWIDTH 810 0
DWIDTH 9 0
BBX 8 6 1 0
BITMAP
FE
11
3F
90
98
EF
ENDCHAR
STARTCHAR 04D6
ENCODING 1238
SWIDTH 540 0
DWIDTH 6 0
BBX 5 10 1 0
BITMAP
50
20
F8
80
80
F0
80
80
80
F8
ENDCHAR
STARTCHAR 04D7
ENCODING 1239
SWIDTH 540 0
DWIDTH 6 0
BBX 5 8 1 0
BITMAP
D0
20
70
98
F8
80
80
70
ENDCHAR
STARTCHAR 04D8
ENCODING 1240
SWIDTH 720 0
DWIDTH 8 0
BBX 7 8 1 0
BITMAP
F8
04
04
04
FE
84
84
78
ENDCHAR
STARTCHAR 04D9
ENCODING 1241
SWIDTH 540 0
DWIDTH 6 0
BBX 5 6 1 0
BITMAP
F0
10
08
F8
90
F0
ENDCHAR
STARTCHAR 04DA
ENCODING 1242
SWIDTH 720 0
DWIDTH 8 0
BBX 7 10 1 0
BITMAP
50
00
F8
04
04
04
FE
84
84
78
ENDCHAR
STARTCHAR 04DB
ENCODING 1243
SWIDTH 540 0
DWIDTH 6 0
BBX 5 8 1 0
BITMAP
D0
00
F0
10
08
F8
90
F0
ENDCHAR
STARTCHAR 04DC
ENCODING 1244
SWIDTH 810 0
DWIDTH 9 0
BBX 9 10 0 0
BITMAP
1400
0000
C880
4900
2A00
1A00
1E00
2B00
4900
C880
ENDCHAR
STARTCHAR 04DD
ENCODING 1245
SWIDTH 720 0
DWIDTH 8 0
BBX 8 8 0 0
BITMAP
14
00
49
4A
2C
3C
4A
C9
ENDCHAR
STARTCHAR 04DE
ENCODING 1246
SWIDTH 540 0
DWIDTH 6 0
BBX 6 10 0 0
BITMAP
28
00
78
04
04
78
08
04
04
F8
ENDCHAR
STARTCHAR 04DF
ENCODING 1247
SWIDTH 450 0
DWIDTH 5 0
BBX 5 8 0 0
BITMAP
50
00
70
08
70
18
08
F0
ENDCHAR
STARTCHAR 04E0
ENCODING 1248
SWIDTH 540 0
DWIDTH 6 0
BBX 6 8 0 0
BITMAP
7C
08
10
20
1C
04
04
F8
ENDCHAR
STARTCHAR 04E1
ENCODING 1249
SWIDTH 450 0
DWIDTH 5 0
BBX 5 9 0 -3
BITMAP
F8
10
20
60
18
08
08
18
60
ENDCHAR
STARTCHAR 04E2
ENCODING 1250
SWIDTH 720 0
DWIDTH 8 0
BBX 6 10 1 0
BITMAP
38
00
84
8C
8C
94
B4
A4
C4
C4
ENDCHAR
STARTCHAR 04E3
ENCODING 1251
SWIDTH 630 0
DWIDTH 7 0
BBX 5 8 1 0
BITMAP
70
00
88
98
A8
A8
C8
88
ENDCHAR
STARTCHAR 04E4
ENCODING 1252
SWIDTH 720 0
DWIDTH 8 0
BBX 6 10 1 0
BITMAP
28
00
84
8C
8C
94
B4
A4
C4
C4
ENDCHAR
STARTCHAR 04E5
ENCODING 1253
SWIDTH 630 0
DWIDTH 7 0
BBX 5 8 1 0
BITMAP
50
00
88
98
A8
A8
C8
88
ENDCHAR
STARTCHAR 04E6
ENCODING 1254
SWIDTH 720 0
DWIDTH 8 0
BBX 7 10 1 0
BITMAP
28
00
78
C4
82
82
82
82
84
7C
ENDCHAR
STARTCHAR 04E7
ENCODING 1255
SWIDTH 540 0
DWIDTH 6 0
BBX 5 8 1 0
BITMAP
50
00
70
88
88
88
88
70
ENDCHAR
STARTCHAR 04E8
ENCODING 1256
SWIDTH 720 0
DWIDTH 8 0
BBX 7 8 1 0
BITMAP
78
C4
82
82
FE
82
84
7C
ENDCHAR
STARTCHAR 04E9
ENCODING 1257
SWIDTH 540 0
DWIDTH 6 0
BBX 5 6 1 0
BITMAP
70
88
88
F8
88
70
ENDCHAR
STARTCHAR 04EA
ENCODING 1258
SWIDTH 720 0
DWIDTH 8 0
BBX 7 10 1 0
BITMAP
28
00
78
C4
82
82
FE
82
84
7C
ENDCHAR
STARTCHAR 04EB
ENCODING 1259
SWIDTH 540 0
DWIDTH 6 0
BBX 5 8 1 0
BITMAP
50
00
70
88
88
F8
88
70
ENDCHAR
STARTCHAR 04EC
ENCODING 1260
SWIDTH 630 0
DWIDTH 7 0
BBX 6 10 0 0
BITMAP
50
00
F8
0C
04
7C
04
04
0C
F8
ENDCHAR
STARTCHAR 04ED
ENCODING 1261
SWIDTH 450 0
DWIDTH 5 0
BBX 5 8 0 0
BITMAP
50
00
F0
08
08
78
08
F0
ENDCHAR
STARTCHAR 04EE
ENCODING 1262
SWIDTH 540 0
DWIDTH 6 0
BBX 7 10 0 0
BITMAP
38
00
82
44
44
28
28
18
10
60
ENDCHAR
STARTCHAR 04EF
ENCODING 1263
SWIDTH 450 0
DWIDTH 5 0
BBX 5 11 0 -3
BITMAP
70
00
88
48
48
50
30
30
20
20
C0
ENDCHAR
STARTCHAR 04F0
ENCODING 1264
SWIDTH 540 0
DWIDTH 6 0
BBX 7 10 0 0
BITMAP
28
00
82
44
44
28
28
18
10
60
ENDCHAR
STARTCHAR 04F1
ENCODING 1265
SWIDTH 450 0
DWIDTH 5 0
BBX 5 11 0 -3
BITMAP
50
00
88
48
48
50
30
30
20
20
C0
ENDCHAR
STARTCHAR 04F2
ENCODING 1266
SWIDTH 540 0
DWIDTH 6 0
BBX 7 11 0 0
BITMAP
14
14
00
82
44
44
28
28
18
10
60
ENDCHAR
STARTCHAR 04F3
ENCODING 1267
SWIDTH 450 0
DWIDTH 5 0
BBX 5 12 0 -3
BITMAP
38
28
00
88
48
48
50
30
30
20
20
C0
ENDCHAR
STARTCHAR 04F4
ENCODING 1268
SWIDTH 630 0
DWIDTH 7 0
BBX 6 10 1 0
BITMAP
50
00
84
84
84
84
FC
04
04
04
ENDCHAR
STARTCHAR 04F5
ENCODING 1269
SWIDTH 540 0
DWIDTH 6 0
BBX 5 8 1 0
BITMAP
50
00
88
88
88
F8
08
08
ENDCHAR
STARTCHAR 04F6
ENCODING 1270
SWIDTH 450 0
DWIDTH 5 0
BBX 5 10 1 -2
BITMAP
F8
80
80
80
80
80
80
C0
40
40
ENDCHAR
STARTCHAR 04F7
ENCODING 1271
SWIDTH 360 0
DWIDTH 4 0
BBX 4 8 1 -2
BITMAP
F0
80
80
80
80
C0
40
40
ENDCHAR
STARTCHAR 04F8
ENCODING 1272
SWIDTH 810 0
DWIDTH 9 0
BBX 7 10 1 0
BITMAP
28
00
82
82
82
E2
9A
8A
8A
F2
ENDCHAR
STARTCHAR 04F9
ENCODING 1273
SWIDTH 720 0
DWIDTH 8 0
BBX 7 8 1 0
BITMAP
28
00
82
82
E2
9A
8A
F2
ENDCHAR
STARTCHAR 04FA
ENCODING 1274
SWIDTH 450 0
DWIDTH 5 0
BBX 6 10 0 -2
BITMAP
7C
40
40
40
F0
40
40
60
20
60
ENDCHAR
STARTCHAR 04FB
ENCODING 1275
SWIDTH 360 0
DWIDTH 4 0
BBX 4 8 1 -2
BITMAP
F0
80
80
C0
80
C0
40
C0
ENDCHAR
STARTCHAR 04FC
ENCODING 1276
SWIDTH 630 0
DWIDTH 7 0
BBX 7 10 0 -2
BITMAP
44
48
28
30
30
28
4C
86
02
06
ENDCHAR
STARTCHAR 04FD
ENCODING 1277
SWIDTH 540 0
DWIDTH 6 0
BBX 5 8 1 -2
BITMAP
90
B0
60
60
90
98
08
18
ENDCHAR
STARTCHAR 04FE
ENCODING 1278
SWIDTH 540 0
DWIDTH 6 0
BBX 6 8 0 0
BITMAP
C4
48
28
7C
30
28
4C
84
ENDCHAR
STARTCHAR 04FF
ENCODING 1279
SWIDTH 450 0
DWIDTH 5 0
BBX 4 6 1 0
BITMAP
90
B0
60
F0
90
90
ENDCHAR
STARTCHAR 0500
ENCODING 1280
SWIDTH 540 0
DWIDTH 6 0
BBX 5 8 1 0
BITMAP
08
08
08
38
C8
88
88
F8
ENDCHAR
STARTCHAR 0501
ENCODING 1281
SWIDTH 540 0
DWIDTH 6 0
BBX 5 8 1 0
BITMAP
08
08
F8
88
88
88
88
F8
ENDCHAR
STARTCHAR 0502
ENCODING 1282
SWIDTH 900 0
DWIDTH 10 0
BBX 8 8 1 0
BITMAP
08
08
08
39
C9
89
89
FE
ENDCHAR
STARTCHAR 0503
ENCODING 1283
SWIDTH 810 0
DWIDTH 9 0
BBX 8 8 1 0
BITMAP
08
08
E8
98
89
89
89
FF
ENDCHAR
STARTCHAR 0504
ENCODING 1284
SWIDTH 900 0
DWIDTH 10 0
BBX 8 8 1 0
BITMAP
F0
10
10
F1
11
09
09
0F
ENDCHAR
STARTCHAR 0505
ENCODING 1285
SWIDTH 720 0
DWIDTH 8 0
BBX 8 6 0 0
BITMAP
F0
08
71
19
09
0F
ENDCHAR
STARTCHAR 0506
ENCODING 1286
SWIDTH 630 0
DWIDTH 7 0
BBX 6 10 1 -2
BITMAP
F0
08
08
F0
10
08
08
0C
04
04
ENDCHAR
STARTCHAR 0507
ENCODING 1287
SWIDTH 450 0
DWIDTH 5 0
BBX 6 8 0 -2
BITMAP
F0
08
70
18
08
0C
04
04
ENDCHAR
STARTCHAR 0508
ENCODING 1288
SWIDTH 900 0
DWIDTH 10 0
BBX 10 8 0 0
BITMAP
3E00
2200
2200
2240
2240
2240
4240
C380
ENDCHAR
STARTCHAR 0509
ENCODING 1289
SWIDTH 810 0
DWIDTH 9 0
BBX 9 6 0 0
BITMAP
3800
2800
2880
4880
4880
C700
ENDCHAR
STARTCHAR 050A
ENCODING 1290
SWIDTH 990 0
DWIDTH 11 0
BBX 9 8 1 0
BITMAP
8400
8400
8400
FC80
8480
8480
8480
8780
ENDCHAR
STARTCHAR 050B
ENCODING 1291
SWIDTH 900 0
DWIDTH 10 0
BBX 8 6 1 0
BITMAP
88
88
89
F9
89
87
ENDCHAR
STARTCHAR 050C
ENCODING 1292
SWIDTH 720 0
DWIDTH 8 0
BBX 7 8 1 0
BITMAP
7C
C0
80
80
8E
82
C4
7C
ENDCHAR
STARTCHAR 050D
ENCODING 1293
SWIDTH 630 0
DWIDTH 7 0
BBX 6 6 1 0
BITMAP
78
80
80
9C
88
78
ENDCHAR
STARTCHAR 050E
ENCODING 1294
SWIDTH 630 0
DWIDTH 7 0
BBX 7 8 0 0
BITMAP
FC
30
30
32
32
32
12
1C
ENDCHAR
STARTCHAR 050F
ENCODING 1295
SWIDTH 630 0
DWIDTH 7 0
BBX 6 6 0 0
BITMAP
F8
20
24
24
24
1C
ENDCHAR
STARTCHAR 0510
ENCODING 1296
SWIDTH 540 0
DWIDTH 6 0
BBX 5 8 1 0
BITMAP
78
80
80
70
C0
80
80
F8
ENDCHAR
STARTCHAR 0511
ENCODING 1297
SWIDTH 450 0
DWIDTH 5 0
BBX 5 6 0 0
BITMAP
78
40
70
40
80
78
ENDCHAR
STARTCHAR 0512
ENCODING 1298
SWIDTH 630 0
DWIDTH 7 0
BBX 8 10 0 -2
BITMAP
3E
22
22
22
22
22
42
C3
01
03
ENDCHAR
STARTCHAR 0513
ENCODING 1299
SWIDTH 540 0
DWIDTH 6 0
BBX 6 8 0 -2
BITMAP
38
28
28
48
48
CC
04
0C
ENDCHAR
STARTCHAR 0514
ENCODING 1300
SWIDTH 900 0
DWIDTH 10 0
BBX 10 8 0 0
BITMAP
3C40
2480
2280
2300
2300
2280
44C0
C840
ENDCHAR
STARTCHAR 0515
ENCODING 1301
SWIDTH 720 0
DWIDTH 8 0
BBX 8 6 0 0
BITMAP
39
2D
26
46
49
C9
ENDCHAR
STARTCHAR 0516
ENCODING 1302
SWIDTH 720 0
DWIDTH 8 0
BBX 8 8 1 0
BITMAP
F3
8A
8C
88
F4
84
82
83
ENDCHAR
STARTCHAR 0517
ENCODING 1303
SWIDTH 810 0
DWIDTH 9 0
BBX 8 9 1 -3
BITMAP
F2
8A
8C
8C
8A
F3
80
80
80
ENDCHAR
STARTCHAR 0518
ENCODING 1304
SWIDTH 900 0
DWIDTH 10 0
BBX 8 8 1 0
BITMAP
7F
88
88
8F
78
48
88
8F
ENDCHAR
STARTCHAR 0519
ENCODING 1305
SWIDTH 810 0
DWIDTH 9 0
BBX 9 6 0 0
BITMAP
7F00
8880
4F80
3800
4800
4780
ENDCHAR
STARTCHAR 051A
ENCODING 1306
SWIDTH 720 0
DWIDTH 8 0
BBX 7 10 1 -2
BITMAP
78
C4
82
82
82
82
84
7C
08
04
ENDCHAR
STARTCHAR 051B
ENCODING 1307
SWIDTH 540 0
DWIDTH 6 0
BBX 5 9 1 -3
BITMAP
78
88
88
88
88
F8
08
08
08
ENDCHAR
STARTCHAR 051C
ENCODING 1308
SWIDTH 900 0
DWIDTH 10 0
BBX 10 8 0 0
BITMAP
8C40
4C40
4C40
4A80
5280
3280
3300
2100
ENDCHAR
STARTCHAR 051D
ENCODING 1309
SWIDTH 720 0
DWIDTH 8 0
BBX 8 6 0 0
BITMAP
89
59
55
55
66
22
ENDCHAR
STARTCHAR 051E
ENCODING 1310
SWIDTH 540 0
DWIDTH 6 0
BBX 5 8 1 0
BITMAP
A8
90
B8
E0
A0
B0
98
88
ENDCHAR
STARTCHAR 051F
ENCODING 1311
SWIDTH 450 0
DWIDTH 5 0
BBX 4 6 1 0
BITMAP
90
A0
D0
E0
A0
90
ENDCHAR
STARTCHAR 0520
ENCODING 1312
SWIDTH 990 0
DWIDTH 11 0
BBX 11 11 0 -3
BITMAP
3C00
2400
2400
2400
27C0
2440
4420
C420
0020
0040
0380
ENDCHAR
STARTCHAR 0521
ENCODING 1313
SWIDTH 810 0
DWIDTH 9 0
BBX 9 9 0 -3
BITMAP
3800
2800
2800
4F00
4880
C880
0080
0100
0600
ENDCHAR
STARTCHAR 0522
ENCODING 1314
SWIDTH 1080 0
DWIDTH 12 0
BBX 11 11 1 -3
BITMAP
8400
8400
8400
FC00
87C0
8440
8420
8420
0020
0040
0380
ENDCHAR
STARTCHAR 0523
ENCODING 1315
SWIDTH 810 0
DWIDTH 9 0
BBX 8 9 1 -3
BITMAP
88
88
88
FF
89
89
01
01
06
ENDCHAR
STARTCHAR 0524
ENCODING 1316
SWIDTH 720 0
DWIDTH 8 0
BBX 7 10 1 -2
BITMAP
FC
84
84
84
84
84
84
86
02
02
ENDCHAR
STARTCHAR 0525
ENCODING 1317
SWIDTH 630 0
DWIDTH 7 0
BBX 6 8 1 -2
BITMAP
F8
88
88
88
88
8C
04
04
ENDCHAR
STARTCHAR 0526
ENCODING 1318
SWIDTH 720 0
DWIDTH 8 0
BBX 7 10 1 -2
BITMAP
80
80
80
F8
84
84
84
86
02
02
ENDCHAR
STARTCHAR 0527
ENCODING 1319
SWIDTH 630 0
DWIDTH 7 0
BBX 6 10 1 -2
BITMAP
80
80
F0
88
88
88
88
8C
04
04
ENDCHAR
STARTCHAR 0528
ENCODING 1320
SWIDTH 720 0
DWIDTH 8 0
BBX 7 10 0 -2
BITMAP
42
42
42
7E
42
42
42
42
40
C0
ENDCHAR
STARTCHAR 0529
ENCODING 1321
SWIDTH 540 0
DWIDTH 6 0
BBX 6 9 0 -3
BITMAP
44
44
44
7C
44
44
40
40
80
ENDCHAR
STARTCHAR 052A
ENCODING 1322
SWIDTH 1350 0
DWIDTH 15 0
BBX 15 10 0 -2
BITMAP
1C22
1424
2428
2430
27F0
4428
4424
FE22
8200
8200
ENDCHAR
STARTCHAR 052B
ENCODING 1323
SWIDTH 1080 0
DWIDTH 12 0
BBX 12 8 0 -2
BITMAP
3890
28A0
28C0
2FE0
48A0
FC90
8400
8400
ENDCHAR
STARTCHAR 052C
ENCODING 1324
SWIDTH 630 0
DWIDTH 7 0
BBX 7 10 0 -2
BITMAP
5E
52
52
52
7E
22
22
FE
82
82
ENDCHAR
STARTCHAR 052D
ENCODING 1325
SWIDTH 540 0
DWIDTH 6 0
BBX 6 8 0 -2
BITMAP
9C
A4
A4
7C
44
FC
84
84
ENDCHAR
STARTCHAR 052E
ENCODING 1326
SWIDTH 630 0
DWIDTH 7 0
BBX 8 10 0 -2
BITMAP
3E
22
22
22
22
22
42
C3
01
01
ENDCHAR
STARTCHAR 052F
ENCODING 1327
SWIDTH 540 0
DWIDTH 6 0
BBX 6 8 0 -2
BITMAP
38
28
28
48
48
CC
04
04
ENDCHAR
STARTCHAR 0900
ENCODING 2304
SWIDTH 0 0
DWIDTH 0 0
BBX 5 2 -4 8
BITMAP
70
A8
ENDCHAR
STARTCHAR 0901
ENCODING 2305
SWIDTH 0 0
DWIDTH 0 0
BBX 5 2 -4 8
BITMAP
A8
70
ENDCHAR
STARTCHAR 0902
ENCODING 2306
SWIDTH 0 0
DWIDTH 0 0
BBX 1 1 -2 8
BITMAP
80
ENDCHAR
STARTCHAR 0903
ENCODING 2307
SWIDTH 270 0
DWIDTH 3 0
BBX 1 5 1 1
BITMAP
80
80
00
00
80
ENDCHAR
STARTCHAR 0904
ENCODING 2308
SWIDTH 720 0
DWIDTH 8 0
BBX 9 10 0 0
BITMAP
1000
0E00
0200
3B80
0900
1900
8F00
4900
3900
0100
ENDCHAR
STARTCHAR 0905
ENCODING 2309
SWIDTH 720 0
DWIDTH 8 0
BBX 9 7 0 0
BITMAP
3B80
0900
1900
8F00
4900
3900
0100
ENDCHAR
STARTCHAR 0906
ENCODING 2310
SWIDTH 990 0
DWIDTH 11 0
BBX 12 7 0 0
BITMAP
3BF0
0940
1940
8F40
4940
3940
0140
ENDCHAR
STARTCHAR 0907
ENCODING 2311
SWIDTH 450 0
DWIDTH 5 0
BBX 6 8 0 -1
BITMAP
FC
10
70
40
78
08
70
18
ENDCHAR
STARTCHAR 0908
ENCODING 2312
SWIDTH 450 0
DWIDTH 5 0
BBX 6 11 0 -1
BITMAP
1C
10
10
FC
10
70
40
78
08
70
18
ENDCHAR
STARTCHAR 0909
ENCODING 2313
SWIDTH 540 0
DWIDTH 6 0
BBX 6 7 0 0
BITMAP
FC
08
08
98
48
44
38
ENDCHAR
STARTCHAR 090A
ENCODING 2314
SWIDTH 720 0
DWIDTH 8 0
BBX 9 7 0 0
BITMAP
FF80
0800
0800
9E00
4900
4500
3900
ENDCHAR
STARTCHAR 090B
ENCODING 2315
SWIDTH 810 0
DWIDTH 9 0
BBX 10 7 0 0
BITMAP
FFC0
0800
EB00
1F00
1900
6A00
0B80
ENDCHAR
STARTCHAR 090C
ENCODING 2316
SWIDTH 630 0
DWIDTH 7 0
BBX 8 8 0 -1
BITMAP
FF
04
64
5A
92
46
24
07
ENDCHAR
STARTCHAR 090D
ENCODING 2317
SWIDTH 540 0
DWIDTH 6 0
BBX 6 12 0 -2
BITMAP
44
2C
10
FC
48
48
48
48
20
18
08
08
ENDCHAR
STARTCHAR 090E
ENCODING 2318
SWIDTH 540 0
DWIDTH 6 0
BBX 6 12 0 -2
BITMAP
40
38
08
FC
48
48
48
48
20
18
08
08
ENDCHAR
STARTCHAR 090F
ENCODING 2319
SWIDTH 540 0
DWIDTH 6 0
BBX 6 9 0 -2
BITMAP
FC
48
48
48
48
20
18
08
08
ENDCHAR
STARTCHAR 0910
ENCODING 2320
SWIDTH 540 0
DWIDTH 6 0
BBX 6 12 0 -2
BITMAP
30
08
08
FC
48
48
48
48
20
18
08
08
ENDCHAR
STARTCHAR 0911
ENCODING 2321
SWIDTH 990 0
DWIDTH 11 0
BBX 12 10 0 0
BITMAP
0110
00A0
0040
3BF0
0940
1940
8F40
4940
3940
0140
ENDCHAR
STARTCHAR 0912
ENCODING 2322
SWIDTH 990 0
DWIDTH 11 0
BBX 12 10 0 0
BITMAP
0200
01C0
0040
3BF0
0940
1940
8F40
4940
3940
0140
ENDCHAR
STARTCHAR 0913
ENCODING 2323
SWIDTH 990 0
DWIDTH 11 0
BBX 12 10 0 0
BITMAP
0180
0040
0040
3BF0
0940
1940
8F40
4940
3940
0140
ENDCHAR
STARTCHAR 0914
ENCODING 2324
SWIDTH 990 0
DWIDTH 11 0
BBX 12 10 0 0
BITMAP
0180
0140
00C0
3BF0
0940
1940
8F40
4940
3940
0140
ENDCHAR
STARTCHAR 0915
ENCODING 2325
SWIDTH 720 0
DWIDTH 8 0
BBX 9 7 0 0
BITMAP
FF80
0800
7800
8F00
4900
3900
0800
ENDCHAR
STARTCHAR 0916
ENCODING 2326
SWIDTH 810 0
DWIDTH 9 0
BBX 9 7 0 0
BITMAP
FF80
2100
2F00
E900
4F00
2100
1F00
ENDCHAR
STARTCHAR 0917
ENCODING 2327
SWIDTH 540 0
DWIDTH 6 0
BBX 6 7 0 0
BITMAP
FC
48
48
C8
48
08
08
ENDCHAR
STARTCHAR 0918
ENCODING 2328
SWIDTH 540 0
DWIDTH 6 0
BBX 7 7 0 0
BITMAP
FE
84
64
44
4C
34
04
ENDCHAR
STARTCHAR 0919
ENCODING 2329
SWIDTH 630 0
DWIDTH 7 0
BBX 7 7 0 0
BITMAP
FE
08
38
42
3C
44
38
ENDCHAR
STARTCHAR 091A
ENCODING 2330
SWIDTH 630 0
DWIDTH 7 0
BBX 7 7 0 0
BITMAP
FE
04
F4
24
24
1C
04
ENDCHAR
STARTCHAR 091B
ENCODING 2331
SWIDTH 630 0
DWIDTH 7 0
BBX 8 7 0 0
BITMAP
FF
04
6A
8A
66
46
38
ENDCHAR
STARTCHAR 091C
ENCODING 2332
SWIDTH 720 0
DWIDTH 8 0
BBX 8 7 0 0
BITMAP
FF
02
9E
4A
4A
3A
02
ENDCHAR
STARTCHAR 091D
ENCODING 2333
SWIDTH 720 0
DWIDTH 8 0
BBX 9 8 0 -1
BITMAP
FF80
1200
7200
4200
7E00
0A00
7200
1800
ENDCHAR
STARTCHAR 091E
ENCODING 2334
SWIDTH 720 0
DWIDTH 8 0
BBX 8 7 0 0
BITMAP
FF
02
3A
86
4A
32
02
ENDCHAR
STARTCHAR 091F
ENCODING 2335
SWIDTH 450 0
DWIDTH 5 0
BBX 6 7 0 0
BITMAP
FC
10
30
40
80
40
78
ENDCHAR
STARTCHAR 0920
ENCODING 2336
SWIDTH 540 0
DWIDTH 6 0
BBX 7 7 0 0
BITMAP
FE
10
30
4C
84
44
78
ENDCHAR
STARTCHAR 0921
ENCODING 2337
SWIDTH 540 0
DWIDTH 6 0
BBX 7 7 0 0
BITMAP
FE
08
38
40
3C
44
38
ENDCHAR
STARTCHAR 0922
ENCODING 2338
SWIDTH 540 0
DWIDTH 6 0
BBX 6 7 0 0
BITMAP
FC
10
30
40
9C
64
38
ENDCHAR
STARTCHAR 0923
ENCODING 2339
SWIDTH 720 0
DWIDTH 8 0
BBX 8 7 0 0
BITMAP
FF
4A
4A
4A
52
22
02
ENDCHAR
STARTCHAR 0924
ENCODING 2340
SWIDTH 540 0
DWIDTH 6 0
BBX 6 7 0 0
BITMAP
FC
08
08
78
88
48
28
ENDCHAR
STARTCHAR 0925
ENCODING 2341
SWIDTH 630 0
DWIDTH 7 0
BBX 6 7 1 0
BITMAP
DC
A8
A8
C8
C8
38
08
ENDCHAR
STARTCHAR 0926
ENCODING 2342
SWIDTH 450 0
DWIDTH 5 0
BBX 6 7 0 -1
BITMAP
FC
10
70
40
88
78
08
ENDCHAR
STARTCHAR 0927
ENCODING 2343
SWIDTH 540 0
DWIDTH 6 0
BBX 7 7 0 0
BITMAP
6E
A4
44
64
44
3C
04
ENDCHAR
STARTCHAR 0928
ENCODING 2344
SWIDTH 540 0
DWIDTH 6 0
BBX 6 7 0 0
BITMAP
FC
08
08
F8
48
08
08
ENDCHAR
STARTCHAR 0929
ENCODING 2345
SWIDTH 540 0
DWIDTH 6 0
BBX 6 7 0 0
BITMAP
FC
08
08
F8
48
08
68
ENDCHAR
STARTCHAR 092A
ENCODING 2346
SWIDTH 540 0
DWIDTH 6 0
BBX 6 7 0 0
BITMAP
FC
48
48
48
58
28
08
ENDCHAR
STARTCHAR 092B
ENCODING 2347
SWIDTH 720 0
DWIDTH 8 0
BBX 9 7 0 0
BITMAP
FF80
4800
4800
4F00
5900
2900
0800
ENDCHAR
STARTCHAR 092C
ENCODING 2348
SWIDTH 540 0
DWIDTH 6 0
BBX 7 7 0 0
BITMAP
FE
08
78
A8
58
38
08
ENDCHAR
STARTCHAR 092D
ENCODING 2349
SWIDTH 630 0
DWIDTH 7 0
BBX 7 7 1 0
BITMAP
DE
A4
A4
7C
64
04
04
ENDCHAR
STARTCHAR 092E
ENCODING 2350
SWIDTH 540 0
DWIDTH 6 0
BBX 7 7 0 0
BITMAP
FE
44
44
7C
44
04
04
ENDCHAR
STARTCHAR 092F
ENCODING 2351
SWIDTH 540 0
DWIDTH 6 0
BBX 7 7 0 0
BITMAP
FE
28
28
48
48
38
08
ENDCHAR
STARTCHAR 0930
ENCODING 2352
SWIDTH 360 0
DWIDTH 4 0
BBX 5 7 0 0
BITMAP
F8
10
10
E0
40
20
10
ENDCHAR
STARTCHAR 0931
ENCODING 2353
SWIDTH 360 0
DWIDTH 4 0
BBX 5 7 0 0
BITMAP
F8
10
10
E0
40
20
50
ENDCHAR
STARTCHAR 0932
ENCODING 2354
SWIDTH 630 0
DWIDTH 7 0
BBX 8 7 0 0
BITMAP
FF
02
6E
5A
92
42
22
ENDCHAR
STARTCHAR 0933
ENCODING 2355
SWIDTH 720 0
DWIDTH 8 0
BBX 9 6 0 1
BITMAP
FF80
0200
7600
4900
8900
7F00
ENDCHAR
STARTCHAR 0934
ENCODING 2356
SWIDTH 720 0
DWIDTH 8 0
BBX 9 8 0 -2
BITMAP
FF80
0200
7600
4900
8900
7F00
0000
2000
ENDCHAR
STARTCHAR 0935
ENCODING 2357
SWIDTH 540 0
DWIDTH 6 0
BBX 6 7 0 0
BITMAP
FC
08
78
88
48
38
08
ENDCHAR
STARTCHAR 0936
ENCODING 2358
SWIDTH 630 0
DWIDTH 7 0
BBX 7 7 1 0
BITMAP
EE
A4
E4
24
C4
24
14
ENDCHAR
STARTCHAR 0937
ENCODING 2359
SWIDTH 540 0
DWIDTH 6 0
BBX 7 7 0 0
BITMAP
FE
68
58
58
58
28
08
ENDCHAR
STARTCHAR 0938
ENCODING 2360
SWIDTH 630 0
DWIDTH 7 0
BBX 8 7 0 0
BITMAP
FF
22
22
FE
42
22
12
ENDCHAR
STARTCHAR 0939
ENCODING 2361
SWIDTH 450 0
DWIDTH 5 0
BBX 6 8 0 -2
BITMAP
FC
08
78
40
78
48
48
20
ENDCHAR
STARTCHAR 093A
ENCODING 2362
SWIDTH 0 0
DWIDTH 0 0
BBX 1 2 -2 7
BITMAP
80
80
ENDCHAR
STARTCHAR 093B
ENCODING 2363
SWIDTH 180 0
DWIDTH 2 0
BBX 3 9 0 0
BITMAP
40
40
E0
40
40
40
40
40
40
ENDCHAR
STARTCHAR 093C
ENCODING 2364
SWIDTH 0 0
DWIDTH 0 0
BBX 1 1 -4 -2
BITMAP
80
ENDCHAR
STARTCHAR 093D
ENCODING 2365
SWIDTH 450 0
DWIDTH 5 0
BBX 5 7 0 0
BITMAP
30
40
20
10
88
48
30
ENDCHAR
STARTCHAR 093E
ENCODING 2366
SWIDTH 180 0
DWIDTH 2 0
BBX 3 7 0 0
BITMAP
E0
40
40
40
40
40
40
ENDCHAR
STARTCHAR 093F
ENCODING 2367
SWIDTH 180 0
DWIDTH 2 0
BBX 7 10 0 0
BITMAP
78
44
42
E0
40
40
40
40
40
40
ENDCHAR
STARTCHAR 0940
ENCODING 2368
SWIDTH 180 0
DWIDTH 2 0
BBX 5 10 -2 0
BITMAP
E0
A0
90
38
10
10
10
10
10
10
ENDCHAR
STARTCHAR 0941
ENCODING 2369
SWIDTH 0 0
DWIDTH 0 0
BBX 5 3 -5 -3
BITMAP
38
88
78
ENDCHAR
STARTCHAR 0942
ENCODING 2370
SWIDTH 0 0
DWIDTH 0 0
BBX 5 3 -4 -3
BITMAP
70
88
60
ENDCHAR
STARTCHAR 0943
ENCODING 2371
SWIDTH 0 0
DWIDTH 0 0
BBX 3 3 -3 -3
BITMAP
C0
80
E0
ENDCHAR
STARTCHAR 0944
ENCODING 2372
SWIDTH 0 0
DWIDTH 0 0
BBX 4 4 -3 -4
BITMAP
C0
80
60
70
ENDCHAR
STARTCHAR 0945
ENCODING 2373
SWIDTH 0 0
DWIDTH 0 0
BBX 5 2 -4 8
BITMAP
88
70
ENDCHAR
STARTCHAR 0946
ENCODING 2374
SWIDTH 0 0
DWIDTH 0 0
BBX 4 3 -5 7
BITMAP
80
E0
10
ENDCHAR
STARTCHAR 0947
ENCODING 2375
SWIDTH 0 0
DWIDTH 0 0
BBX 3 3 -4 7
BITMAP
C0
40
20
ENDCHAR
STARTCHAR 0948
ENCODING 2376
SWIDTH 0 0
DWIDTH 0 0
BBX 3 3 -4 7
BITMAP
C0
C0
60
ENDCHAR
STARTCHAR 0949
ENCODING 2377
SWIDTH 180 0
DWIDTH 2 0
BBX 4 10 -1 0
BITMAP
90
90
60
70
20
20
20
20
20
20
ENDCHAR
STARTCHAR 094A
ENCODING 2378
SWIDTH 180 0
DWIDTH 2 0
BBX 5 10 -2 0
BITMAP
80
E0
10
38
10
10
10
10
10
10
ENDCHAR
STARTCHAR 094B
ENCODING 2379
SWIDTH 180 0
DWIDTH 2 0
BBX 5 10 -2 0
BITMAP
E0
20
10
38
10
10
10
10
10
10
ENDCHAR
STARTCHAR 094C
ENCODING 2380
SWIDTH 180 0
DWIDTH 2 0
BBX 5 10 -2 0
BITMAP
E0
60
30
38
10
10
10
10
10
10
ENDCHAR
STARTCHAR 094D
ENCODING 2381
SWIDTH 0 0
DWIDTH 0 0
BBX 4 3 -2 -3
BITMAP
80
60
10
ENDCHAR
STARTCHAR 094E
ENCODING 2382
SWIDTH 270 0
DWIDTH 3 0
BBX 2 7 1 0
BITMAP
C0
80
80
80
80
80
80
ENDCHAR
STARTCHAR 094F
ENCODING 2383
SWIDTH 180 0
DWIDTH 2 0
BBX 5 9 -2 1
BITMAP
90
70
38
10
10
10
10
10
10
ENDCHAR
STARTCHAR 0950
ENCODING 2384
SWIDTH 900 0
DWIDTH 10 0
BBX 10 9 0 1
BITMAP
0800
0900
0600
3800
0B80
1A40
8C80
4B80
3800
ENDCHAR
STARTCHAR 0951
ENCODING 2385
SWIDTH 0 0
DWIDTH 0 0
BBX 1 3 -2 7
BITMAP
80
80
80
ENDCHAR
STARTCHAR 0952
ENCODING 2386
SWIDTH 0 0
DWIDTH 0 0
BBX 4 1 -5 -2
BITMAP
F0
ENDCHAR
STARTCHAR 0953
ENCODING 2387
SWIDTH 0 0
DWIDTH 0 0
BBX 2 2 -3 8
BITMAP
80
40
ENDCHAR
STARTCHAR 0954
ENCODING 2388
SWIDTH 0 0
DWIDTH 0 0
BBX 2 2 -2 8
BITMAP
40
80
ENDCHAR
STARTCHAR 0955
ENCODING 2389
SWIDTH 0 0
DWIDTH 0 0
BBX 4 3 -4 7
BITMAP
90
70
70
ENDCHAR
STARTCHAR 0956
ENCODING 2390
SWIDTH 0 0
DWIDTH 0 0
BBX 4 1 -5 -2
BITMAP
F0
ENDCHAR
STARTCHAR 0957
ENCODING 2391
SWIDTH 0 0
DWIDTH 0 0
BBX 4 3 -5 -3
BITMAP
10
E0
F0
ENDCHAR
STARTCHAR 0958
ENCODING 2392
SWIDTH 720 0
DWIDTH 8 0
BBX 9 7 0 -1
BITMAP
FF80
0800
7800
8F00
4900
3900
4800
ENDCHAR
STARTCHAR 0959
ENCODING 2393
SWIDTH 810 0
DWIDTH 9 0
BBX 9 7 0 0
BITMAP
FF80
2100
2F00
E900
4F00
2100
5F00
ENDCHAR
STARTCHAR 095A
ENCODING 2394
SWIDTH 540 0
DWIDTH 6 0
BBX 6 7 0 0
BITMAP
FC
48
48
C8
48
08
48
ENDCHAR
STARTCHAR 095B
ENCODING 2395
SWIDTH 720 0
DWIDTH 8 0
BBX 8 8 0 -1
BITMAP
FF
02
9E
4A
4A
3A
02
30
ENDCHAR
STARTCHAR 095C
ENCODING 2396
SWIDTH 540 0
DWIDTH 6 0
BBX 7 9 0 -2
BITMAP
FE
08
38
40
3C
44
38
00
10
ENDCHAR
STARTCHAR 095D
ENCODING 2397
SWIDTH 540 0
DWIDTH 6 0
BBX 6 9 0 -2
BITMAP
FC
10
30
40
9C
64
38
00
30
ENDCHAR
STARTCHAR 095E
ENCODING 2398
SWIDTH 720 0
DWIDTH 8 0
BBX 9 7 0 -1
BITMAP
FF80
4800
4800
4F00
5900
2900
4800
ENDCHAR
STARTCHAR 095F
ENCODING 2399
SWIDTH 540 0
DWIDTH 6 0
BBX 7 7 0 0
BITMAP
FE
28
28
48
48
38
48
ENDCHAR
STARTCHAR 0960
ENCODING 2400
SWIDTH 810 0
DWIDTH 9 0
BBX 10 9 0 -2
BITMAP
FFC0
0800
EB00
1F00
1900
6A00
0B80
0200
01C0
ENDCHAR
STARTCHAR 0961
ENCODING 2401
SWIDTH 630 0
DWIDTH 7 0
BBX 8 9 0 -2
BITMAP
FF
04
64
5A
92
44
25
06
07
ENDCHAR
STARTCHAR 0962
ENCODING 2402
SWIDTH 0 0
DWIDTH 0 0
BBX 5 4 -5 -4
BITMAP
F8
A8
98
58
ENDCHAR
STARTCHAR 0963
ENCODING 2403
SWIDTH 0 0
DWIDTH 0 0
BBX 6 4 -5 -4
BITMAP
F8
A8
8C
4C
ENDCHAR
STARTCHAR 0964
ENCODING 2404
SWIDTH 360 0
DWIDTH 4 0
BBX 1 7 2 0
BITMAP
80
80
80
80
80
80
80
ENDCHAR
STARTCHAR 0965
ENCODING 2405
SWIDTH 540 0
DWIDTH 6 0
BBX 4 7 2 0
BITMAP
90
90
90
90
90
90
90
ENDCHAR
STARTCHAR 0966
ENCODING 2406
SWIDTH 540 0
DWIDTH 6 0
BBX 4 5 1 1
BITMAP
60
90
90
90
60
ENDCHAR
STARTCHAR 0967
ENCODING 2407
SWIDTH 540 0
DWIDTH 6 0
BBX 4 8 1 -1
BITMAP
60
90
60
60
40
20
10
10
ENDCHAR
STARTCHAR 0968
ENCODING 2408
SWIDTH 540 0
DWIDTH 6 0
BBX 4 7 1 0
BITMAP
E0
10
10
B0
E0
20
10
ENDCHAR
STARTCHAR 0969
ENCODING 2409
SWIDTH 540 0
DWIDTH 6 0
BBX 4 8 1 -1
BITMAP
E0
10
60
10
10
E0
20
10
ENDCHAR
STARTCHAR 096A
ENCODING 2410
SWIDTH 540 0
DWIDTH 6 0
BBX 4 7 1 0
BITMAP
90
90
70
60
60
90
60
ENDCHAR
STARTCHAR 096B
ENCODING 2411
SWIDTH 540 0
DWIDTH 6 0
BBX 5 8 1 -1
BITMAP
80
80
80
90
70
10
08
08
ENDCHAR
STARTCHAR 096C
ENCODING 2412
SWIDTH 540 0
DWIDTH 6 0
BBX 5 8 1 -1
BITMAP
60
80
60
40
98
70
10
08
ENDCHAR
STARTCHAR 096D
ENCODING 2413
SWIDTH 540 0
DWIDTH 6 0
BBX 6 5 0 2
BITMAP
B8
68
54
44
38
ENDCHAR
STARTCHAR 096E
ENCODING 2414
SWIDTH 540 0
DWIDTH 6 0
BBX 4 7 1 0
BITMAP
10
20
40
C0
80
80
F0
ENDCHAR
STARTCHAR 096F
ENCODING 2415
SWIDTH 540 0
DWIDTH 6 0
BBX 5 8 1 -1
BITMAP
E0
A0
A0
40
20
10
08
08
ENDCHAR
STARTCHAR 0970
ENCODING 2416
SWIDTH 360 0
DWIDTH 4 0
BBX 3 3 1 3
BITMAP
E0
A0
C0
ENDCHAR
STARTCHAR 0971
ENCODING 2417
SWIDTH 270 0
DWIDTH 3 0
BBX 1 1 1 6
BITMAP
80
ENDCHAR
STARTCHAR 0972
ENCODING 2418
SWIDTH 720 0
DWIDTH 8 0
BBX 9 10 0 0
BITMAP
0880
0580
0200
3B80
0900
1900
8F00
4900
3900
0100
ENDCHAR
STARTCHAR 0973
ENCODING 2419
SWIDTH 720 0
DWIDTH 8 0
BBX 9 9 0 0
BITMAP
0100
0100
3B80
0900
1900
8F00
4900
3900
0100
ENDCHAR
STARTCHAR 0974
ENCODING 2420
SWIDTH 990 0
DWIDTH 11 0
BBX 12 9 0 0
BITMAP
0040
0040
3BF0
0940
1940
8F40
4940
3940
0140
ENDCHAR
STARTCHAR 0975
ENCODING 2421
SWIDTH 990 0
DWIDTH 11 0
BBX 12 10 0 0
BITMAP
0080
0260
01E0
3BF0
0940
1940
8F40
4940
3940
0140
ENDCHAR
STARTCHAR 0976
ENCODING 2422
SWIDTH 720 0
DWIDTH 8 0
BBX 9 9 0 -2
BITMAP
3B80
0900
1900
8F00
4900
3900
0100
0000
1E00
ENDCHAR
STARTCHAR 0977
ENCODING 2423
SWIDTH 720 0
DWIDTH 8 0
BBX 9 10 0 -3
BITMAP
3B80
0900
1900
8F00
4900
3900
0100
1000
0E00
1E00
ENDCHAR
STARTCHAR 0978
ENCODING 2424
SWIDTH 540 0
DWIDTH 6 0
BBX 6 6 0 0
BITMAP
FC
40
78
C4
44
08
ENDCHAR
STARTCHAR 0979
ENCODING 2425
SWIDTH 720 0
DWIDTH 8 0
BBX 8 8 0 -1
BITMAP
FF
02
9E
4A
6A
12
2A
10
ENDCHAR
STARTCHAR 097A
ENCODING 2426
SWIDTH 540 0
DWIDTH 6 0
BBX 7 7 0 0
BITMAP
FE
28
28
58
48
38
08
ENDCHAR
STARTCHAR 097B
ENCODING 2427
SWIDTH 540 0
DWIDTH 6 0
BBX 6 7 0 0
BITMAP
FC
48
48
C8
48
08
78
ENDCHAR
STARTCHAR 097C
ENCODING 2428
SWIDTH 720 0
DWIDTH 8 0
BBX 8 7 0 0
BITMAP
FF
02
9E
4A
6A
12
7E
ENDCHAR
STARTCHAR 097D
ENCODING 2429
SWIDTH 450 0
DWIDTH 5 0
BBX 4 7 1 0
BITMAP
E0
10
10
60
40
40
40
ENDCHAR
STARTCHAR 097E
ENCODING 2430
SWIDTH 540 0
DWIDTH 6 0
BBX 7 7 0 0
BITMAP
FE
08
30
38
84
7C
7C
ENDCHAR
STARTCHAR 097F
ENCODING 2431
SWIDTH 540 0
DWIDTH 6 0
BBX 7 7 0 0
BITMAP
FE
08
78
A8
58
28
78
ENDCHAR
STARTCHAR 1AB0
ENCODING 6832
SWIDTH 0 0
DWIDTH 0 0
BBX 6 2 -3 7
BITMAP
48
FC
ENDCHAR
STARTCHAR 1AB1
ENCODING 6833
SWIDTH 0 0
DWIDTH 0 0
BBX 6 2 -3 7
BITMAP
30
F4
ENDCHAR
STARTCHAR 1AB2
ENCODING 6834
SWIDTH 0 0
DWIDTH 0 0
BBX 5 2 -3 7
BITMAP
F8
F8
ENDCHAR
STARTCHAR 1AB3
ENCODING 6835
SWIDTH 0 0
DWIDTH 0 0
BBX 2 2 -1 7
BITMAP
80
C0
ENDCHAR
STARTCHAR 1AB4
ENCODING 6836
SWIDTH 0 0
DWIDTH 0 0
BBX 4 3 -2 7
BITMAP
60
00
90
ENDCHAR
STARTCHAR 1AB5
ENCODING 6837
SWIDTH 0 0
DWIDTH 0 0
BBX 4 1 -2 -3
BITMAP
90
ENDCHAR
STARTCHAR 1AB6
ENCODING 6838
SWIDTH 0 0
DWIDTH 0 0
BBX 10 2 -5 -3
BITMAP
CCC0
3300
ENDCHAR
STARTCHAR 1AB7
ENCODING 6839
SWIDTH 0 0
DWIDTH 0 0
BBX 2 3 -1 -3
BITMAP
80
80
40
ENDCHAR
STARTCHAR 1AB8
ENCODING 6840
SWIDTH 0 0
DWIDTH 0 0
BBX 4 3 -2 -3
BITMAP
A0
A0
50
ENDCHAR
STARTCHAR 1AB9
ENCODING 6841
SWIDTH 0 0
DWIDTH 0 0
BBX 2 3 -7 -3
BITMAP
40
80
80
ENDCHAR
STARTCHAR 1ABA
ENCODING 6842
SWIDTH 0 0
DWIDTH 0 0
BBX 2 3 -6 -3
BITMAP
40
80
80
ENDCHAR
STARTCHAR 1ABB
ENCODING 6843
SWIDTH 0 0
DWIDTH 0 0
BBX 4 2 -2 7
BITMAP
90
90
ENDCHAR
STARTCHAR 1ABC
ENCODING 6844
SWIDTH 0 0
DWIDTH 0 0
BBX 8 2 -4 7
BITMAP
C5
C5
ENDCHAR
STARTCHAR 1ABD
ENCODING 6845
SWIDTH 0 0
DWIDTH 0 0
BBX 4 3 -2 -3
BITMAP
90
90
90
ENDCHAR
STARTCHAR 1ABE
ENCODING 6846
SWIDTH 0 0
DWIDTH 0 0
BBX 9 1 -5 2
BITMAP
8080
ENDCHAR
STARTCHAR 1ABF
ENCODING 6847
SWIDTH 0 0
DWIDTH 0 0
BBX 4 2 -2 -3
BITMAP
F0
60
ENDCHAR
STARTCHAR 1AC0
ENCODING 6848
SWIDTH 0 0
DWIDTH 0 0
BBX 4 2 -2 -3
BITMAP
60
D0
ENDCHAR
STARTCHAR 1C80
ENCODING 7296
SWIDTH 540 0
DWIDTH 6 0
BBX 5 9 1 0
BITMAP
20
50
90
E0
80
80
F0
88
70
ENDCHAR
STARTCHAR 1C81
ENCODING 7297
SWIDTH 540 0
DWIDTH 6 0
BBX 6 9 0 -3
BITMAP
38
28
28
48
48
FC
84
84
84
ENDCHAR
STARTCHAR 1C82
ENCODING 7298
SWIDTH 450 0
DWIDTH 5 0
BBX 3 6 1 0
BITMAP
E0
A0
A0
A0
A0
E0
ENDCHAR
STARTCHAR 1C83
ENCODING 7299
SWIDTH 540 0
DWIDTH 6 0
BBX 5 6 1 0
BITMAP
78
80
80
80
80
78
ENDCHAR
STARTCHAR 1C84
ENCODING 7300
SWIDTH 360 0
DWIDTH 4 0
BBX 5 8 -1 0
BITMAP
F8
08
10
10
10
10
10
20
ENDCHAR
STARTCHAR 1C85
ENCODING 7301
SWIDTH 810 0
DWIDTH 9 0
BBX 8 6 1 0
BITMAP
FF
91
91
91
91
91
ENDCHAR
STARTCHAR 1C86
ENCODING 7302
SWIDTH 630 0
DWIDTH 7 0
BBX 6 8 0 0
BITMAP
C0
40
40
40
70
4C
44
7C
ENDCHAR
STARTCHAR 1C87
ENCODING 7303
SWIDTH 630 0
DWIDTH 7 0
BBX 6 8 0 0
BITMAP
40
40
F0
40
70
4C
44
7C
ENDCHAR
STARTCHAR 1C88
ENCODING 7304
SWIDTH 540 0
DWIDTH 6 0
BBX 5 8 1 0
BITMAP
88
50
60
D8
88
88
88
F0
ENDCHAR
STARTCHAR 1CD0
ENCODING 7376
SWIDTH 0 0
DWIDTH 0 0
BBX 4 2 -4 12
BITMAP
60
90
ENDCHAR
STARTCHAR 1CD1
ENCODING 7377
SWIDTH 0 0
DWIDTH 0 0
BBX 4 3 -4 10
BITMAP
40
60
D0
ENDCHAR
STARTCHAR 1CD2
ENCODING 7378
SWIDTH 0 0
DWIDTH 0 0
BBX 4 1 -4 11
BITMAP
F0
ENDCHAR
STARTCHAR 1CD3
ENCODING 7379
SWIDTH 270 0
DWIDTH 3 0
BBX 2 2 1 7
BITMAP
40
C0
ENDCHAR
STARTCHAR 1CD4
ENCODING 7380
SWIDTH 0 0
DWIDTH 0 0
BBX 3 1 -3 3
BITMAP
E0
ENDCHAR
STARTCHAR 1CD5
ENCODING 7381
SWIDTH 0 0
DWIDTH 0 0
BBX 5 2 -5 -3
BITMAP
A8
50
ENDCHAR
STARTCHAR 1CD6
ENCODING 7382
SWIDTH 0 0
DWIDTH 0 0
BBX 4 2 -5 -3
BITMAP
80
F0
ENDCHAR
STARTCHAR 1CD7
ENCODING 7383
SWIDTH 0 0
DWIDTH 0 0
BBX 4 3 -5 -3
BITMAP
40
80
F0
ENDCHAR
STARTCHAR 1CD8
ENCODING 7384
SWIDTH 0 0
DWIDTH 0 0
BBX 5 2 -4 -3
BITMAP
88
70
ENDCHAR
STARTCHAR 1CD9
ENCODING 7385
SWIDTH 0 0
DWIDTH 0 0
BBX 4 3 -3 -3
BITMAP
40
A0
10
ENDCHAR
STARTCHAR 1CDA
ENCODING 7386
SWIDTH 0 0
DWIDTH 0 0
BBX 2 3 -2 7
BITMAP
40
C0
40
ENDCHAR
STARTCHAR 1CDB
ENCODING 7387
SWIDTH 0 0
DWIDTH 0 0
BBX 3 3 -3 7
BITMAP
E0
E0
E0
ENDCHAR
STARTCHAR 1CDC
ENCODING 7388
SWIDTH 0 0
DWIDTH 0 0
BBX 1 2 -2 -3
BITMAP
80
80
ENDCHAR
STARTCHAR 1CDD
ENCODING 7389
SWIDTH 0 0
DWIDTH 0 0
BBX 1 2 -2 -3
BITMAP
80
80
ENDCHAR
STARTCHAR 1CDE
ENCODING 7390
SWIDTH 0 0
DWIDTH 0 0
BBX 3 1 -4 -2
BITMAP
E0
ENDCHAR
STARTCHAR 1CDF
ENCODING 7391
SWIDTH 0 0
DWIDTH 0 0
BBX 4 1 -5 -2
BITMAP
F0
ENDCHAR
STARTCHAR 1CE0
ENCODING 7392
SWIDTH 0 0
DWIDTH 0 0
BBX 5 3 0 6
BITMAP
78
80
40
ENDCHAR
STARTCHAR 1CE1
ENCODING 7393
SWIDTH 360 0
DWIDTH 4 0
BBX 5 11 0 -1
BITMAP
38
40
20
20
20
20
20
20
20
20
C0
ENDCHAR
STARTCHAR 1CE2
ENCODING 7394
SWIDTH 0 0
DWIDTH 0 0
BBX 3 1 -3 3
BITMAP
E0
ENDCHAR
STARTCHAR 1CE3
ENCODING 7395
SWIDTH 0 0
DWIDTH 0 0
BBX 3 3 -1 4
BITMAP
40
20
E0
ENDCHAR
STARTCHAR 1CE4
ENCODING 7396
SWIDTH 0 0
DWIDTH 0 0
BBX 3 3 0 4
BITMAP
40
80
E0
ENDCHAR
STARTCHAR 1CE5
ENCODING 7397
SWIDTH 0 0
DWIDTH 0 0
BBX 3 3 0 0
BITMAP
E0
40
60
ENDCHAR
STARTCHAR 1CE6
ENCODING 7398
SWIDTH 0 0
DWIDTH 0 0
BBX 3 3 -1 0
BITMAP
E0
20
40
ENDCHAR
STARTCHAR 1CE7
ENCODING 7399
SWIDTH 0 0
DWIDTH 0 0
BBX 3 5 -1 4
BITMAP
E0
80
40
20
E0
ENDCHAR
STARTCHAR 1CE8
ENCODING 7400
SWIDTH 0 0
DWIDTH 0 0
BBX 3 5 0 -2
BITMAP
E0
40
60
20
E0
ENDCHAR
STARTCHAR 1CE9
ENCODING 7401
SWIDTH 720 0
DWIDTH 8 0
BBX 7 7 1 0
BITMAP
EC
AA
EE
82
82
82
7C
ENDCHAR
STARTCHAR 1CEA
ENCODING 7402
SWIDTH 720 0
DWIDTH 8 0
BBX 8 7 0 0
BITMAP
67
95
66
22
42
42
3C
ENDCHAR
STARTCHAR 1CEB
ENCODING 7403
SWIDTH 720 0
DWIDTH 8 0
BBX 8 7 0 0
BITMAP
60
9E
69
27
41
42
3C
ENDCHAR
STARTCHAR 1CEC
ENCODING 7404
SWIDTH 810 0
DWIDTH 9 0
BBX 9 7 0 0
BITMAP
6000
9E00
6A00
2700
4280
4280
3C00
ENDCHAR
STARTCHAR 1CED
ENCODING 7405
SWIDTH 0 0
DWIDTH 0 0
BBX 2 2 -1 -2
BITMAP
80
40
ENDCHAR
STARTCHAR 1CEE
ENCODING 7406
SWIDTH 450 0
DWIDTH 5 0
BBX 5 7 1 0
BITMAP
E0
80
80
68
80
90
70
ENDCHAR
STARTCHAR 1CEF
ENCODING 7407
SWIDTH 450 0
DWIDTH 5 0
BBX 4 7 1 0
BITMAP
E0
80
A0
F0
80
A0
E0
ENDCHAR
STARTCHAR 1CF0
ENCODING 7408
SWIDTH 540 0
DWIDTH 6 0
BBX 5 7 0 0
BITMAP
30
40
28
30
48
88
78
ENDCHAR
STARTCHAR 1CF1
ENCODING 7409
SWIDTH 450 0
DWIDTH 5 0
BBX 5 6 0 1
BITMAP
40
90
C0
38
48
10
ENDCHAR
STARTCHAR 1CF2
ENCODING 7410
SWIDTH 450 0
DWIDTH 5 0
BBX 4 5 1 0
BITMAP
10
90
60
E0
90
ENDCHAR
STARTCHAR 1CF3
ENCODING 7411
SWIDTH 540 0
DWIDTH 6 0
BBX 4 4 1 2
BITMAP
90
60
60
90
ENDCHAR
STARTCHAR 1CF4
ENCODING 7412
SWIDTH 0 0
DWIDTH 0 0
BBX 5 2 -4 11
BITMAP
88
70
ENDCHAR
STARTCHAR 1CF5
ENCODING 7413
SWIDTH 450 0
DWIDTH 5 0
BBX 4 6 1 0
BITMAP
10
90
60
60
90
10
ENDCHAR
STARTCHAR 1CF6
ENCODING 7414
SWIDTH 540 0
DWIDTH 6 0
BBX 5 3 1 2
BITMAP
20
A8
D8
ENDCHAR
STARTCHAR 1CF8
ENCODING 7416
SWIDTH 0 0
DWIDTH 0 0
BBX 3 3 -3 7
BITMAP
40
A0
40
ENDCHAR
STARTCHAR 1CF9
ENCODING 7417
SWIDTH 0 0
DWIDTH 0 0
BBX 5 3 -4 7
BITMAP
50
A8
50
ENDCHAR
STARTCHAR 1D00
ENCODING 7424
SWIDTH 450 0
DWIDTH 5 0
BBX 6 6 0 0
BITMAP
30
30
50
78
48
84
ENDCHAR
STARTCHAR 1D01
ENCODING 7425
SWIDTH 630 0
DWIDTH 7 0
BBX 7 6 0 0
BITMAP
1E
28
2E
78
48
8E
ENDCHAR
STARTCHAR 1D02
ENCODING 7426
SWIDTH 810 0
DWIDTH 9 0
BBX 8 6 1 0
BITMAP
E7
19
11
FE
90
EF
ENDCHAR
STARTCHAR 1D03
ENCODING 7427
SWIDTH 540 0
DWIDTH 6 0
BBX 5 6 1 0
BITMAP
F0
88
F0
98
88
F0
ENDCHAR
STARTCHAR 1D04
ENCODING 7428
SWIDTH 450 0
DWIDTH 5 0
BBX 4 6 1 0
BITMAP
70
80
80
80
80
70
ENDCHAR
STARTCHAR 1D05
ENCODING 7429
SWIDTH 540 0
DWIDTH 6 0
BBX 5 6 1 0
BITMAP
F0
88
88
88
88
F0
ENDCHAR
STARTCHAR 1D06
ENCODING 7430
SWIDTH 540 0
DWIDTH 6 0
BBX 5 6 1 0
BITMAP
F0
88
88
C8
88
F0
ENDCHAR
STARTCHAR 1D07
ENCODING 7431
SWIDTH 450 0
DWIDTH 5 0
BBX 4 6 1 0
BITMAP
F0
80
E0
80
80
F0
ENDCHAR
STARTCHAR 1D08
ENCODING 7432
SWIDTH 450 0
DWIDTH 5 0
BBX 5 6 0 0
BITMAP
F0
08
08
70
08
70
ENDCHAR
STARTCHAR 1D09
ENCODING 7433
SWIDTH 270 0
DWIDTH 3 0
BBX 1 8 1 -2
BITMAP
80
80
80
80
80
80
00
80
ENDCHAR
STARTCHAR 1D0A
ENCODING 7434
SWIDTH 270 0
DWIDTH 3 0
BBX 2 6 1 0
BITMAP
40
40
40
40
40
C0
ENDCHAR
STARTCHAR 1D0B
ENCODING 7435
SWIDTH 450 0
DWIDTH 5 0
BBX 4 6 1 0
BITMAP
90
A0
C0
A0
A0
90
ENDCHAR
STARTCHAR 1D0C
ENCODING 7436
SWIDTH 360 0
DWIDTH 4 0
BBX 5 6 0 0
BITMAP
40
40
60
C0
40
78
ENDCHAR
STARTCHAR 1D0D
ENCODING 7437
SWIDTH 720 0
DWIDTH 8 0
BBX 6 6 1 0
BITMAP
84
CC
CC
B4
B4
B4
ENDCHAR
STARTCHAR 1D0E
ENCODING 7438
SWIDTH 540 0
DWIDTH 6 0
BBX 5 6 1 0
BITMAP
88
98
A8
A8
C8
88
ENDCHAR
STARTCHAR 1D0F
ENCODING 7439
SWIDTH 630 0
DWIDTH 7 0
BBX 5 6 1 0
BITMAP
70
88
88
88
88
70
ENDCHAR
STARTCHAR 1D10
ENCODING 7440
SWIDTH 450 0
DWIDTH 5 0
BBX 5 6 0 0
BITMAP
F0
08
08
08
08
70
ENDCHAR
STARTCHAR 1D11
ENCODING 7441
SWIDTH 540 0
DWIDTH 6 0
BBX 6 6 0 0
BITMAP
38
44
84
84
44
38
ENDCHAR
STARTCHAR 1D12
ENCODING 7442
SWIDTH 540 0
DWIDTH 6 0
BBX 6 4 0 1
BITMAP
7C
84
84
84
ENDCHAR
STARTCHAR 1D13
ENCODING 7443
SWIDTH 540 0
DWIDTH 6 0
BBX 6 6 0 0
BITMAP
38
44
A4
9C
44
38
ENDCHAR
STARTCHAR 1D14
ENCODING 7444
SWIDTH 900 0
DWIDTH 10 0
BBX 9 6 1 0
BITMAP
E700
1880
0880
F880
9880
F700
ENDCHAR
STARTCHAR 1D15
ENCODING 7445
SWIDTH 540 0
DWIDTH 6 0
BBX 4 6 1 0
BITMAP
90
90
F0
90
90
F0
ENDCHAR
STARTCHAR 1D16
ENCODING 7446
SWIDTH 630 0
DWIDTH 7 0
BBX 5 3 1 3
BITMAP
70
88
88
ENDCHAR
STARTCHAR 1D17
ENCODING 7447
SWIDTH 630 0
DWIDTH 7 0
BBX 5 3 1 0
BITMAP
88
88
70
ENDCHAR
STARTCHAR 1D18
ENCODING 7448
SWIDTH 450 0
DWIDTH 5 0
BBX 4 6 1 0
BITMAP
E0
90
90
E0
80
80
ENDCHAR
STARTCHAR 1D19
ENCODING 7449
SWIDTH 450 0
DWIDTH 5 0
BBX 4 6 1 0
BITMAP
F0
90
90
70
90
90
ENDCHAR
STARTCHAR 1D1A
ENCODING 7450
SWIDTH 450 0
DWIDTH 5 0
BBX 4 6 1 0
BITMAP
90
90
70
90
90
F0
ENDCHAR
STARTCHAR 1D1B
ENCODING 7451
SWIDTH 450 0
DWIDTH 5 0
BBX 5 6 0 0
BITMAP
F8
20
20
20
20
20
ENDCHAR
STARTCHAR 1D1C
ENCODING 7452
SWIDTH 540 0
DWIDTH 6 0
BBX 5 6 1 0
BITMAP
88
88
88
88
88
70
ENDCHAR
STARTCHAR 1D1D
ENCODING 7453
SWIDTH 540 0
DWIDTH 6 0
BBX 6 5 0 1
BITMAP
FC
0C
04
04
7C
ENDCHAR
STARTCHAR 1D1E
ENCODING 7454
SWIDTH 720 0
DWIDTH 8 0
BBX 8 6 0 0
BITMAP
3F
83
01
01
01
3C
ENDCHAR
STARTCHAR 1D1F
ENCODING 7455
SWIDTH 540 0
DWIDTH 6 0
BBX 7 8 0 -1
BITMAP
FC
04
02
04
7C
04
02
FC
ENDCHAR
STARTCHAR 1D20
ENCODING 7456
SWIDTH 450 0
DWIDTH 5 0
BBX 5 6 0 0
BITMAP
88
88
50
50
50
20
ENDCHAR
STARTCHAR 1D21
ENCODING 7457
SWIDTH 630 0
DWIDTH 7 0
BBX 8 6 0 0
BITMAP
99
9A
5A
6A
66
64
ENDCHAR
STARTCHAR 1D22
ENCODING 7458
SWIDTH 450 0
DWIDTH 5 0
BBX 5 6 0 0
BITMAP
78
10
20
20
40
F8
ENDCHAR
STARTCHAR 1D23
ENCODING 7459
SWIDTH 450 0
DWIDTH 5 0
BBX 5 6 0 0
BITMAP
F8
10
70
08
08
F0
ENDCHAR
STARTCHAR 1D24
ENCODING 7460
SWIDTH 360 0
DWIDTH 4 0
BBX 5 8 0 1
BITMAP
F0
10
10
20
60
80
80
78
ENDCHAR
STARTCHAR 1D25
ENCODING 7461
SWIDTH 450 0
DWIDTH 5 0
BBX 5 6 0 0
BITMAP
70
78
78
30
30
D8
ENDCHAR
STARTCHAR 1D26
ENCODING 7462
SWIDTH 360 0
DWIDTH 4 0
BBX 4 6 1 0
BITMAP
F0
80
80
80
80
80
ENDCHAR
STARTCHAR 1D27
ENCODING 7463
SWIDTH 450 0
DWIDTH 5 0
BBX 5 6 0 0
BITMAP
20
30
50
58
48
88
ENDCHAR
STARTCHAR 1D28
ENCODING 7464
SWIDTH 540 0
DWIDTH 6 0
BBX 5 6 1 0
BITMAP
F8
88
88
88
88
88
ENDCHAR
STARTCHAR 1D29
ENCODING 7465
SWIDTH 450 0
DWIDTH 5 0
BBX 4 6 1 0
BITMAP
E0
90
90
E0
80
80
ENDCHAR
STARTCHAR 1D2A
ENCODING 7466
SWIDTH 630 0
DWIDTH 7 0
BBX 6 6 1 0
BITMAP
A4
A4
A4
F8
20
20
ENDCHAR
STARTCHAR 1D2B
ENCODING 7467
SWIDTH 540 0
DWIDTH 6 0
BBX 5 6 0 0
BITMAP
38
28
28
48
48
C8
ENDCHAR
STARTCHAR 1D2C
ENCODING 7468
SWIDTH 360 0
DWIDTH 4 0
BBX 4 5 0 3
BITMAP
20
60
50
B0
80
ENDCHAR
STARTCHAR 1D2D
ENCODING 7469
SWIDTH 540 0
DWIDTH 6 0
BBX 6 5 0 3
BITMAP
3C
50
5C
B0
9C
ENDCHAR
STARTCHAR 1D2E
ENCODING 7470
SWIDTH 360 0
DWIDTH 4 0
BBX 3 5 1 3
BITMAP
E0
A0
E0
A0
E0
ENDCHAR
STARTCHAR 1D2F
ENCODING 7471
SWIDTH 360 0
DWIDTH 4 0
BBX 5 5 0 3
BITMAP
70
90
F8
90
70
ENDCHAR
STARTCHAR 1D30
ENCODING 7472
SWIDTH 450 0
DWIDTH 5 0
BBX 4 5 1 3
BITMAP
E0
90
90
90
E0
ENDCHAR
STARTCHAR 1D31
ENCODING 7473
SWIDTH 360 0
DWIDTH 4 0
BBX 3 5 1 3
BITMAP
E0
80
C0
80
E0
ENDCHAR
STARTCHAR 1D32
ENCODING 7474
SWIDTH 360 0
DWIDTH 4 0
BBX 3 5 0 3
BITMAP
E0
20
60
20
E0
ENDCHAR
STARTCHAR 1D33
ENCODING 7475
SWIDTH 450 0
DWIDTH 5 0
BBX 5 5 0 3
BITMAP
78
80
98
88
78
ENDCHAR
STARTCHAR 1D34
ENCODING 7476
SWIDTH 450 0
DWIDTH 5 0
BBX 4 5 1 3
BITMAP
10
90
F0
90
10
ENDCHAR
STARTCHAR 1D35
ENCODING 7477
SWIDTH 180 0
DWIDTH 2 0
BBX 2 5 0 3
BITMAP
40
40
40
40
C0
ENDCHAR
STARTCHAR 1D36
ENCODING 7478
SWIDTH 90 0
DWIDTH 1 0
BBX 2 5 -1 3
BITMAP
40
40
40
40
C0
ENDCHAR
STARTCHAR 1D37
ENCODING 7479
SWIDTH 360 0
DWIDTH 4 0
BBX 3 5 1 3
BITMAP
20
C0
C0
C0
20
ENDCHAR
STARTCHAR 1D38
ENCODING 7480
SWIDTH 270 0
DWIDTH 3 0
BBX 3 4 1 4
BITMAP
80
80
80
E0
ENDCHAR
STARTCHAR 1D39
ENCODING 7481
SWIDTH 540 0
DWIDTH 6 0
BBX 5 5 1 3
BITMAP
88
98
E8
E8
28
ENDCHAR
STARTCHAR 1D3A
ENCODING 7482
SWIDTH 450 0
DWIDTH 5 0
BBX 4 5 1 3
BITMAP
90
90
D0
B0
10
ENDCHAR
STARTCHAR 1D3B
ENCODING 7483
SWIDTH 450 0
DWIDTH 5 0
BBX 4 5 1 3
BITMAP
10
B0
D0
90
90
ENDCHAR
STARTCHAR 1D3C
ENCODING 7484
SWIDTH 450 0
DWIDTH 5 0
BBX 5 5 0 3
BITMAP
70
88
88
88
70
ENDCHAR
STARTCHAR 1D3D
ENCODING 7485
SWIDTH 360 0
DWIDTH 4 0
BBX 4 4 0 4
BITMAP
50
B0
90
70
ENDCHAR
STARTCHAR 1D3E
ENCODING 7486
SWIDTH 360 0
DWIDTH 4 0
BBX 3 4 1 3
BITMAP
E0
A0
E0
80
ENDCHAR
STARTCHAR 1D3F
ENCODING 7487
SWIDTH 360 0
DWIDTH 4 0
BBX 3 5 1 3
BITMAP
E0
A0
C0
A0
20
ENDCHAR
STARTCHAR 1D40
ENCODING 7488
SWIDTH 360 0
DWIDTH 4 0
BBX 4 4 0 3
BITMAP
F0
40
40
40
ENDCHAR
STARTCHAR 1D41
ENCODING 7489
SWIDTH 450 0
DWIDTH 5 0
BBX 4 5 1 3
BITMAP
10
90
90
90
E0
ENDCHAR
STARTCHAR 1D42
ENCODING 7490
SWIDTH 540 0
DWIDTH 6 0
BBX 6 5 0 3
BITMAP
90
B4
B4
6C
48
ENDCHAR
STARTCHAR 1D43
ENCODING 7491
SWIDTH 360 0
DWIDTH 4 0
BBX 3 4 0 3
BITMAP
60
20
E0
60
ENDCHAR
STARTCHAR 1D44
ENCODING 7492
SWIDTH 360 0
DWIDTH 4 0
BBX 3 4 1 3
BITMAP
C0
A0
C0
C0
ENDCHAR
STARTCHAR 1D45
ENCODING 7493
SWIDTH 360 0
DWIDTH 4 0
BBX 4 4 0 3
BITMAP
70
90
90
70
ENDCHAR
STARTCHAR 1D46
ENCODING 7494
SWIDTH 540 0
DWIDTH 6 0
BBX 6 4 0 3
BITMAP
6C
14
F8
7C
ENDCHAR
STARTCHAR 1D47
ENCODING 7495
SWIDTH 360 0
DWIDTH 4 0
BBX 3 5 1 3
BITMAP
80
C0
A0
A0
E0
ENDCHAR
STARTCHAR 1D48
ENCODING 7496
SWIDTH 360 0
DWIDTH 4 0
BBX 4 5 0 3
BITMAP
10
70
90
90
70
ENDCHAR
STARTCHAR 1D49
ENCODING 7497
SWIDTH 360 0
DWIDTH 4 0
BBX 4 4 0 3
BITMAP
60
90
E0
70
ENDCHAR
STARTCHAR 1D4A
ENCODING 7498
SWIDTH 360 0
DWIDTH 4 0
BBX 4 4 0 3
BITMAP
60
10
F0
60
ENDCHAR
STARTCHAR 1D4B
ENCODING 7499
SWIDTH 270 0
DWIDTH 3 0
BBX 3 4 0 3
BITMAP
60
80
C0
60
ENDCHAR
STARTCHAR 1D4C
ENCODING 7500
SWIDTH 270 0
DWIDTH 3 0
BBX 3 4 0 3
BITMAP
E0
20
20
E0
ENDCHAR
STARTCHAR 1D4D
ENCODING 7501
SWIDTH 360 0
DWIDTH 4 0
BBX 4 5 0 2
BITMAP
70
90
90
70
30
ENDCHAR
STARTCHAR 1D4E
ENCODING 7502
SWIDTH 90 0
DWIDTH 1 0
BBX 1 2 0 3
BITMAP
80
80
ENDCHAR
STARTCHAR 1D4F
ENCODING 7503
SWIDTH 270 0
DWIDTH 3 0
BBX 3 5 1 3
BITMAP
80
80
C0
C0
20
ENDCHAR
STARTCHAR 1D50
ENCODING 7504
SWIDTH 540 0
DWIDTH 6 0
BBX 5 4 1 3
BITMAP
D8
A8
A8
20
ENDCHAR
STARTCHAR 1D51
ENCODING 7505
SWIDTH 360 0
DWIDTH 4 0
BBX 3 5 1 2
BITMAP
E0
A0
A0
20
20
ENDCHAR
STARTCHAR 1D52
ENCODING 7506
SWIDTH 360 0
DWIDTH 4 0
BBX 4 4 0 3
BITMAP
60
90
90
60
ENDCHAR
STARTCHAR 1D53
ENCODING 7507
SWIDTH 270 0
DWIDTH 3 0
BBX 3 4 0 3
BITMAP
C0
20
20
C0
ENDCHAR
STARTCHAR 1D54
ENCODING 7508
SWIDTH 360 0
DWIDTH 4 0
BBX 4 2 0 5
BITMAP
60
90
ENDCHAR
STARTCHAR 1D55
ENCODING 7509
SWIDTH 360 0
DWIDTH 4 0
BBX 4 2 0 3
BITMAP
90
70
ENDCHAR
STARTCHAR 1D56
ENCODING 7510
SWIDTH 360 0
DWIDTH 4 0
BBX 3 5 1 2
BITMAP
C0
A0
A0
E0
80
ENDCHAR
STARTCHAR 1D57
ENCODING 7511
SWIDTH 180 0
DWIDTH 2 0
BBX 2 4 0 4
BITMAP
C0
80
80
40
ENDCHAR
STARTCHAR 1D58
ENCODING 7512
SWIDTH 360 0
DWIDTH 4 0
BBX 3 4 1 3
BITMAP
20
A0
A0
E0
ENDCHAR
STARTCHAR 1D59
ENCODING 7513
SWIDTH 360 0
DWIDTH 4 0
BBX 4 4 0 3
BITMAP
F0
10
10
E0
ENDCHAR
STARTCHAR 1D5A
ENCODING 7514
SWIDTH 540 0
DWIDTH 6 0
BBX 5 4 1 3
BITMAP
28
A8
A8
F0
ENDCHAR
STARTCHAR 1D5B
ENCODING 7515
SWIDTH 270 0
DWIDTH 3 0
BBX 4 4 0 3
BITMAP
90
A0
60
40
ENDCHAR
STARTCHAR 1D5C
ENCODING 7516
SWIDTH 270 0
DWIDTH 3 0
BBX 4 4 0 3
BITMAP
60
60
60
B0
ENDCHAR
STARTCHAR 1D5D
ENCODING 7517
SWIDTH 360 0
DWIDTH 4 0
BBX 3 6 1 2
BITMAP
E0
A0
A0
A0
E0
80
ENDCHAR
STARTCHAR 1D5E
ENCODING 7518
SWIDTH 270 0
DWIDTH 3 0
BBX 4 5 0 2
BITMAP
90
A0
A0
40
40
ENDCHAR
STARTCHAR 1D5F
ENCODING 7519
SWIDTH 360 0
DWIDTH 4 0
BBX 4 5 0 3
BITMAP
60
40
B0
90
60
ENDCHAR
STARTCHAR 1D60
ENCODING 7520
SWIDTH 450 0
DWIDTH 5 0
BBX 5 6 0 2
BITMAP
20
70
A8
A8
70
20
ENDCHAR
STARTCHAR 1D61
ENCODING 7521
SWIDTH 270 0
DWIDTH 3 0
BBX 4 5 0 2
BITMAP
90
60
20
60
B0
ENDCHAR
STARTCHAR 1D62
ENCODING 7522
SWIDTH 90 0
DWIDTH 1 0
BBX 1 3 0 1
BITMAP
80
80
80
ENDCHAR
STARTCHAR 1D63
ENCODING 7523
SWIDTH 180 0
DWIDTH 2 0
BBX 2 4 1 -1
BITMAP
40
80
80
80
ENDCHAR
STARTCHAR 1D64
ENCODING 7524
SWIDTH 360 0
DWIDTH 4 0
BBX 3 4 1 -1
BITMAP
20
A0
A0
E0
ENDCHAR
STARTCHAR 1D65
ENCODING 7525
SWIDTH 270 0
DWIDTH 3 0
BBX 4 4 0 -1
BITMAP
90
A0
A0
40
ENDCHAR
STARTCHAR 1D66
ENCODING 7526
SWIDTH 360 0
DWIDTH 4 0
BBX 3 6 1 -3
BITMAP
E0
A0
C0
A0
A0
C0
ENDCHAR
STARTCHAR 1D67
ENCODING 7527
SWIDTH 270 0
DWIDTH 3 0
BBX 4 5 0 -2
BITMAP
90
A0
A0
60
40
ENDCHAR
STARTCHAR 1D68
ENCODING 7528
SWIDTH 360 0
DWIDTH 4 0
BBX 3 5 1 -3
BITMAP
40
A0
A0
A0
80
ENDCHAR
STARTCHAR 1D69
ENCODING 7529
SWIDTH 450 0
DWIDTH 5 0
BBX 5 7 0 -3
BITMAP
20
20
F8
A8
70
20
20
ENDCHAR
STARTCHAR 1D6A
ENCODING 7530
SWIDTH 270 0
DWIDTH 3 0
BBX 4 6 0 -3
BITMAP
80
50
60
20
60
90
ENDCHAR
STARTCHAR 1D6B
ENCODING 7531
SWIDTH 900 0
DWIDTH 10 0
BBX 9 6 1 0
BITMAP
8F00
8880
8F80
8800
8800
7780
ENDCHAR
STARTCHAR 1D6C
ENCODING 7532
SWIDTH 540 0
DWIDTH 6 0
BBX 6 8 0 0
BITMAP
C0
60
78
44
44
44
44
78
ENDCHAR
STARTCHAR 1D6D
ENCODING 7533
SWIDTH 540 0
DWIDTH 6 0
BBX 6 8 1 0
BITMAP
18
0C
F8
88
88
88
88
F8
ENDCHAR
STARTCHAR 1D6E
ENCODING 7534
SWIDTH 270 0
DWIDTH 3 0
BBX 4 8 0 1
BITMAP
70
40
F0
40
D0
E0
40
40
ENDCHAR
STARTCHAR 1D6F
ENCODING 7535
SWIDTH 900 0
DWIDTH 10 0
BBX 11 6 0 0
BITMAP
7B80
4480
64A0
DFC0
4480
4480
ENDCHAR
STARTCHAR 1D70
ENCODING 7536
SWIDTH 540 0
DWIDTH 6 0
BBX 7 6 0 0
BITMAP
78
44
66
DE
44
44
ENDCHAR
STARTCHAR 1D71
ENCODING 7537
SWIDTH 540 0
DWIDTH 6 0
BBX 5 9 1 -3
BITMAP
F0
88
88
88
88
F0
80
C0
80
ENDCHAR
STARTCHAR 1D72
ENCODING 7538
SWIDTH 360 0
DWIDTH 4 0
BBX 4 6 0 0
BITMAP
70
40
40
E0
40
40
ENDCHAR
STARTCHAR 1D73
ENCODING 7539
SWIDTH 270 0
DWIDTH 3 0
BBX 4 6 0 0
BITMAP
70
40
40
E0
40
40
ENDCHAR
STARTCHAR 1D74
ENCODING 7540
SWIDTH 450 0
DWIDTH 5 0
BBX 5 6 0 0
BITMAP
78
40
E0
98
08
70
ENDCHAR
STARTCHAR 1D75
ENCODING 7541
SWIDTH 360 0
DWIDTH 4 0
BBX 4 7 0 0
BITMAP
40
F0
40
C0
60
40
70
ENDCHAR
STARTCHAR 1D76
ENCODING 7542
SWIDTH 450 0
DWIDTH 5 0
BBX 5 6 0 0
BITMAP
78
10
78
B0
40
F8
ENDCHAR
STARTCHAR 1D77
ENCODING 7543
SWIDTH 540 0
DWIDTH 6 0
BBX 5 9 1 0
BITMAP
30
C8
80
F0
88
88
88
88
F0
ENDCHAR
STARTCHAR 1D78
ENCODING 7544
SWIDTH 360 0
DWIDTH 4 0
BBX 3 4 1 3
BITMAP
20
A0
E0
20
ENDCHAR
STARTCHAR 1D79
ENCODING 7545
SWIDTH 540 0
DWIDTH 6 0
BBX 6 9 0 -3
BITMAP
7C
10
20
38
4C
C4
44
4C
30
ENDCHAR
STARTCHAR 1D7A
ENCODING 7546
SWIDTH 900 0
DWIDTH 10 0
BBX 10 9 0 -1
BITMAP
0500
4600
F780
4440
4C40
5440
6440
7440
4000
ENDCHAR
STARTCHAR 1D7B
ENCODING 7547
SWIDTH 270 0
DWIDTH 3 0
BBX 3 6 0 0
BITMAP
E0
40
E0
40
40
E0
ENDCHAR
STARTCHAR 1D7C
ENCODING 7548
SWIDTH 270 0
DWIDTH 3 0
BBX 3 6 0 0
BITMAP
40
40
E0
40
40
60
ENDCHAR
STARTCHAR 1D7D
ENCODING 7549
SWIDTH 540 0
DWIDTH 6 0
BBX 7 9 0 -3
BITMAP
78
44
FE
44
44
78
40
40
40
ENDCHAR
STARTCHAR 1D7E
ENCODING 7550
SWIDTH 540 0
DWIDTH 6 0
BBX 7 6 0 0
BITMAP
44
44
FE
44
44
38
ENDCHAR
STARTCHAR 1D7F
ENCODING 7551
SWIDTH 540 0
DWIDTH 6 0
BBX 7 6 0 0
BITMAP
EC
44
FE
44
44
38
ENDCHAR
STARTCHAR 1D80
ENCODING 7552
SWIDTH 540 0
DWIDTH 6 0
BBX 5 10 1 -2
BITMAP
80
80
F0
88
88
88
88
F0
10
30
ENDCHAR
STARTCHAR 1D81
ENCODING 7553
SWIDTH 540 0
DWIDTH 6 0
BBX 5 10 1 -2
BITMAP
08
08
F8
88
88
88
88
F8
08
18
ENDCHAR
STARTCHAR 1D82
ENCODING 7554
SWIDTH 270 0
DWIDTH 3 0
BBX 4 10 0 -1
BITMAP
70
40
F0
40
40
40
40
60
20
60
ENDCHAR
STARTCHAR 1D83
ENCODING 7555
SWIDTH 720 0
DWIDTH 8 0
BBX 7 9 1 -3
BITMAP
78
88
88
88
88
FE
0A
1E
60
ENDCHAR
STARTCHAR 1D84
ENCODING 7556
SWIDTH 450 0
DWIDTH 5 0
BBX 5 10 1 -2
BITMAP
80
80
90
A0
C0
A0
90
98
08
18
ENDCHAR
STARTCHAR 1D85
ENCODING 7557
SWIDTH 180 0
DWIDTH 2 0
BBX 2 10 0 -2
BITMAP
40
40
40
40
40
40
40
40
40
C0
ENDCHAR
STARTCHAR 1D86
ENCODING 7558
SWIDTH 900 0
DWIDTH 10 0
BBX 9 8 1 -2
BITMAP
F700
8900
8900
8900
8900
8880
0080
0180
ENDCHAR
STARTCHAR 1D87
ENCODING 7559
SWIDTH 540 0
DWIDTH 6 0
BBX 5 8 1 -2
BITMAP
F0
88
88
88
88
88
08
18
ENDCHAR
STARTCHAR 1D88
ENCODING 7560
SWIDTH 540 0
DWIDTH 6 0
BBX 5 9 1 -3
BITMAP
F0
88
88
88
88
F0
90
B0
80
ENDCHAR
STARTCHAR 1D89
ENCODING 7561
SWIDTH 360 0
DWIDTH 4 0
BBX 4 8 0 -2
BITMAP
70
40
40
40
40
40
40
C0
ENDCHAR
STARTCHAR 1D8A
ENCODING 7562
SWIDTH 450 0
DWIDTH 5 0
BBX 4 8 1 -2
BITMAP
F0
80
C0
30
10
E0
20
60
ENDCHAR
STARTCHAR 1D8B
ENCODING 7563
SWIDTH 360 0
DWIDTH 4 0
BBX 4 11 0 -2
BITMAP
60
40
40
40
40
40
40
70
50
70
80
ENDCHAR
STARTCHAR 1D8C
ENCODING 7564
SWIDTH 450 0
DWIDTH 5 0
BBX 5 8 0 -2
BITMAP
88
48
48
50
30
38
08
18
ENDCHAR
STARTCHAR 1D8D
ENCODING 7565
SWIDTH 450 0
DWIDTH 5 0
BBX 5 8 1 -2
BITMAP
90
B0
60
60
90
98
08
10
ENDCHAR
STARTCHAR 1D8E
ENCODING 7566
SWIDTH 450 0
DWIDTH 5 0
BBX 5 8 0 -2
BITMAP
78
10
20
20
40
F8
08
18
ENDCHAR
STARTCHAR 1D8F
ENCODING 7567
SWIDTH 540 0
DWIDTH 6 0
BBX 6 8 1 -2
BITMAP
F0
10
30
D0
90
E8
08
0C
ENDCHAR
STARTCHAR 1D90
ENCODING 7568
SWIDTH 540 0
DWIDTH 6 0
BBX 7 8 1 -2
BITMAP
F8
88
88
88
88
FC
04
06
ENDCHAR
STARTCHAR 1D91
ENCODING 7569
SWIDTH 540 0
DWIDTH 6 0
BBX 6 11 1 -2
BITMAP
08
08
F8
88
88
88
88
F8
08
08
04
ENDCHAR
STARTCHAR 1D92
ENCODING 7570
SWIDTH 540 0
DWIDTH 6 0
BBX 6 8 1 -2
BITMAP
70
98
F8
80
80
70
10
0C
ENDCHAR
STARTCHAR 1D93
ENCODING 7571
SWIDTH 450 0
DWIDTH 5 0
BBX 6 8 0 -2
BITMAP
78
40
70
40
80
78
08
0C
ENDCHAR
STARTCHAR 1D94
ENCODING 7572
SWIDTH 450 0
DWIDTH 5 0
BBX 5 8 0 -2
BITMAP
70
08
70
18
08
F0
80
C0
ENDCHAR
STARTCHAR 1D95
ENCODING 7573
SWIDTH 630 0
DWIDTH 7 0
BBX 7 8 1 -2
BITMAP
F0
10
08
F8
98
F8
08
06
ENDCHAR
STARTCHAR 1D96
ENCODING 7574
SWIDTH 180 0
DWIDTH 2 0
BBX 3 10 1 -2
BITMAP
80
00
80
80
80
80
80
80
80
60
ENDCHAR
STARTCHAR 1D97
ENCODING 7575
SWIDTH 450 0
DWIDTH 5 0
BBX 5 8 0 -2
BITMAP
F0
10
08
08
10
F0
80
40
ENDCHAR
STARTCHAR 1D98
ENCODING 7576
SWIDTH 180 0
DWIDTH 2 0
BBX 3 10 0 -1
BITMAP
60
40
40
40
40
40
40
C0
80
C0
ENDCHAR
STARTCHAR 1D99
ENCODING 7577
SWIDTH 540 0
DWIDTH 6 0
BBX 7 8 1 -2
BITMAP
88
88
88
88
88
F8
08
06
ENDCHAR
STARTCHAR 1D9A
ENCODING 7578
SWIDTH 450 0
DWIDTH 5 0
BBX 5 8 0 -2
BITMAP
F8
10
30
08
08
F0
80
C0
ENDCHAR
STARTCHAR 1D9B
ENCODING 7579
SWIDTH 360 0
DWIDTH 4 0
BBX 4 4 0 3
BITMAP
E0
90
90
70
ENDCHAR
STARTCHAR 1D9C
ENCODING 7580
SWIDTH 270 0
DWIDTH 3 0
BBX 3 4 0 3
BITMAP
60
80
80
60
ENDCHAR
STARTCHAR 1D9D
ENCODING 7581
SWIDTH 270 0
DWIDTH 3 0
BBX 3 4 0 3
BITMAP
60
80
E0
60
ENDCHAR
STARTCHAR 1D9E
ENCODING 7582
SWIDTH 360 0
DWIDTH 4 0
BBX 4 5 0 3
BITMAP
20
10
F0
90
60
ENDCHAR
STARTCHAR 1D9F
ENCODING 7583
SWIDTH 270 0
DWIDTH 3 0
BBX 3 4 0 3
BITMAP
E0
20
20
E0
ENDCHAR
STARTCHAR 1DA0
ENCODING 7584
SWIDTH 180 0
DWIDTH 2 0
BBX 2 4 0 3
BITMAP
40
C0
80
80
ENDCHAR
STARTCHAR 1DA1
ENCODING 7585
SWIDTH 90 0
DWIDTH 1 0
BBX 1 4 0 3
BITMAP
80
80
80
80
ENDCHAR
STARTCHAR 1DA2
ENCODING 7586
SWIDTH 360 0
DWIDTH 4 0
BBX 4 5 0 2
BITMAP
70
90
90
70
30
ENDCHAR
STARTCHAR 1DA3
ENCODING 7587
SWIDTH 360 0
DWIDTH 4 0
BBX 3 5 1 2
BITMAP
20
A0
A0
E0
20
ENDCHAR
STARTCHAR 1DA4
ENCODING 7588
SWIDTH 90 0
DWIDTH 1 0
BBX 1 2 0 5
BITMAP
80
80
ENDCHAR
STARTCHAR 1DA5
ENCODING 7589
SWIDTH 180 0
DWIDTH 2 0
BBX 1 3 1 4
BITMAP
80
80
80
ENDCHAR
STARTCHAR 1DA6
ENCODING 7590
SWIDTH 180 0
DWIDTH 2 0
BBX 2 4 0 3
BITMAP
C0
80
80
C0
ENDCHAR
STARTCHAR 1DA7
ENCODING 7591
SWIDTH 180 0
DWIDTH 2 0
BBX 2 4 0 3
BITMAP
C0
80
80
C0
ENDCHAR
STARTCHAR 1DA8
ENCODING 7592
SWIDTH 90 0
DWIDTH 1 0
BBX 2 4 -1 4
BITMAP
40
40
40
C0
ENDCHAR
STARTCHAR 1DA9
ENCODING 7593
SWIDTH 90 0
DWIDTH 1 0
BBX 1 6 1 2
BITMAP
80
80
80
80
80
80
ENDCHAR
STARTCHAR 1DAA
ENCODING 7594
SWIDTH 90 0
DWIDTH 1 0
BBX 2 6 0 2
BITMAP
80
80
80
80
40
40
ENDCHAR
STARTCHAR 1DAB
ENCODING 7595
SWIDTH 270 0
DWIDTH 3 0
BBX 2 3 1 4
BITMAP
80
80
C0
ENDCHAR
STARTCHAR 1DAC
ENCODING 7596
SWIDTH 540 0
DWIDTH 6 0
BBX 5 5 1 2
BITMAP
D8
A8
A8
28
08
ENDCHAR
STARTCHAR 1DAD
ENCODING 7597
SWIDTH 540 0
DWIDTH 6 0
BBX 5 5 1 2
BITMAP
28
A8
A8
F8
08
ENDCHAR
STARTCHAR 1DAE
ENCODING 7598
SWIDTH 360 0
DWIDTH 4 0
BBX 4 5 0 2
BITMAP
70
90
90
90
80
ENDCHAR
STARTCHAR 1DAF
ENCODING 7599
SWIDTH 360 0
DWIDTH 4 0
BBX 3 5 1 2
BITMAP
E0
A0
A0
20
20
ENDCHAR
STARTCHAR 1DB0
ENCODING 7600
SWIDTH 360 0
DWIDTH 4 0
BBX 3 4 1 3
BITMAP
A0
A0
E0
20
ENDCHAR
STARTCHAR 1DB1
ENCODING 7601
SWIDTH 360 0
DWIDTH 4 0
BBX 4 4 0 3
BITMAP
60
90
F0
60
ENDCHAR
STARTCHAR 1DB2
ENCODING 7602
SWIDTH 450 0
DWIDTH 5 0
BBX 5 6 0 2
BITMAP
20
70
A8
A8
70
20
ENDCHAR
STARTCHAR 1DB3
ENCODING 7603
SWIDTH 270 0
DWIDTH 3 0
BBX 3 5 0 2
BITMAP
60
80
60
E0
80
ENDCHAR
STARTCHAR 1DB4
ENCODING 7604
SWIDTH 90 0
DWIDTH 1 0
BBX 1 6 0 2
BITMAP
80
80
80
80
80
80
ENDCHAR
STARTCHAR 1DB5
ENCODING 7605
SWIDTH 180 0
DWIDTH 2 0
BBX 2 4 0 3
BITMAP
C0
80
80
40
ENDCHAR
STARTCHAR 1DB6
ENCODING 7606
SWIDTH 360 0
DWIDTH 4 0
BBX 4 4 0 3
BITMAP
10
90
F0
70
ENDCHAR
STARTCHAR 1DB7
ENCODING 7607
SWIDTH 360 0
DWIDTH 4 0
BBX 4 4 0 3
BITMAP
F0
90
90
60
ENDCHAR
STARTCHAR 1DB8
ENCODING 7608
SWIDTH 360 0
DWIDTH 4 0
BBX 3 4 1 3
BITMAP
20
A0
A0
C0
ENDCHAR
STARTCHAR 1DB9
ENCODING 7609
SWIDTH 360 0
DWIDTH 4 0
BBX 3 4 1 3
BITMAP
60
A0
A0
C0
ENDCHAR
STARTCHAR 1DBA
ENCODING 7610
SWIDTH 270 0
DWIDTH 3 0
BBX 4 4 0 3
BITMAP
40
60
A0
90
ENDCHAR
STARTCHAR 1DBB
ENCODING 7611
SWIDTH 270 0
DWIDTH 3 0
BBX 3 4 0 3
BITMAP
E0
40
40
E0
ENDCHAR
STARTCHAR 1DBC
ENCODING 7612
SWIDTH 270 0
DWIDTH 3 0
BBX 3 5 0 2
BITMAP
E0
40
40
E0
20
ENDCHAR
STARTCHAR 1DBD
ENCODING 7613
SWIDTH 270 0
DWIDTH 3 0
BBX 4 4 0 3
BITMAP
E0
40
70
F0
ENDCHAR
STARTCHAR 1DBE
ENCODING 7614
SWIDTH 270 0
DWIDTH 3 0
BBX 3 5 0 2
BITMAP
E0
40
40
20
60
ENDCHAR
STARTCHAR 1DBF
ENCODING 7615
SWIDTH 360 0
DWIDTH 4 0
BBX 4 5 0 3
BITMAP
F0
90
F0
90
60
ENDCHAR
STARTCHAR 1DC0
ENCODING 7616
SWIDTH 0 0
DWIDTH 0 0
BBX 4 2 -2 7
BITMAP
50
A0
ENDCHAR
STARTCHAR 1DC1
ENCODING 7617
SWIDTH 0 0
DWIDTH 0 0
BBX 4 2 -2 7
BITMAP
30
C0
ENDCHAR
STARTCHAR 1DC2
ENCODING 7618
SWIDTH 0 0
DWIDTH 0 0
BBX 1 1 -1 -1
BITMAP
80
ENDCHAR
STARTCHAR 1DC3
ENCODING 7619
SWIDTH 0 0
DWIDTH 0 0
BBX 4 1 -2 7
BITMAP
F0
ENDCHAR
STARTCHAR 1DC4
ENCODING 7620
SWIDTH 0 0
DWIDTH 0 0
BBX 4 1 -2 7
BITMAP
F0
ENDCHAR
STARTCHAR 1DC5
ENCODING 7621
SWIDTH 0 0
DWIDTH 0 0
BBX 4 1 -2 7
BITMAP
F0
ENDCHAR
STARTCHAR 1DC6
ENCODING 7622
SWIDTH 0 0
DWIDTH 0 0
BBX 3 1 -2 7
BITMAP
E0
ENDCHAR
STARTCHAR 1DC7
ENCODING 7623
SWIDTH 0 0
DWIDTH 0 0
BBX 3 1 -1 7
BITMAP
E0
ENDCHAR
STARTCHAR 1DC8
ENCODING 7624
SWIDTH 0 0
DWIDTH 0 0
BBX 4 1 -2 7
BITMAP
F0
ENDCHAR
STARTCHAR 1DC9
ENCODING 7625
SWIDTH 0 0
DWIDTH 0 0
BBX 4 1 -2 7
BITMAP
F0
ENDCHAR
STARTCHAR 1DCA
ENCODING 7626
SWIDTH 0 0
DWIDTH 0 0
BBX 1 2 -1 -3
BITMAP
80
80
ENDCHAR
STARTCHAR 1DCB
ENCODING 7627
SWIDTH 0 0
DWIDTH 0 0
BBX 6 1 -6 7
BITMAP
FC
ENDCHAR
STARTCHAR 1DCC
ENCODING 7628
SWIDTH 0 0
DWIDTH 0 0
BBX 6 1 -6 7
BITMAP
FC
ENDCHAR
STARTCHAR 1DCD
ENCODING 7629
SWIDTH 0 0
DWIDTH 0 0
BBX 8 2 -4 7
BITMAP
18
E7
ENDCHAR
STARTCHAR 1DCE
ENCODING 7630
SWIDTH 0 0
DWIDTH 0 0
BBX 2 3 -4 6
BITMAP
80
40
80
ENDCHAR
STARTCHAR 1DCF
ENCODING 7631
SWIDTH 0 0
DWIDTH 0 0
BBX 2 3 -4 -3
BITMAP
80
C0
40
ENDCHAR
STARTCHAR 1DD0
ENCODING 7632
SWIDTH 0 0
DWIDTH 0 0
BBX 5 2 -2 -2
BITMAP
90
F8
ENDCHAR
STARTCHAR 1DD1
ENCODING 7633
SWIDTH 0 0
DWIDTH 0 0
BBX 4 2 -2 7
BITMAP
D0
F0
ENDCHAR
STARTCHAR 1DD2
ENCODING 7634
SWIDTH 0 0
DWIDTH 0 0
BBX 2 3 -1 6
BITMAP
C0
C0
40
ENDCHAR
STARTCHAR 1DD3
ENCODING 7635
SWIDTH 0 0
DWIDTH 0 0
BBX 6 1 -3 7
BITMAP
FC
ENDCHAR
STARTCHAR 1DD4
ENCODING 7636
SWIDTH 0 0
DWIDTH 0 0
BBX 4 2 -2 7
BITMAP
70
E0
ENDCHAR
STARTCHAR 1DD5
ENCODING 7637
SWIDTH 0 0
DWIDTH 0 0
BBX 4 2 -2 7
BITMAP
70
F0
ENDCHAR
STARTCHAR 1DD6
ENCODING 7638
SWIDTH 0 0
DWIDTH 0 0
BBX 4 2 -2 7
BITMAP
30
E0
ENDCHAR
STARTCHAR 1DD7
ENCODING 7639
SWIDTH 0 0
DWIDTH 0 0
BBX 2 3 -1 7
BITMAP
80
80
40
ENDCHAR
STARTCHAR 1DD8
ENCODING 7640
SWIDTH 0 0
DWIDTH 0 0
BBX 2 3 -1 7
BITMAP
80
C0
C0
ENDCHAR
STARTCHAR 1DD9
ENCODING 7641
SWIDTH 0 0
DWIDTH 0 0
BBX 2 3 -1 7
BITMAP
C0
C0
C0
ENDCHAR
STARTCHAR 1DDA
ENCODING 7642
SWIDTH 0 0
DWIDTH 0 0
BBX 2 3 -1 7
BITMAP
C0
C0
40
ENDCHAR
STARTCHAR 1DDB
ENCODING 7643
SWIDTH 0 0
DWIDTH 0 0
BBX 2 2 -1 7
BITMAP
80
C0
ENDCHAR
STARTCHAR 1DDC
ENCODING 7644
SWIDTH 0 0
DWIDTH 0 0
BBX 2 3 -1 7
BITMAP
80
C0
C0
ENDCHAR
STARTCHAR 1DDD
ENCODING 7645
SWIDTH 0 0
DWIDTH 0 0
BBX 1 1 0 8
BITMAP
80
ENDCHAR
STARTCHAR 1DDE
ENCODING 7646
SWIDTH 0 0
DWIDTH 0 0
BBX 1 2 -1 7
BITMAP
80
80
ENDCHAR
STARTCHAR 1DDF
ENCODING 7647
SWIDTH 0 0
DWIDTH 0 0
BBX 3 2 -1 7
BITMAP
A0
60
ENDCHAR
STARTCHAR 1DE0
ENCODING 7648
SWIDTH 0 0
DWIDTH 0 0
BBX 2 1 -1 7
BITMAP
C0
ENDCHAR
STARTCHAR 1DE1
ENCODING 7649
SWIDTH 0 0
DWIDTH 0 0
BBX 2 2 -1 7
BITMAP
80
40
ENDCHAR
STARTCHAR 1DE2
ENCODING 7650
SWIDTH 0 0
DWIDTH 0 0
BBX 2 2 -1 7
BITMAP
C0
C0
ENDCHAR
STARTCHAR 1DE3
ENCODING 7651
SWIDTH 0 0
DWIDTH 0 0
BBX 1 2 0 7
BITMAP
80
80
ENDCHAR
STARTCHAR 1DE4
ENCODING 7652
SWIDTH 0 0
DWIDTH 0 0
BBX 2 2 -1 7
BITMAP
80
40
ENDCHAR
STARTCHAR 1DE5
ENCODING 7653
SWIDTH 0 0
DWIDTH 0 0
BBX 1 2 0 7
BITMAP
80
80
ENDCHAR
STARTCHAR 1DE6
ENCODING 7654
SWIDTH 0 0
DWIDTH 0 0
BBX 2 2 -1 7
BITMAP
40
80
ENDCHAR
STARTCHAR 1DE7
ENCODING 7655
SWIDTH 0 0
DWIDTH 0 0
BBX 2 2 -1 7
BITMAP
C0
C0
ENDCHAR
STARTCHAR 1DE8
ENCODING 7656
SWIDTH 0 0
DWIDTH 0 0
BBX 2 2 -1 8
BITMAP
C0
C0
ENDCHAR
STARTCHAR 1DE9
ENCODING 7657
SWIDTH 0 0
DWIDTH 0 0
BBX 2 3 -1 7
BITMAP
C0
C0
C0
ENDCHAR
STARTCHAR 1DEA
ENCODING 7658
SWIDTH 0 0
DWIDTH 0 0
BBX 2 2 -1 7
BITMAP
40
C0
ENDCHAR
STARTCHAR 1DEB
ENCODING 7659
SWIDTH 0 0
DWIDTH 0 0
BBX 1 1 -1 8
BITMAP
80
ENDCHAR
STARTCHAR 1DEC
ENCODING 7660
SWIDTH 0 0
DWIDTH 0 0
BBX 1 1 -1 8
BITMAP
80
ENDCHAR
STARTCHAR 1DED
ENCODING 7661
SWIDTH 0 0
DWIDTH 0 0
BBX 2 2 -1 6
BITMAP
C0
C0
ENDCHAR
STARTCHAR 1DEE
ENCODING 7662
SWIDTH 0 0
DWIDTH 0 0
BBX 2 2 -1 7
BITMAP
C0
C0
ENDCHAR
STARTCHAR 1DEF
ENCODING 7663
SWIDTH 0 0
DWIDTH 0 0
BBX 1 2 -1 8
BITMAP
80
80
ENDCHAR
STARTCHAR 1DF0
ENCODING 7664
SWIDTH 0 0
DWIDTH 0 0
BBX 3 2 -2 7
BITMAP
A0
40
ENDCHAR
STARTCHAR 1DF1
ENCODING 7665
SWIDTH 0 0
DWIDTH 0 0
BBX 4 2 -2 7
BITMAP
B0
60
ENDCHAR
STARTCHAR 1DF2
ENCODING 7666
SWIDTH 0 0
DWIDTH 0 0
BBX 2 2 -1 8
BITMAP
40
C0
ENDCHAR
STARTCHAR 1DF3
ENCODING 7667
SWIDTH 0 0
DWIDTH 0 0
BBX 2 2 -1 8
BITMAP
C0
C0
ENDCHAR
STARTCHAR 1DF4
ENCODING 7668
SWIDTH 0 0
DWIDTH 0 0
BBX 2 1 -1 9
BITMAP
C0
ENDCHAR
STARTCHAR 1DF5
ENCODING 7669
SWIDTH 0 0
DWIDTH 0 0
BBX 2 1 -1 6
BITMAP
C0
ENDCHAR
STARTCHAR 1DF6
ENCODING 7670
SWIDTH 0 0
DWIDTH 0 0
BBX 4 1 -2 7
BITMAP
F0
ENDCHAR
STARTCHAR 1DF7
ENCODING 7671
SWIDTH 0 0
DWIDTH 0 0
BBX 4 1 -2 7
BITMAP
F0
ENDCHAR
STARTCHAR 1DF8
ENCODING 7672
SWIDTH 0 0
DWIDTH 0 0
BBX 2 1 -1 7
BITMAP
C0
ENDCHAR
STARTCHAR 1DF9
ENCODING 7673
SWIDTH 0 0
DWIDTH 0 0
BBX 6 1 -3 -2
BITMAP
FC
ENDCHAR
STARTCHAR 1DFB
ENCODING 7675
SWIDTH 0 0
DWIDTH 0 0
BBX 6 3 -3 5
BITMAP
54
A8
A8
ENDCHAR
STARTCHAR 1DFC
ENCODING 7676
SWIDTH 0 0
DWIDTH 0 0
BBX 6 1 -3 -2
BITMAP
FC
ENDCHAR
STARTCHAR 1DFD
ENCODING 7677
SWIDTH 0 0
DWIDTH 0 0
BBX 4 3 -2 -3
BITMAP
F0
00
60
ENDCHAR
STARTCHAR 1DFE
ENCODING 7678
SWIDTH 0 0
DWIDTH 0 0
BBX 2 2 -1 7
BITMAP
40
C0
ENDCHAR
STARTCHAR 1DFF
ENCODING 7679
SWIDTH 0 0
DWIDTH 0 0
BBX 4 2 -2 -2
BITMAP
F0
80
ENDCHAR
STARTCHAR 1E00
ENCODING 7680
SWIDTH 630 0
DWIDTH 7 0
BBX 7 11 0 -3
BITMAP
10
28
28
28
44
7C
46
82
00
38
38
ENDCHAR
STARTCHAR 1E01
ENCODING 7681
SWIDTH 540 0
DWIDTH 6 0
BBX 4 9 1 -3
BITMAP
F0
10
30
D0
90
F0
00
E0
60
ENDCHAR
STARTCHAR 1E02
ENCODING 7682
SWIDTH 630 0
DWIDTH 7 0
BBX 6 10 1 0
BITMAP
20
00
F8
88
88
F8
88
84
8C
F8
ENDCHAR
STARTCHAR 1E03
ENCODING 7683
SWIDTH 540 0
DWIDTH 6 0
BBX 5 11 1 0
BITMAP
20
20
00
80
80
F0
88
88
88
88
F0
ENDCHAR
STARTCHAR 1E04
ENCODING 7684
SWIDTH 630 0
DWIDTH 7 0
BBX 6 10 1 -2
BITMAP
F8
88
88
F8
88
84
8C
F8
00
20
ENDCHAR
STARTCHAR 1E05
ENCODING 7685
SWIDTH 540 0
DWIDTH 6 0
BBX 5 10 1 -2
BITMAP
80
80
F0
88
88
88
88
F0
00
20
ENDCHAR
STARTCHAR 1E06
ENCODING 7686
SWIDTH 630 0
DWIDTH 7 0
BBX 6 10 1 -2
BITMAP
F8
88
88
F8
88
84
8C
F8
00
70
ENDCHAR
STARTCHAR 1E07
ENCODING 7687
SWIDTH 540 0
DWIDTH 6 0
BBX 5 10 1 -2
BITMAP
80
80
F0
88
88
88
88
F0
00
70
ENDCHAR
STARTCHAR 1E08
ENCODING 7688
SWIDTH 630 0
DWIDTH 7 0
BBX 6 14 1 -3
BITMAP
08
10
00
7C
C0
80
80
80
80
C0
78
20
10
30
ENDCHAR
STARTCHAR 1E09
ENCODING 7689
SWIDTH 450 0
DWIDTH 5 0
BBX 4 12 1 -3
BITMAP
10
20
00
70
80
80
80
80
70
40
20
60
ENDCHAR
STARTCHAR 1E0A
ENCODING 7690
SWIDTH 720 0
DWIDTH 8 0
BBX 6 10 1 0
BITMAP
30
00
F8
8C
84
84
84
84
8C
F8
ENDCHAR
STARTCHAR 1E0B
ENCODING 7691
SWIDTH 540 0
DWIDTH 6 0
BBX 5 8 1 3
BITMAP
08
08
F8
88
88
88
88
F8
ENDCHAR
STARTCHAR 1E0C
ENCODING 7692
SWIDTH 720 0
DWIDTH 8 0
BBX 6 10 1 -2
BITMAP
F8
8C
84
84
84
84
8C
F8
00
20
ENDCHAR
STARTCHAR 1E0D
ENCODING 7693
SWIDTH 540 0
DWIDTH 6 0
BBX 5 10 1 -2
BITMAP
08
08
F8
88
88
88
88
F8
00
20
ENDCHAR
STARTCHAR 1E0E
ENCODING 7694
SWIDTH 720 0
DWIDTH 8 0
BBX 6 10 1 -2
BITMAP
F8
8C
84
84
84
84
8C
F8
00
70
ENDCHAR
STARTCHAR 1E0F
ENCODING 7695
SWIDTH 540 0
DWIDTH 6 0
BBX 5 10 1 -2
BITMAP
08
08
F8
88
88
88
88
F8
00
70
ENDCHAR
STARTCHAR 1E10
ENCODING 7696
SWIDTH 720 0
DWIDTH 8 0
BBX 6 11 1 -3
BITMAP
F8
8C
84
84
84
84
8C
F8
20
10
20
ENDCHAR
STARTCHAR 1E11
ENCODING 7697
SWIDTH 540 0
DWIDTH 6 0
BBX 5 11 1 -3
BITMAP
08
08
F8
88
88
88
88
F8
20
20
60
ENDCHAR
STARTCHAR 1E12
ENCODING 7698
SWIDTH 720 0
DWIDTH 8 0
BBX 6 10 1 -2
BITMAP
F8
8C
84
84
84
84
8C
F8
20
50
ENDCHAR
STARTCHAR 1E13
ENCODING 7699
SWIDTH 540 0
DWIDTH 6 0
BBX 5 10 1 -2
BITMAP
08
08
F8
88
88
88
88
F8
20
50
ENDCHAR
STARTCHAR 1E14
ENCODING 7700
SWIDTH 540 0
DWIDTH 6 0
BBX 5 12 1 0
BITMAP
40
20
70
00
F8
80
80
F0
80
80
80
F8
ENDCHAR
STARTCHAR 1E15
ENCODING 7701
SWIDTH 540 0
DWIDTH 6 0
BBX 5 10 1 0
BITMAP
40
20
70
00
70
98
F8
80
80
70
ENDCHAR
STARTCHAR 1E16
ENCODING 7702
SWIDTH 540 0
DWIDTH 6 0
BBX 5 12 1 0
BITMAP
10
20
70
00
F8
80
80
F0
80
80
80
F8
ENDCHAR
STARTCHAR 1E17
ENCODING 7703
SWIDTH 540 0
DWIDTH 6 0
BBX 5 10 1 0
BITMAP
30
40
70
00
70
98
F8
80
80
70
ENDCHAR
STARTCHAR 1E18
ENCODING 7704
SWIDTH 540 0
DWIDTH 6 0
BBX 5 10 1 -2
BITMAP
F8
80
80
F0
80
80
80
F8
20
50
ENDCHAR
STARTCHAR 1E19
ENCODING 7705
SWIDTH 540 0
DWIDTH 6 0
BBX 5 8 1 -2
BITMAP
70
98
F8
80
80
70
20
50
ENDCHAR
STARTCHAR 1E1A
ENCODING 7706
SWIDTH 540 0
DWIDTH 6 0
BBX 5 10 1 -2
BITMAP
F8
80
80
F0
80
80
80
F8
00
F0
ENDCHAR
STARTCHAR 1E1B
ENCODING 7707
SWIDTH 540 0
DWIDTH 6 0
BBX 5 8 1 -2
BITMAP
70
98
F8
80
80
70
00
F0
ENDCHAR
STARTCHAR 1E1C
ENCODING 7708
SWIDTH 540 0
DWIDTH 6 0
BBX 5 13 1 -3
BITMAP
70
00
F8
80
80
F0
80
80
80
F8
20
20
60
ENDCHAR
STARTCHAR 1E1D
ENCODING 7709
SWIDTH 540 0
DWIDTH 6 0
BBX 5 11 1 -3
BITMAP
70
00
70
98
F8
80
80
70
20
20
60
ENDCHAR
STARTCHAR 1E1E
ENCODING 7710
SWIDTH 450 0
DWIDTH 5 0
BBX 5 10 1 0
BITMAP
20
00
F8
80
80
80
F0
80
80
80
ENDCHAR
STARTCHAR 1E1F
ENCODING 7711
SWIDTH 270 0
DWIDTH 3 0
BBX 4 11 0 0
BITMAP
20
00
00
70
40
F0
40
40
40
40
40
ENDCHAR
STARTCHAR 1E20
ENCODING 7712
SWIDTH 720 0
DWIDTH 8 0
BBX 6 10 1 0
BITMAP
38
00
3C
C0
80
80
8C
84
C4
7C
ENDCHAR
STARTCHAR 1E21
ENCODING 7713
SWIDTH 540 0
DWIDTH 6 0
BBX 5 11 1 -3
BITMAP
70
00
78
88
88
88
88
F8
08
18
60
ENDCHAR
STARTCHAR 1E22
ENCODING 7714
SWIDTH 720 0
DWIDTH 8 0
BBX 6 10 1 0
BITMAP
10
00
84
84
84
FC
84
84
84
84
ENDCHAR
STARTCHAR 1E23
ENCODING 7715
SWIDTH 540 0
DWIDTH 6 0
BBX 5 11 1 0
BITMAP
80
80
00
80
80
F0
88
88
88
88
88
ENDCHAR
STARTCHAR 1E24
ENCODING 7716
SWIDTH 720 0
DWIDTH 8 0
BBX 6 10 1 -2
BITMAP
84
84
84
FC
84
84
84
84
00
10
ENDCHAR
STARTCHAR 1E25
ENCODING 7717
SWIDTH 540 0
DWIDTH 6 0
BBX 5 10 1 -2
BITMAP
80
80
F0
88
88
88
88
88
00
20
ENDCHAR
STARTCHAR 1E26
ENCODING 7718
SWIDTH 720 0
DWIDTH 8 0
BBX 6 10 1 0
BITMAP
28
00
84
84
84
FC
84
84
84
84
ENDCHAR
STARTCHAR 1E27
ENCODING 7719
SWIDTH 540 0
DWIDTH 6 0
BBX 6 11 0 0
BITMAP
A0
00
00
40
40
78
44
44
44
44
44
ENDCHAR
STARTCHAR 1E28
ENCODING 7720
SWIDTH 720 0
DWIDTH 8 0
BBX 7 11 0 -3
BITMAP
42
42
42
7E
42
42
42
42
40
20
C0
ENDCHAR
STARTCHAR 1E29
ENCODING 7721
SWIDTH 540 0
DWIDTH 6 0
BBX 6 11 0 -3
BITMAP
40
40
78
44
44
44
44
44
40
40
C0
ENDCHAR
STARTCHAR 1E2A
ENCODING 7722
SWIDTH 720 0
DWIDTH 8 0
BBX 6 10 1 -2
BITMAP
84
84
84
FC
84
84
84
84
00
30
ENDCHAR
STARTCHAR 1E2B
ENCODING 7723
SWIDTH 540 0
DWIDTH 6 0
BBX 5 10 1 -2
BITMAP
80
80
F0
88
88
88
88
88
00
70
ENDCHAR
STARTCHAR 1E2C
ENCODING 7724
SWIDTH 270 0
DWIDTH 3 0
BBX 4 10 0 -2
BITMAP
E0
40
40
40
40
40
40
E0
00
F0
ENDCHAR
STARTCHAR 1E2D
ENCODING 7725
SWIDTH 180 0
DWIDTH 2 0
BBX 4 10 -1 -2
BITMAP
20
00
20
20
20
20
20
20
00
F0
ENDCHAR
STARTCHAR 1E2E
ENCODING 7726
SWIDTH 270 0
DWIDTH 3 0
BBX 3 12 0 0
BITMAP
20
20
A0
00
E0
40
40
40
40
40
40
E0
ENDCHAR
STARTCHAR 1E2F
ENCODING 7727
SWIDTH 180 0
DWIDTH 2 0
BBX 3 10 0 0
BITMAP
20
40
A0
00
40
40
40
40
40
40
ENDCHAR
STARTCHAR 1E30
ENCODING 7728
SWIDTH 540 0
DWIDTH 6 0
BBX 6 11 1 0
BITMAP
10
10
00
88
90
B0
E0
E0
90
88
8C
ENDCHAR
STARTCHAR 1E31
ENCODING 7729
SWIDTH 450 0
DWIDTH 5 0
BBX 4 11 1 0
BITMAP
40
80
00
80
80
90
A0
C0
A0
90
90
ENDCHAR
STARTCHAR 1E32
ENCODING 7730
SWIDTH 540 0
DWIDTH 6 0
BBX 6 10 1 -2
BITMAP
88
90
B0
E0
E0
90
88
8C
00
20
ENDCHAR
STARTCHAR 1E33
ENCODING 7731
SWIDTH 450 0
DWIDTH 5 0
BBX 4 10 1 -2
BITMAP
80
80
90
A0
C0
A0
90
90
00
60
ENDCHAR
STARTCHAR 1E34
ENCODING 7732
SWIDTH 540 0
DWIDTH 6 0
BBX 6 10 1 -2
BITMAP
88
90
B0
E0
E0
90
88
8C
00
70
ENDCHAR
STARTCHAR 1E35
ENCODING 7733
SWIDTH 450 0
DWIDTH 5 0
BBX 4 10 1 -2
BITMAP
80
80
90
A0
C0
A0
90
90
00
F0
ENDCHAR
STARTCHAR 1E36
ENCODING 7734
SWIDTH 450 0
DWIDTH 5 0
BBX 5 10 1 -2
BITMAP
80
80
80
80
80
80
80
F8
00
20
ENDCHAR
STARTCHAR 1E37
ENCODING 7735
SWIDTH 180 0
DWIDTH 2 0
BBX 1 10 1 -2
BITMAP
80
80
80
80
80
80
80
80
00
80
ENDCHAR
STARTCHAR 1E38
ENCODING 7736
SWIDTH 450 0
DWIDTH 5 0
BBX 6 12 0 -2
BITMAP
E0
00
40
40
40
40
40
40
40
7C
00
10
ENDCHAR
STARTCHAR 1E39
ENCODING 7737
SWIDTH 180 0
DWIDTH 2 0
BBX 3 12 0 -2
BITMAP
E0
00
40
40
40
40
40
40
40
40
00
40
ENDCHAR
STARTCHAR 1E3A
ENCODING 7738
SWIDTH 450 0
DWIDTH 5 0
BBX 5 10 1 -2
BITMAP
80
80
80
80
80
80
80
F8
00
70
ENDCHAR
STARTCHAR 1E3B
ENCODING 7739
SWIDTH 180 0
DWIDTH 2 0
BBX 3 10 0 -2
BITMAP
40
40
40
40
40
40
40
40
00
E0
ENDCHAR
STARTCHAR 1E3C
ENCODING 7740
SWIDTH 450 0
DWIDTH 5 0
BBX 5 10 1 -2
BITMAP
80
80
80
80
80
80
80
F8
20
50
ENDCHAR
STARTCHAR 1E3D
ENCODING 7741
SWIDTH 180 0
DWIDTH 2 0
BBX 3 10 0 -2
BITMAP
40
40
40
40
40
40
40
40
40
A0
ENDCHAR
STARTCHAR 1E3E
ENCODING 7742
SWIDTH 900 0
DWIDTH 10 0
BBX 8 11 1 0
BITMAP
0C
08
00
C3
C3
C5
A5
A5
99
99
99
ENDCHAR
STARTCHAR 1E3F
ENCODING 7743
SWIDTH 900 0
DWIDTH 10 0
BBX 8 9 1 0
BITMAP
04
08
00
F7
89
89
89
89
89
ENDCHAR
STARTCHAR 1E40
ENCODING 7744
SWIDTH 900 0
DWIDTH 10 0
BBX 8 10 1 0
BITMAP
18
00
C3
C3
C5
A5
A5
99
99
99
ENDCHAR
STARTCHAR 1E41
ENCODING 7745
SWIDTH 900 0
DWIDTH 10 0
BBX 8 8 1 0
BITMAP
08
00
F7
89
89
89
89
89
ENDCHAR
STARTCHAR 1E42
ENCODING 7746
SWIDTH 900 0
DWIDTH 10 0
BBX 8 10 1 -2
BITMAP
C3
C3
C5
A5
A5
99
99
99
00
18
ENDCHAR
STARTCHAR 1E43
ENCODING 7747
SWIDTH 900 0
DWIDTH 10 0
BBX 8 8 1 -2
BITMAP
F7
89
89
89
89
89
00
08
ENDCHAR
STARTCHAR 1E44
ENCODING 7748
SWIDTH 720 0
DWIDTH 8 0
BBX 6 10 1 0
BITMAP
10
00
C4
C4
A4
A4
94
8C
8C
84
ENDCHAR
STARTCHAR 1E45
ENCODING 7749
SWIDTH 540 0
DWIDTH 6 0
BBX 5 8 1 0
BITMAP
20
00
F0
88
88
88
88
88
ENDCHAR
STARTCHAR 1E46
ENCODING 7750
SWIDTH 720 0
DWIDTH 8 0
BBX 6 10 1 -2
BITMAP
C4
C4
A4
A4
94
8C
8C
84
00
10
ENDCHAR
STARTCHAR 1E47
ENCODING 7751
SWIDTH 540 0
DWIDTH 6 0
BBX 5 8 1 -2
BITMAP
F0
88
88
88
88
88
00
20
ENDCHAR
STARTCHAR 1E48
ENCODING 7752
SWIDTH 720 0
DWIDTH 8 0
BBX 6 10 1 -2
BITMAP
C4
C4
A4
A4
94
8C
8C
84
00
38
ENDCHAR
STARTCHAR 1E49
ENCODING 7753
SWIDTH 540 0
DWIDTH 6 0
BBX 5 8 1 -2
BITMAP
F0
88
88
88
88
88
00
70
ENDCHAR
STARTCHAR 1E4A
ENCODING 7754
SWIDTH 720 0
DWIDTH 8 0
BBX 6 10 1 -2
BITMAP
C4
C4
A4
A4
94
8C
8C
84
10
38
ENDCHAR
STARTCHAR 1E4B
ENCODING 7755
SWIDTH 540 0
DWIDTH 6 0
BBX 5 8 1 -2
BITMAP
F0
88
88
88
88
88
20
50
ENDCHAR
STARTCHAR 1E4C
ENCODING 7756
SWIDTH 720 0
DWIDTH 8 0
BBX 7 12 1 0
BITMAP
08
10
38
00
78
C4
82
82
82
82
84
7C
ENDCHAR
STARTCHAR 1E4D
ENCODING 7757
SWIDTH 540 0
DWIDTH 6 0
BBX 5 10 1 0
BITMAP
10
20
70
00
70
88
88
88
88
70
ENDCHAR
STARTCHAR 1E4E
ENCODING 7758
SWIDTH 720 0
DWIDTH 8 0
BBX 7 11 1 0
BITMAP
28
30
08
78
C4
82
82
82
82
84
7C
ENDCHAR
STARTCHAR 1E4F
ENCODING 7759
SWIDTH 540 0
DWIDTH 6 0
BBX 5 9 1 0
BITMAP
50
70
00
70
88
88
88
88
70
ENDCHAR
STARTCHAR 1E50
ENCODING 7760
SWIDTH 720 0
DWIDTH 8 0
BBX 7 12 1 0
BITMAP
20
10
38
00
78
C4
82
82
82
82
84
7C
ENDCHAR
STARTCHAR 1E51
ENCODING 7761
SWIDTH 540 0
DWIDTH 6 0
BBX 5 10 1 0
BITMAP
40
20
70
00
70
88
88
88
88
70
ENDCHAR
STARTCHAR 1E52
ENCODING 7762
SWIDTH 720 0
DWIDTH 8 0
BBX 7 12 1 0
BITMAP
18
10
38
00
78
C4
82
82
82
82
84
7C
ENDCHAR
STARTCHAR 1E53
ENCODING 7763
SWIDTH 540 0
DWIDTH 6 0
BBX 5 10 1 0
BITMAP
30
20
70
00
70
88
88
88
88
70
ENDCHAR
STARTCHAR 1E54
ENCODING 7764
SWIDTH 540 0
DWIDTH 6 0
BBX 5 11 1 0
BITMAP
10
20
00
F0
88
88
88
F0
80
80
80
ENDCHAR
STARTCHAR 1E55
ENCODING 7765
SWIDTH 540 0
DWIDTH 6 0
BBX 5 12 1 -3
BITMAP
10
10
00
F0
88
88
88
88
F0
80
80
80
ENDCHAR
STARTCHAR 1E56
ENCODING 7766
SWIDTH 540 0
DWIDTH 6 0
BBX 5 10 1 0
BITMAP
20
00
F0
88
88
88
F0
80
80
80
ENDCHAR
STARTCHAR 1E57
ENCODING 7767
SWIDTH 540 0
DWIDTH 6 0
BBX 5 11 1 -3
BITMAP
20
00
F0
88
88
88
88
F0
80
80
80
ENDCHAR
STARTCHAR 1E58
ENCODING 7768
SWIDTH 540 0
DWIDTH 6 0
BBX 5 10 1 0
BITMAP
20
00
F0
88
88
88
F0
90
88
88
ENDCHAR
STARTCHAR 1E59
ENCODING 7769
SWIDTH 360 0
DWIDTH 4 0
BBX 3 8 1 0
BITMAP
40
00
E0
80
80
80
80
80
ENDCHAR
STARTCHAR 1E5A
ENCODING 7770
SWIDTH 540 0
DWIDTH 6 0
BBX 5 10 1 -2
BITMAP
F0
88
88
88
F0
90
88
88
00
20
ENDCHAR
STARTCHAR 1E5B
ENCODING 7771
SWIDTH 360 0
DWIDTH 4 0
BBX 3 8 1 -2
BITMAP
E0
80
80
80
80
80
00
80
ENDCHAR
STARTCHAR 1E5C
ENCODING 7772
SWIDTH 540 0
DWIDTH 6 0
BBX 5 12 1 -2
BITMAP
70
00
F0
88
88
88
F0
90
88
88
00
20
ENDCHAR
STARTCHAR 1E5D
ENCODING 7773
SWIDTH 360 0
DWIDTH 4 0
BBX 3 10 1 -2
BITMAP
E0
00
E0
80
80
80
80
80
00
80
ENDCHAR
STARTCHAR 1E5E
ENCODING 7774
SWIDTH 540 0
DWIDTH 6 0
BBX 5 10 1 -2
BITMAP
F0
88
88
88
F0
90
88
88
00
70
ENDCHAR
STARTCHAR 1E5F
ENCODING 7775
SWIDTH 360 0
DWIDTH 4 0
BBX 4 8 0 -2
BITMAP
70
40
40
40
40
40
00
E0
ENDCHAR
STARTCHAR 1E60
ENCODING 7776
SWIDTH 540 0
DWIDTH 6 0
BBX 5 10 1 0
BITMAP
20
00
F0
80
80
C0
30
08
18
F0
ENDCHAR
STARTCHAR 1E61
ENCODING 7777
SWIDTH 450 0
DWIDTH 5 0
BBX 4 8 1 0
BITMAP
40
00
F0
80
C0
30
10
E0
ENDCHAR
STARTCHAR 1E62
ENCODING 7778
SWIDTH 540 0
DWIDTH 6 0
BBX 5 10 1 -2
BITMAP
F0
80
80
C0
30
08
18
F0
00
40
ENDCHAR
STARTCHAR 1E63
ENCODING 7779
SWIDTH 450 0
DWIDTH 5 0
BBX 4 8 1 -2
BITMAP
F0
80
C0
30
10
E0
00
40
ENDCHAR
STARTCHAR 1E64
ENCODING 7780
SWIDTH 540 0
DWIDTH 6 0
BBX 5 10 1 0
BITMAP
70
00
F0
80
80
C0
30
08
18
F0
ENDCHAR
STARTCHAR 1E65
ENCODING 7781
SWIDTH 450 0
DWIDTH 5 0
BBX 4 9 1 0
BITMAP
30
A0
00
F0
80
C0
30
10
E0
ENDCHAR
STARTCHAR 1E66
ENCODING 7782
SWIDTH 540 0
DWIDTH 6 0
BBX 5 11 1 0
BITMAP
20
70
00
F0
80
80
C0
30
08
18
F0
ENDCHAR
STARTCHAR 1E67
ENCODING 7783
SWIDTH 450 0
DWIDTH 5 0
BBX 4 9 1 0
BITMAP
50
E0
00
F0
80
C0
30
10
E0
ENDCHAR
STARTCHAR 1E68
ENCODING 7784
SWIDTH 540 0
DWIDTH 6 0
BBX 5 12 1 -2
BITMAP
20
00
F0
80
80
C0
30
08
18
F0
00
40
ENDCHAR
STARTCHAR 1E69
ENCODING 7785
SWIDTH 450 0
DWIDTH 5 0
BBX 4 10 1 -2
BITMAP
40
00
F0
80
C0
30
10
E0
00
40
ENDCHAR
STARTCHAR 1E6A
ENCODING 7786
SWIDTH 540 0
DWIDTH 6 0
BBX 6 10 0 0
BITMAP
10
00
FC
10
10
10
10
10
10
10
ENDCHAR
STARTCHAR 1E6B
ENCODING 7787
SWIDTH 360 0
DWIDTH 4 0
BBX 4 10 0 0
BITMAP
40
40
00
40
F0
40
40
40
40
70
ENDCHAR
STARTCHAR 1E6C
ENCODING 7788
SWIDTH 540 0
DWIDTH 6 0
BBX 6 10 0 -2
BITMAP
FC
10
10
10
10
10
10
10
00
10
ENDCHAR
STARTCHAR 1E6D
ENCODING 7789
SWIDTH 360 0
DWIDTH 4 0
BBX 4 9 0 -2
BITMAP
40
F0
40
40
40
40
70
00
20
ENDCHAR
STARTCHAR 1E6E
ENCODING 7790
SWIDTH 540 0
DWIDTH 6 0
BBX 6 10 0 -2
BITMAP
FC
10
10
10
10
10
10
10
00
78
ENDCHAR
STARTCHAR 1E6F
ENCODING 7791
SWIDTH 360 0
DWIDTH 4 0
BBX 4 9 0 -2
BITMAP
40
F0
40
40
40
40
70
00
70
ENDCHAR
STARTCHAR 1E70
ENCODING 7792
SWIDTH 540 0
DWIDTH 6 0
BBX 6 10 0 -2
BITMAP
FC
10
10
10
10
10
10
10
10
30
ENDCHAR
STARTCHAR 1E71
ENCODING 7793
SWIDTH 360 0
DWIDTH 4 0
BBX 4 9 0 -2
BITMAP
40
F0
40
40
40
40
70
20
50
ENDCHAR
STARTCHAR 1E72
ENCODING 7794
SWIDTH 720 0
DWIDTH 8 0
BBX 6 10 1 -2
BITMAP
84
84
84
84
84
84
84
78
00
68
ENDCHAR
STARTCHAR 1E73
ENCODING 7795
SWIDTH 540 0
DWIDTH 6 0
BBX 5 8 1 -2
BITMAP
88
88
88
88
88
F8
00
50
ENDCHAR
STARTCHAR 1E74
ENCODING 7796
SWIDTH 720 0
DWIDTH 8 0
BBX 6 10 1 -2
BITMAP
84
84
84
84
84
84
84
78
00
78
ENDCHAR
STARTCHAR 1E75
ENCODING 7797
SWIDTH 540 0
DWIDTH 6 0
BBX 5 8 1 -2
BITMAP
88
88
88
88
88
F8
00
F0
ENDCHAR
STARTCHAR 1E76
ENCODING 7798
SWIDTH 720 0
DWIDTH 8 0
BBX 6 10 1 -2
BITMAP
84
84
84
84
84
84
84
78
30
30
ENDCHAR
STARTCHAR 1E77
ENCODING 7799
SWIDTH 540 0
DWIDTH 6 0
BBX 5 8 1 -2
BITMAP
88
88
88
88
88
F8
20
50
ENDCHAR
STARTCHAR 1E78
ENCODING 7800
SWIDTH 720 0
DWIDTH 8 0
BBX 6 12 1 0
BITMAP
10
20
78
00
84
84
84
84
84
84
84
78
ENDCHAR
STARTCHAR 1E79
ENCODING 7801
SWIDTH 540 0
DWIDTH 6 0
BBX 5 10 1 0
BITMAP
10
20
70
00
88
88
88
88
88
F8
ENDCHAR
STARTCHAR 1E7A
ENCODING 7802
SWIDTH 720 0
DWIDTH 8 0
BBX 6 11 1 0
BITMAP
08
78
00
84
84
84
84
84
84
84
78
ENDCHAR
STARTCHAR 1E7B
ENCODING 7803
SWIDTH 540 0
DWIDTH 6 0
BBX 5 9 1 0
BITMAP
50
70
00
88
88
88
88
88
F8
ENDCHAR
STARTCHAR 1E7C
ENCODING 7804
SWIDTH 540 0
DWIDTH 6 0
BBX 7 10 0 0
BITMAP
38
00
86
44
44
48
28
28
30
10
ENDCHAR
STARTCHAR 1E7D
ENCODING 7805
SWIDTH 450 0
DWIDTH 5 0
BBX 5 8 0 0
BITMAP
78
00
88
48
48
50
30
30
ENDCHAR
STARTCHAR 1E7E
ENCODING 7806
SWIDTH 540 0
DWIDTH 6 0
BBX 7 10 0 -2
BITMAP
86
44
44
48
28
28
30
10
00
10
ENDCHAR
STARTCHAR 1E7F
ENCODING 7807
SWIDTH 450 0
DWIDTH 5 0
BBX 5 8 0 -2
BITMAP
88
48
48
50
30
30
00
20
ENDCHAR
STARTCHAR 1E80
ENCODING 7808
SWIDTH 900 0
DWIDTH 10 0
BBX 10 11 0 0
BITMAP
0800
0800
0000
8C40
4C40
4C40
4A80
5280
3280
3300
2100
ENDCHAR
STARTCHAR 1E81
ENCODING 7809
SWIDTH 720 0
DWIDTH 8 0
BBX 8 9 0 0
BITMAP
10
08
00
89
59
55
55
66
22
ENDCHAR
STARTCHAR 1E82
ENCODING 7810
SWIDTH 900 0
DWIDTH 10 0
BBX 10 11 0 0
BITMAP
0200
0400
0000
8C40
4C40
4C40
4A80
5280
3280
3300
2100
ENDCHAR
STARTCHAR 1E83
ENCODING 7811
SWIDTH 720 0
DWIDTH 8 0
BBX 8 9 0 0
BITMAP
04
08
00
89
59
55
55
66
22
ENDCHAR
STARTCHAR 1E84
ENCODING 7812
SWIDTH 900 0
DWIDTH 10 0
BBX 10 10 0 0
BITMAP
0A00
0000
8C40
4C40
4C40
4A80
5280
3280
3300
2100
ENDCHAR
STARTCHAR 1E85
ENCODING 7813
SWIDTH 720 0
DWIDTH 8 0
BBX 8 8 0 0
BITMAP
14
00
89
59
55
55
66
22
ENDCHAR
STARTCHAR 1E86
ENCODING 7814
SWIDTH 900 0
DWIDTH 10 0
BBX 10 10 0 0
BITMAP
0400
0000
8C40
4C40
4C40
4A80
5280
3280
3300
2100
ENDCHAR
STARTCHAR 1E87
ENCODING 7815
SWIDTH 720 0
DWIDTH 8 0
BBX 8 8 0 0
BITMAP
08
00
89
59
55
55
66
22
ENDCHAR
STARTCHAR 1E88
ENCODING 7816
SWIDTH 900 0
DWIDTH 10 0
BBX 10 10 0 -2
BITMAP
8C40
4C40
4C40
4A80
5280
3280
3300
2100
0000
0400
ENDCHAR
STARTCHAR 1E89
ENCODING 7817
SWIDTH 720 0
DWIDTH 8 0
BBX 8 8 0 -2
BITMAP
89
59
55
55
66
22
00
08
ENDCHAR
STARTCHAR 1E8A
ENCODING 7818
SWIDTH 540 0
DWIDTH 6 0
BBX 6 10 0 0
BITMAP
10
00
44
48
28
30
30
28
4C
84
ENDCHAR
STARTCHAR 1E8B
ENCODING 7819
SWIDTH 450 0
DWIDTH 5 0
BBX 4 8 1 0
BITMAP
40
00
90
B0
60
60
90
90
ENDCHAR
STARTCHAR 1E8C
ENCODING 7820
SWIDTH 540 0
DWIDTH 6 0
BBX 6 10 0 0
BITMAP
28
00
44
48
28
30
30
28
4C
84
ENDCHAR
STARTCHAR 1E8D
ENCODING 7821
SWIDTH 450 0
DWIDTH 5 0
BBX 4 8 1 0
BITMAP
A0
00
90
B0
60
60
90
90
ENDCHAR
STARTCHAR 1E8E
ENCODING 7822
SWIDTH 540 0
DWIDTH 6 0
BBX 6 10 0 0
BITMAP
10
00
84
4C
48
30
30
10
10
10
ENDCHAR
STARTCHAR 1E8F
ENCODING 7823
SWIDTH 450 0
DWIDTH 5 0
BBX 5 11 0 -3
BITMAP
20
00
88
48
48
50
30
30
20
20
C0
ENDCHAR
STARTCHAR 1E90
ENCODING 7824
SWIDTH 540 0
DWIDTH 6 0
BBX 6 11 0 0
BITMAP
10
30
08
7C
08
08
10
20
20
40
FC
ENDCHAR
STARTCHAR 1E91
ENCODING 7825
SWIDTH 450 0
DWIDTH 5 0
BBX 5 9 0 0
BITMAP
20
50
00
78
10
20
20
40
F8
ENDCHAR
STARTCHAR 1E92
ENCODING 7826
SWIDTH 540 0
DWIDTH 6 0
BBX 6 10 0 -2
BITMAP
7C
08
08
10
20
20
40
FC
00
10
ENDCHAR
STARTCHAR 1E93
ENCODING 7827
SWIDTH 450 0
DWIDTH 5 0
BBX 5 8 0 -2
BITMAP
78
10
20
20
40
F8
00
20
ENDCHAR
STARTCHAR 1E94
ENCODING 7828
SWIDTH 540 0
DWIDTH 6 0
BBX 6 10 0 -2
BITMAP
7C
08
08
10
20
20
40
FC
00
38
ENDCHAR
STARTCHAR 1E95
ENCODING 7829
SWIDTH 450 0
DWIDTH 5 0
BBX 5 8 0 -2
BITMAP
78
10
20
20
40
F8
00
70
ENDCHAR
STARTCHAR 1E96
ENCODING 7830
SWIDTH 540 0
DWIDTH 6 0
BBX 5 10 1 -2
BITMAP
80
80
F0
88
88
88
88
88
00
70
ENDCHAR
STARTCHAR 1E97
ENCODING 7831
SWIDTH 360 0
DWIDTH 4 0
BBX 4 9 0 0
BITMAP
A0
00
40
F0
40
40
40
40
70
ENDCHAR
STARTCHAR 1E98
ENCODING 7832
SWIDTH 720 0
DWIDTH 8 0
BBX 8 9 0 0
BITMAP
18
14
08
89
59
55
55
66
22
ENDCHAR
STARTCHAR 1E99
ENCODING 7833
SWIDTH 450 0
DWIDTH 5 0
BBX 5 12 0 -3
BITMAP
30
50
20
88
48
48
50
30
30
20
20
C0
ENDCHAR
STARTCHAR 1E9A
ENCODING 7834
SWIDTH 540 0
DWIDTH 6 0
BBX 5 9 1 0
BITMAP
08
08
08
F0
10
30
D0
90
F0
ENDCHAR
STARTCHAR 1E9B
ENCODING 7835
SWIDTH 270 0
DWIDTH 3 0
BBX 3 10 1 0
BITMAP
40
00
E0
80
80
80
80
80
80
80
ENDCHAR
STARTCHAR 1E9C
ENCODING 7836
SWIDTH 270 0
DWIDTH 3 0
BBX 4 8 0 1
BITMAP
70
40
60
C0
40
40
40
40
ENDCHAR
STARTCHAR 1E9D
ENCODING 7837
SWIDTH 270 0
DWIDTH 3 0
BBX 3 8 1 1
BITMAP
E0
80
C0
80
80
80
80
80
ENDCHAR
STARTCHAR 1E9E
ENCODING 7838
SWIDTH 630 0
DWIDTH 7 0
BBX 6 8 1 0
BITMAP
78
8C
88
98
84
84
84
BC
ENDCHAR
STARTCHAR 1E9F
ENCODING 7839
SWIDTH 540 0
DWIDTH 6 0
BBX 6 8 0 1
BITMAP
3C
40
30
68
44
C4
44
78
ENDCHAR
STARTCHAR 1EA0
ENCODING 7840
SWIDTH 630 0
DWIDTH 7 0
BBX 7 10 0 -2
BITMAP
10
28
28
28
44
7C
46
82
00
10
ENDCHAR
STARTCHAR 1EA1
ENCODING 7841
SWIDTH 540 0
DWIDTH 6 0
BBX 4 8 1 -2
BITMAP
F0
10
30
D0
90
F0
00
20
ENDCHAR
STARTCHAR 1EA2
ENCODING 7842
SWIDTH 630 0
DWIDTH 7 0
BBX 7 11 0 0
BITMAP
18
10
00
10
28
28
28
44
7C
46
82
ENDCHAR
STARTCHAR 1EA3
ENCODING 7843
SWIDTH 540 0
DWIDTH 6 0
BBX 4 9 1 0
BITMAP
20
20
00
F0
10
30
D0
90
F0
ENDCHAR
STARTCHAR 1EA4
ENCODING 7844
SWIDTH 630 0
DWIDTH 7 0
BBX 7 11 0 0
BITMAP
04
18
20
10
28
28
28
44
7C
46
82
ENDCHAR
STARTCHAR 1EA5
ENCODING 7845
SWIDTH 540 0
DWIDTH 6 0
BBX 5 9 1 0
BITMAP
08
60
00
F0
10
30
D0
90
F0
ENDCHAR
STARTCHAR 1EA6
ENCODING 7846
SWIDTH 630 0
DWIDTH 7 0
BBX 7 11 0 0
BITMAP
40
18
20
10
28
28
28
44
7C
46
82
ENDCHAR
STARTCHAR 1EA7
ENCODING 7847
SWIDTH 540 0
DWIDTH 6 0
BBX 5 9 0 0
BITMAP
80
30
00
78
08
18
68
48
78
ENDCHAR
STARTCHAR 1EA8
ENCODING 7848
SWIDTH 630 0
DWIDTH 7 0
BBX 7 11 0 1
BITMAP
04
30
08
10
28
28
28
44
7C
46
82
ENDCHAR
STARTCHAR 1EA9
ENCODING 7849
SWIDTH 540 0
DWIDTH 6 0
BBX 5 10 1 0
BITMAP
10
08
60
00
F0
10
30
D0
90
F0
ENDCHAR
STARTCHAR 1EAA
ENCODING 7850
SWIDTH 630 0
DWIDTH 7 0
BBX 7 12 0 0
BITMAP
20
18
18
20
10
28
28
28
44
7C
46
82
ENDCHAR
STARTCHAR 1EAB
ENCODING 7851
SWIDTH 540 0
DWIDTH 6 0
BBX 4 10 1 0
BITMAP
50
20
60
00
F0
10
30
D0
90
F0
ENDCHAR
STARTCHAR 1EAC
ENCODING 7852
SWIDTH 630 0
DWIDTH 7 0
BBX 7 13 0 -2
BITMAP
10
28
00
10
28
28
28
44
7C
46
82
00
10
ENDCHAR
STARTCHAR 1EAD
ENCODING 7853
SWIDTH 540 0
DWIDTH 6 0
BBX 4 11 1 -2
BITMAP
20
60
10
F0
10
30
D0
90
F0
00
60
ENDCHAR
STARTCHAR 1EAE
ENCODING 7854
SWIDTH 630 0
DWIDTH 7 0
BBX 7 11 0 0
BITMAP
10
28
10
10
28
28
28
44
7C
46
82
ENDCHAR
STARTCHAR 1EAF
ENCODING 7855
SWIDTH 540 0
DWIDTH 6 0
BBX 4 9 1 0
BITMAP
20
70
00
F0
10
30
D0
90
F0
ENDCHAR
STARTCHAR 1EB0
ENCODING 7856
SWIDTH 630 0
DWIDTH 7 0
BBX 7 11 0 0
BITMAP
10
28
10
10
28
28
28
44
7C
46
82
ENDCHAR
STARTCHAR 1EB1
ENCODING 7857
SWIDTH 540 0
DWIDTH 6 0
BBX 4 9 1 0
BITMAP
40
70
00
F0
10
30
D0
90
F0
ENDCHAR
STARTCHAR 1EB2
ENCODING 7858
SWIDTH 630 0
DWIDTH 7 0
BBX 7 12 0 0
BITMAP
10
10
28
10
10
28
28
28
44
7C
46
82
ENDCHAR
STARTCHAR 1EB3
ENCODING 7859
SWIDTH 540 0
DWIDTH 6 0
BBX 4 10 1 0
BITMAP
60
20
70
00
F0
10
30
D0
90
F0
ENDCHAR
STARTCHAR 1EB4
ENCODING 7860
SWIDTH 630 0
DWIDTH 7 0
BBX 7 12 0 0
BITMAP
20
18
28
10
10
28
28
28
44
7C
46
82
ENDCHAR
STARTCHAR 1EB5
ENCODING 7861
SWIDTH 540 0
DWIDTH 6 0
BBX 4 10 1 0
BITMAP
50
20
70
00
F0
10
30
D0
90
F0
ENDCHAR
STARTCHAR 1EB6
ENCODING 7862
SWIDTH 630 0
DWIDTH 7 0
BBX 7 12 0 -2
BITMAP
38
00
10
28
28
28
44
7C
46
82
00
10
ENDCHAR
STARTCHAR 1EB7
ENCODING 7863
SWIDTH 540 0
DWIDTH 6 0
BBX 4 10 1 -2
BITMAP
70
00
F0
10
30
D0
90
F0
00
40
ENDCHAR
STARTCHAR 1EB8
ENCODING 7864
SWIDTH 540 0
DWIDTH 6 0
BBX 5 10 1 -2
BITMAP
F8
80
80
F0
80
80
80
F8
00
20
ENDCHAR
STARTCHAR 1EB9
ENCODING 7865
SWIDTH 540 0
DWIDTH 6 0
BBX 5 8 1 -2
BITMAP
70
98
F8
80
80
70
00
20
ENDCHAR
STARTCHAR 1EBA
ENCODING 7866
SWIDTH 540 0
DWIDTH 6 0
BBX 5 11 1 0
BITMAP
60
20
00
F8
80
80
F0
80
80
80
F8
ENDCHAR
STARTCHAR 1EBB
ENCODING 7867
SWIDTH 540 0
DWIDTH 6 0
BBX 5 9 1 0
BITMAP
60
20
00
70
98
F8
80
80
70
ENDCHAR
STARTCHAR 1EBC
ENCODING 7868
SWIDTH 540 0
DWIDTH 6 0
BBX 5 10 1 0
BITMAP
70
00
F8
80
80
F0
80
80
80
F8
ENDCHAR
STARTCHAR 1EBD
ENCODING 7869
SWIDTH 540 0
DWIDTH 6 0
BBX 5 8 1 0
BITMAP
F0
00
70
98
F8
80
80
70
ENDCHAR
STARTCHAR 1EBE
ENCODING 7870
SWIDTH 540 0
DWIDTH 6 0
BBX 5 11 1 0
BITMAP
08
60
00
F8
80
80
F0
80
80
80
F8
ENDCHAR
STARTCHAR 1EBF
ENCODING 7871
SWIDTH 540 0
DWIDTH 6 0
BBX 5 9 1 0
BITMAP
08
60
00
70
98
F8
80
80
70
ENDCHAR
STARTCHAR 1EC0
ENCODING 7872
SWIDTH 540 0
DWIDTH 6 0
BBX 5 11 1 0
BITMAP
80
60
10
F8
80
80
F0
80
80
80
F8
ENDCHAR
STARTCHAR 1EC1
ENCODING 7873
SWIDTH 540 0
DWIDTH 6 0
BBX 5 9 1 0
BITMAP
80
60
00
70
98
F8
80
80
70
ENDCHAR
STARTCHAR 1EC2
ENCODING 7874
SWIDTH 540 0
DWIDTH 6 0
BBX 5 11 1 1
BITMAP
08
60
00
F8
80
80
F0
80
80
80
F8
ENDCHAR
STARTCHAR 1EC3
ENCODING 7875
SWIDTH 540 0
DWIDTH 6 0
BBX 5 10 1 0
BITMAP
10
08
60
00
70
98
F8
80
80
70
ENDCHAR
STARTCHAR 1EC4
ENCODING 7876
SWIDTH 540 0
DWIDTH 6 0
BBX 5 12 1 0
BITMAP
40
30
60
00
F8
80
80
F0
80
80
80
F8
ENDCHAR
STARTCHAR 1EC5
ENCODING 7877
SWIDTH 540 0
DWIDTH 6 0
BBX 5 10 1 0
BITMAP
50
20
60
00
70
98
F8
80
80
70
ENDCHAR
STARTCHAR 1EC6
ENCODING 7878
SWIDTH 540 0
DWIDTH 6 0
BBX 5 13 1 -2
BITMAP
20
50
00
F8
80
80
F0
80
80
80
F8
00
20
ENDCHAR
STARTCHAR 1EC7
ENCODING 7879
SWIDTH 540 0
DWIDTH 6 0
BBX 5 11 1 -2
BITMAP
20
60
10
70
98
F8
80
80
70
00
20
ENDCHAR
STARTCHAR 1EC8
ENCODING 7880
SWIDTH 270 0
DWIDTH 3 0
BBX 3 11 0 0
BITMAP
60
20
00
E0
40
40
40
40
40
40
E0
ENDCHAR
STARTCHAR 1EC9
ENCODING 7881
SWIDTH 180 0
DWIDTH 2 0
BBX 2 9 1 0
BITMAP
C0
80
00
80
80
80
80
80
80
ENDCHAR
STARTCHAR 1ECA
ENCODING 7882
SWIDTH 270 0
DWIDTH 3 0
BBX 3 10 0 -2
BITMAP
E0
40
40
40
40
40
40
E0
00
40
ENDCHAR
STARTCHAR 1ECB
ENCODING 7883
SWIDTH 180 0
DWIDTH 2 0
BBX 1 10 1 -2
BITMAP
80
00
80
80
80
80
80
80
00
80
ENDCHAR
STARTCHAR 1ECC
ENCODING 7884
SWIDTH 720 0
DWIDTH 8 0
BBX 7 10 1 -2
BITMAP
78
C4
82
82
82
82
84
7C
00
10
ENDCHAR
STARTCHAR 1ECD
ENCODING 7885
SWIDTH 540 0
DWIDTH 6 0
BBX 5 8 1 -2
BITMAP
70
88
88
88
88
70
00
20
ENDCHAR
STARTCHAR 1ECE
ENCODING 7886
SWIDTH 720 0
DWIDTH 8 0
BBX 7 11 1 0
BITMAP
10
10
10
78
C4
82
82
82
82
84
7C
ENDCHAR
STARTCHAR 1ECF
ENCODING 7887
SWIDTH 540 0
DWIDTH 6 0
BBX 5 9 1 0
BITMAP
30
20
00
70
88
88
88
88
70
ENDCHAR
STARTCHAR 1ED0
ENCODING 7888
SWIDTH 720 0
DWIDTH 8 0
BBX 7 11 1 0
BITMAP
04
30
08
78
C4
82
82
82
82
84
7C
ENDCHAR
STARTCHAR 1ED1
ENCODING 7889
SWIDTH 540 0
DWIDTH 6 0
BBX 5 9 1 0
BITMAP
08
60
10
70
88
88
88
88
70
ENDCHAR
STARTCHAR 1ED2
ENCODING 7890
SWIDTH 720 0
DWIDTH 8 0
BBX 7 11 1 0
BITMAP
40
30
08
78
C4
82
82
82
82
84
7C
ENDCHAR
STARTCHAR 1ED3
ENCODING 7891
SWIDTH 540 0
DWIDTH 6 0
BBX 5 9 1 0
BITMAP
80
60
10
70
88
88
88
88
70
ENDCHAR
STARTCHAR 1ED4
ENCODING 7892
SWIDTH 720 0
DWIDTH 8 0
BBX 7 11 1 1
BITMAP
04
30
08
78
C4
82
82
82
82
84
7C
ENDCHAR
STARTCHAR 1ED5
ENCODING 7893
SWIDTH 540 0
DWIDTH 6 0
BBX 5 10 1 0
BITMAP
18
08
60
10
70
88
88
88
88
70
ENDCHAR
STARTCHAR 1ED6
ENCODING 7894
SWIDTH 720 0
DWIDTH 8 0
BBX 7 12 1 0
BITMAP
20
18
30
08
78
C4
82
82
82
82
84
7C
ENDCHAR
STARTCHAR 1ED7
ENCODING 7895
SWIDTH 540 0
DWIDTH 6 0
BBX 5 10 1 0
BITMAP
70
00
60
10
70
88
88
88
88
70
ENDCHAR
STARTCHAR 1ED8
ENCODING 7896
SWIDTH 720 0
DWIDTH 8 0
BBX 7 13 1 -2
BITMAP
10
28
00
78
C4
82
82
82
82
84
7C
00
10
ENDCHAR
STARTCHAR 1ED9
ENCODING 7897
SWIDTH 540 0
DWIDTH 6 0
BBX 5 11 1 -2
BITMAP
20
50
00
70
88
88
88
88
70
00
20
ENDCHAR
STARTCHAR 1EDA
ENCODING 7898
SWIDTH 720 0
DWIDTH 8 0
BBX 8 11 1 0
BITMAP
08
10
00
79
C6
82
82
82
82
84
7C
ENDCHAR
STARTCHAR 1EDB
ENCODING 7899
SWIDTH 540 0
DWIDTH 6 0
BBX 6 9 1 0
BITMAP
10
20
04
74
88
88
88
88
70
ENDCHAR
STARTCHAR 1EDC
ENCODING 7900
SWIDTH 720 0
DWIDTH 8 0
BBX 8 11 1 0
BITMAP
20
10
00
79
C6
82
82
82
82
84
7C
ENDCHAR
STARTCHAR 1EDD
ENCODING 7901
SWIDTH 540 0
DWIDTH 6 0
BBX 6 9 1 0
BITMAP
40
20
04
74
88
88
88
88
70
ENDCHAR
STARTCHAR 1EDE
ENCODING 7902
SWIDTH 720 0
DWIDTH 8 0
BBX 8 11 1 0
BITMAP
30
10
00
79
C6
82
82
82
82
84
7C
ENDCHAR
STARTCHAR 1EDF
ENCODING 7903
SWIDTH 540 0
DWIDTH 6 0
BBX 6 9 1 0
BITMAP
60
20
04
74
88
88
88
88
70
ENDCHAR
STARTCHAR 1EE0
ENCODING 7904
SWIDTH 720 0
DWIDTH 8 0
BBX 8 10 1 0
BITMAP
38
00
79
C6
82
82
82
82
84
7C
ENDCHAR
STARTCHAR 1EE1
ENCODING 7905
SWIDTH 540 0
DWIDTH 6 0
BBX 6 8 1 0
BITMAP
70
04
74
88
88
88
88
70
ENDCHAR
STARTCHAR 1EE2
ENCODING 7906
SWIDTH 720 0
DWIDTH 8 0
BBX 8 10 1 -2
BITMAP
79
C6
82
82
82
82
84
7C
00
10
ENDCHAR
STARTCHAR 1EE3
ENCODING 7907
SWIDTH 540 0
DWIDTH 6 0
BBX 6 9 1 -2
BITMAP
04
74
88
88
88
88
70
00
20
ENDCHAR
STARTCHAR 1EE4
ENCODING 7908
SWIDTH 720 0
DWIDTH 8 0
BBX 6 10 1 -2
BITMAP
84
84
84
84
84
84
84
78
00
30
ENDCHAR
STARTCHAR 1EE5
ENCODING 7909
SWIDTH 540 0
DWIDTH 6 0
BBX 5 8 1 -2
BITMAP
88
88
88
88
88
F8
00
20
ENDCHAR
STARTCHAR 1EE6
ENCODING 7910
SWIDTH 720 0
DWIDTH 8 0
BBX 6 11 1 0
BITMAP
30
10
00
84
84
84
84
84
84
84
78
ENDCHAR
STARTCHAR 1EE7
ENCODING 7911
SWIDTH 540 0
DWIDTH 6 0
BBX 5 9 1 0
BITMAP
30
20
00
88
88
88
88
88
F8
ENDCHAR
STARTCHAR 1EE8
ENCODING 7912
SWIDTH 720 0
DWIDTH 8 0
BBX 8 11 1 0
BITMAP
18
10
00
85
86
84
84
84
84
84
78
ENDCHAR
STARTCHAR 1EE9
ENCODING 7913
SWIDTH 630 0
DWIDTH 7 0
BBX 7 9 1 0
BITMAP
10
20
02
8C
88
88
88
88
F8
ENDCHAR
STARTCHAR 1EEA
ENCODING 7914
SWIDTH 720 0
DWIDTH 8 0
BBX 8 11 1 0
BITMAP
20
20
00
85
86
84
84
84
84
84
78
ENDCHAR
STARTCHAR 1EEB
ENCODING 7915
SWIDTH 630 0
DWIDTH 7 0
BBX 7 9 1 0
BITMAP
40
20
02
8C
88
88
88
88
F8
ENDCHAR
STARTCHAR 1EEC
ENCODING 7916
SWIDTH 720 0
DWIDTH 8 0
BBX 8 11 1 0
BITMAP
30
10
00
85
86
84
84
84
84
84
78
ENDCHAR
STARTCHAR 1EED
ENCODING 7917
SWIDTH 630 0
DWIDTH 7 0
BBX 7 9 1 0
BITMAP
30
20
02
8C
88
88
88
88
F8
ENDCHAR
STARTCHAR 1EEE
ENCODING 7918
SWIDTH 720 0
DWIDTH 8 0
BBX 8 10 1 0
BITMAP
78
00
85
86
84
84
84
84
84
78
ENDCHAR
STARTCHAR 1EEF
ENCODING 7919
SWIDTH 630 0
DWIDTH 7 0
BBX 7 8 1 0
BITMAP
70
02
8C
88
88
88
88
F8
ENDCHAR
STARTCHAR 1EF0
ENCODING 7920
SWIDTH 720 0
DWIDTH 8 0
BBX 8 10 1 -2
BITMAP
85
86
84
84
84
84
84
78
00
10
ENDCHAR
STARTCHAR 1EF1
ENCODING 7921
SWIDTH 630 0
DWIDTH 7 0
BBX 7 9 1 -2
BITMAP
02
8C
88
88
88
88
F8
00
20
ENDCHAR
STARTCHAR 1EF2
ENCODING 7922
SWIDTH 540 0
DWIDTH 6 0
BBX 6 11 0 0
BITMAP
20
20
00
84
4C
48
30
30
10
10
10
ENDCHAR
STARTCHAR 1EF3
ENCODING 7923
SWIDTH 450 0
DWIDTH 5 0
BBX 5 12 0 -3
BITMAP
60
20
00
88
48
48
50
30
30
20
20
C0
ENDCHAR
STARTCHAR 1EF4
ENCODING 7924
SWIDTH 540 0
DWIDTH 6 0
BBX 6 10 0 -2
BITMAP
84
4C
48
30
30
10
10
10
00
10
ENDCHAR
STARTCHAR 1EF5
ENCODING 7925
SWIDTH 450 0
DWIDTH 5 0
BBX 5 9 0 -3
BITMAP
88
48
48
50
30
30
20
28
C0
ENDCHAR
STARTCHAR 1EF6
ENCODING 7926
SWIDTH 540 0
DWIDTH 6 0
BBX 6 11 0 0
BITMAP
30
10
00
84
4C
48
30
30
10
10
10
ENDCHAR
STARTCHAR 1EF7
ENCODING 7927
SWIDTH 450 0
DWIDTH 5 0
BBX 5 12 0 -3
BITMAP
10
30
00
88
48
48
50
30
30
20
20
C0
ENDCHAR
STARTCHAR 1EF8
ENCODING 7928
SWIDTH 540 0
DWIDTH 6 0
BBX 6 10 0 0
BITMAP
78
00
84
4C
48
30
30
10
10
10
ENDCHAR
ENDFONT
